<?xml version="1.0" encoding="UTF-8" standalone="no"?>
<!DOCTYPE svg PUBLIC "-//W3C//DTD SVG 1.1//EN"
 "http://www.w3.org/Graphics/SVG/1.1/DTD/svg11.dtd">
<!-- Generated by graphviz version 2.47.1 (20210417.1919)
 -->
<!-- Title: smf_flat Pages: 1 -->
<svg width="126pt" height="228pt"
 viewBox="0.00 0.00 126.00 227.60" xmlns="http://www.w3.org/2000/svg" xmlns:xlink="http://www.w3.org/1999/xlink">
<g id="graph0" class="graph" transform="scale(1 1) rotate(0) translate(4 223.6)">
<title>smf_flat</title>
<!-- init -->
<g id="node1" class="node">
<title>init</title>
<ellipse fill="white" stroke="#999999" cx="76.5" cy="-217.8" rx="1.8" ry="1.8"/>
</g>
<!-- STATE_S0 -->
<g id="node2" class="node">
<title>STATE_S0</title>
<polygon fill="white" stroke="#999999" points="118,-180 35,-180 35,-144 118,-144 118,-180"/>
<text text-anchor="middle" x="76.5" y="-158.3" font-family="Times New Roman,serif" font-size="14.00" fill="#404040">STATE_S0</text>
</g>
<!-- init&#45;&gt;STATE_S0 -->
<g id="edge1" class="edge">
<title>init&#45;&gt;STATE_S0</title>
<path fill="none" stroke="#999999" d="M76.5,-215.87C76.5,-212.64 76.5,-201.55 76.5,-190.35"/>
<polygon fill="#999999" stroke="#999999" points="80,-190.26 76.5,-180.26 73,-190.26 80,-190.26"/>
</g>
<!-- STATE_S1 -->
<g id="node3" class="node">
<title>STATE_S1</title>
<polygon fill="white" stroke="#999999" points="83,-108 0,-108 0,-72 83,-72 83,-108"/>
<text text-anchor="middle" x="41.5" y="-86.3" font-family="Times New Roman,serif" font-size="14.00" fill="#404040">STATE_S1</text>
</g>
<!-- STATE_S0&#45;&gt;STATE_S1 -->
<g id="edge2" class="edge">
<title>STATE_S0&#45;&gt;STATE_S1</title>
<path fill="none" stroke="#999999" d="M67.85,-143.7C63.86,-135.73 59.05,-126.1 54.63,-117.26"/>
<polygon fill="#999999" stroke="#999999" points="57.65,-115.48 50.05,-108.1 51.39,-118.61 57.65,-115.48"/>
</g>
<!-- STATE_S2 -->
<g id="node4" class="node">
<title>STATE_S2</title>
<polygon fill="white" stroke="#999999" points="118,-36 35,-36 35,0 118,0 118,-36"/>
<text text-anchor="middle" x="76.5" y="-14.3" font-family="Times New Roman,serif" font-size="14.00" fill="#404040">STATE_S2</text>
</g>
<!-- STATE_S1&#45;&gt;STATE_S2 -->
<g id="edge3" class="edge">
<title>STATE_S1&#45;&gt;STATE_S2</title>
<path fill="none" stroke="#999999" d="M50.15,-71.7C54.14,-63.73 58.95,-54.1 63.37,-45.26"/>
<polygon fill="#999999" stroke="#999999" points="66.61,-46.61 67.95,-36.1 60.35,-43.48 66.61,-46.61"/>
</g>
<!-- STATE_S2&#45;&gt;STATE_S0 -->
<g id="edge4" class="edge">
<title>STATE_S2&#45;&gt;STATE_S0</title>
<path fill="none" stroke="#999999" d="M83.15,-36.37C86.7,-46.58 90.7,-59.83 92.5,-72 94.84,-87.83 94.84,-92.17 92.5,-108 91.22,-116.65 88.83,-125.85 86.28,-134.11"/>
<polygon fill="#999999" stroke="#999999" points="82.95,-133.04 83.15,-143.63 89.6,-135.22 82.95,-133.04"/>
</g>
</g>
</svg>
