<?xml version="1.0" encoding="UTF-8" standalone="no"?>
<!DOCTYPE svg PUBLIC "-//W3C//DTD SVG 1.1//EN"
 "http://www.w3.org/Graphics/SVG/1.1/DTD/svg11.dtd">
<!-- Generated by graphviz version 2.47.1 (20210417.1919)
 -->
<!-- Pages: 1 -->
<svg width="160pt" height="444pt"
 viewBox="0.00 0.00 159.50 443.60" xmlns="http://www.w3.org/2000/svg" xmlns:xlink="http://www.w3.org/1999/xlink">
<g id="graph0" class="graph" transform="scale(1 1) rotate(0) translate(4 439.6)">
<!-- init -->
<g id="node1" class="node">
<title>init</title>
<ellipse fill="white" stroke="#999999" cx="76" cy="-433.8" rx="1.8" ry="1.8"/>
</g>
<!-- New -->
<g id="node2" class="node">
<title>New</title>
<polygon fill="white" stroke="#999999" points="103,-396 49,-396 49,-360 103,-360 103,-396"/>
<text text-anchor="middle" x="76" y="-374.3" font-family="Times New Roman,serif" font-size="14.00" fill="#404040">New</text>
</g>
<!-- init&#45;&gt;New -->
<g id="edge1" class="edge">
<title>init&#45;&gt;New</title>
<path fill="none" stroke="#999999" d="M76,-431.87C76,-428.64 76,-417.55 76,-406.35"/>
<polygon fill="#999999" stroke="#999999" points="79.5,-406.26 76,-396.26 72.5,-406.26 79.5,-406.26"/>
</g>
<!-- Triage -->
<g id="node3" class="node">
<title>Triage</title>
<polygon fill="white" stroke="#999999" points="103,-324 49,-324 49,-288 103,-288 103,-324"/>
<text text-anchor="middle" x="76" y="-302.3" font-family="Times New Roman,serif" font-size="14.00" fill="#404040">Triage</text>
</g>
<!-- New&#45;&gt;Triage -->
<g id="edge2" class="edge">
<title>New&#45;&gt;Triage</title>
<path fill="none" stroke="#999999" d="M76,-359.7C76,-351.98 76,-342.71 76,-334.11"/>
<polygon fill="#999999" stroke="#999999" points="79.5,-334.1 76,-324.1 72.5,-334.1 79.5,-334.1"/>
</g>
<!-- Assigned -->
<g id="node4" class="node">
<title>Assigned</title>
<polygon fill="white" stroke="#999999" points="68,-252 0,-252 0,-216 68,-216 68,-252"/>
<text text-anchor="middle" x="34" y="-230.3" font-family="Times New Roman,serif" font-size="14.00" fill="#404040">Assigned</text>
</g>
<!-- Triage&#45;&gt;Assigned -->
<g id="edge4" class="edge">
<title>Triage&#45;&gt;Assigned</title>
<path fill="none" stroke="#999999" d="M65.62,-287.7C60.74,-279.56 54.81,-269.69 49.42,-260.7"/>
<polygon fill="#999999" stroke="#999999" points="52.41,-258.88 44.26,-252.1 46.41,-262.48 52.41,-258.88"/>
</g>
<!-- Rejected -->
<g id="node5" class="node">
<title>Rejected</title>
<polygon fill="white" stroke="#999999" points="151.5,-252 86.5,-252 86.5,-216 151.5,-216 151.5,-252"/>
<text text-anchor="middle" x="119" y="-230.3" font-family="Times New Roman,serif" font-size="14.00" fill="#404040">Rejected</text>
</g>
<!-- Triage&#45;&gt;Rejected -->
<g id="edge3" class="edge">
<title>Triage&#45;&gt;Rejected</title>
<path fill="none" stroke="#999999" d="M91.92,-279.08C95.55,-273.17 99.41,-266.89 103.04,-260.98"/>
<polygon fill="#999999" stroke="#999999" points="88.88,-277.34 86.63,-287.7 94.85,-281.01 88.88,-277.34"/>
<polygon fill="#999999" stroke="#999999" points="106.24,-262.46 108.49,-252.1 100.28,-258.79 106.24,-262.46"/>
</g>
<!-- Review -->
<g id="node6" class="node">
<title>Review</title>
<polygon fill="white" stroke="#999999" points="105,-180 47,-180 47,-144 105,-144 105,-180"/>
<text text-anchor="middle" x="76" y="-158.3" font-family="Times New Roman,serif" font-size="14.00" fill="#404040">Review</text>
</g>
<!-- Assigned&#45;&gt;Review -->
<g id="edge5" class="edge">
<title>Assigned&#45;&gt;Review</title>
<path fill="none" stroke="#999999" d="M49.55,-207.08C53.1,-201.17 56.86,-194.89 60.41,-188.98"/>
<polygon fill="#999999" stroke="#999999" points="46.53,-205.32 44.38,-215.7 52.53,-208.92 46.53,-205.32"/>
<polygon fill="#999999" stroke="#999999" points="63.59,-190.48 65.74,-180.1 57.59,-186.88 63.59,-190.48"/>
</g>
<!-- Review&#45;&gt;Rejected -->
<g id="edge7" class="edge">
<title>Review&#45;&gt;Rejected</title>
<path fill="none" stroke="#999999" d="M86.51,-180.1C91.49,-188.21 97.55,-198.08 103.08,-207.08"/>
<polygon fill="#999999" stroke="#999999" points="100.15,-209.01 108.37,-215.7 106.12,-205.34 100.15,-209.01"/>
</g>
<!-- Accepted -->
<g id="node7" class="node">
<title>Accepted</title>
<polygon fill="white" stroke="#999999" points="111.5,-108 40.5,-108 40.5,-72 111.5,-72 111.5,-108"/>
<text text-anchor="middle" x="76" y="-86.3" font-family="Times New Roman,serif" font-size="14.00" fill="#404040">Accepted</text>
</g>
<!-- Review&#45;&gt;Accepted -->
<g id="edge6" class="edge">
<title>Review&#45;&gt;Accepted</title>
<path fill="none" stroke="#999999" d="M76,-143.7C76,-135.98 76,-126.71 76,-118.11"/>
<polygon fill="#999999" stroke="#999999" points="79.5,-118.1 76,-108.1 72.5,-118.1 79.5,-118.1"/>
</g>
<!-- Public -->
<g id="node8" class="node">
<title>Public</title>
<polygon fill="white" stroke="#999999" points="103,-36 49,-36 49,0 103,0 103,-36"/>
<text text-anchor="middle" x="76" y="-14.3" font-family="Times New Roman,serif" font-size="14.00" fill="#404040">Public</text>
</g>
<!-- Accepted&#45;&gt;Public -->
<g id="edge8" class="edge">
<title>Accepted&#45;&gt;Public</title>
<path fill="none" stroke="#999999" d="M76,-71.7C76,-63.98 76,-54.71 76,-46.11"/>
<polygon fill="#999999" stroke="#999999" points="79.5,-46.1 76,-36.1 72.5,-46.1 79.5,-46.1"/>
</g>
</g>
</svg>
