<?xml version="1.0" encoding="UTF-8" standalone="no"?>
<!DOCTYPE svg PUBLIC "-//W3C//DTD SVG 1.1//EN"
 "http://www.w3.org/Graphics/SVG/1.1/DTD/svg11.dtd">
<!-- Generated by graphviz version 2.47.1 (20210417.1919)
 -->
<!-- Pages: 1 -->
<svg width="573pt" height="269pt"
 viewBox="0.00 0.00 573.42 269.00" xmlns="http://www.w3.org/2000/svg" xmlns:xlink="http://www.w3.org/1999/xlink">
<g id="graph0" class="graph" transform="scale(1 1) rotate(0) translate(4 265)">
<!-- images -->
<g id="node1" class="node">
<title>images</title>
<polygon fill="white" stroke="#999999" points="319.99,-261 249.99,-261 249.99,-223 319.99,-223 319.99,-261"/>
<text text-anchor="middle" x="284.99" y="-245.8" font-family="Times New Roman,serif" font-size="14.00" fill="#404040">.png, .jpg</text>
<text text-anchor="middle" x="284.99" y="-230.8" font-family="Times New Roman,serif" font-size="14.00" fill="#404040">images</text>
</g>
<!-- sphinx -->
<g id="node8" class="node">
<title>sphinx</title>
<ellipse fill="white" stroke="#999999" cx="421.45" cy="-130" rx="45.92" ry="37.45"/>
<text text-anchor="middle" x="421.45" y="-141.3" font-family="Times New Roman,serif" font-size="14.00" fill="#404040">sphinx +</text>
<text text-anchor="middle" x="421.45" y="-126.3" font-family="Times New Roman,serif" font-size="14.00" fill="#404040">breathe,</text>
<text text-anchor="middle" x="421.45" y="-111.3" font-family="Times New Roman,serif" font-size="14.00" fill="#404040">docutils</text>
</g>
<!-- images&#45;&gt;sphinx -->
<g id="edge1" class="edge">
<title>images&#45;&gt;sphinx</title>
<path fill="none" stroke="#999999" d="M320.1,-226.26C326.77,-222.6 333.54,-218.46 339.49,-214 356.89,-200.97 373.92,-184.11 387.84,-168.91"/>
<polygon fill="#999999" stroke="#999999" points="390.74,-170.92 394.83,-161.15 385.54,-166.24 390.74,-170.92"/>
</g>
<!-- rst -->
<g id="node2" class="node">
<title>rst</title>
<polygon fill="white" stroke="#999999" points="339.49,-205 230.49,-205 230.49,-167 339.49,-167 339.49,-205"/>
<text text-anchor="middle" x="284.99" y="-189.8" font-family="Times New Roman,serif" font-size="14.00" fill="#404040">restructuredText</text>
<text text-anchor="middle" x="284.99" y="-174.8" font-family="Times New Roman,serif" font-size="14.00" fill="#404040">files</text>
</g>
<!-- rst&#45;&gt;sphinx -->
<g id="edge2" class="edge">
<title>rst&#45;&gt;sphinx</title>
<path fill="none" stroke="#999999" d="M331.89,-166.88C344.38,-161.68 357.96,-156.03 370.66,-150.74"/>
<polygon fill="#999999" stroke="#999999" points="372.27,-153.86 380.16,-146.78 369.58,-147.4 372.27,-153.86"/>
</g>
<!-- conf -->
<g id="node3" class="node">
<title>conf</title>
<polygon fill="white" stroke="#999999" points="329.99,-149 239.99,-149 239.99,-111 329.99,-111 329.99,-149"/>
<text text-anchor="middle" x="284.99" y="-133.8" font-family="Times New Roman,serif" font-size="14.00" fill="#404040">conf.py</text>
<text text-anchor="middle" x="284.99" y="-118.8" font-family="Times New Roman,serif" font-size="14.00" fill="#404040">configuration</text>
</g>
<!-- conf&#45;&gt;sphinx -->
<g id="edge3" class="edge">
<title>conf&#45;&gt;sphinx</title>
<path fill="none" stroke="#999999" d="M330.02,-130C341.28,-130 353.52,-130 365.26,-130"/>
<polygon fill="#999999" stroke="#999999" points="365.41,-133.5 375.41,-130 365.41,-126.5 365.41,-133.5"/>
</g>
<!-- rtd -->
<g id="node4" class="node">
<title>rtd</title>
<polygon fill="white" stroke="#999999" points="331.99,-93 237.99,-93 237.99,-55 331.99,-55 331.99,-93"/>
<text text-anchor="middle" x="284.99" y="-77.8" font-family="Times New Roman,serif" font-size="14.00" fill="#404040">read&#45;the&#45;docs</text>
<text text-anchor="middle" x="284.99" y="-62.8" font-family="Times New Roman,serif" font-size="14.00" fill="#404040">theme</text>
</g>
<!-- rtd&#45;&gt;sphinx -->
<g id="edge7" class="edge">
<title>rtd&#45;&gt;sphinx</title>
<path fill="none" stroke="#999999" d="M331.89,-93.12C344.38,-98.32 357.96,-103.97 370.66,-109.26"/>
<polygon fill="#999999" stroke="#999999" points="369.58,-112.6 380.16,-113.22 372.27,-106.14 369.58,-112.6"/>
</g>
<!-- header -->
<g id="node5" class="node">
<title>header</title>
<polygon fill="white" stroke="#999999" points="74,-38 0,-38 0,0 74,0 74,-38"/>
<text text-anchor="middle" x="37" y="-22.8" font-family="Times New Roman,serif" font-size="14.00" fill="#404040">c header</text>
<text text-anchor="middle" x="37" y="-7.8" font-family="Times New Roman,serif" font-size="14.00" fill="#404040">comments</text>
</g>
<!-- doxygen -->
<g id="node9" class="node">
<title>doxygen</title>
<ellipse fill="white" stroke="#999999" cx="152.25" cy="-19" rx="42.49" ry="18"/>
<text text-anchor="middle" x="152.25" y="-15.3" font-family="Times New Roman,serif" font-size="14.00" fill="#404040">doxygen</text>
</g>
<!-- header&#45;&gt;doxygen -->
<g id="edge4" class="edge">
<title>header&#45;&gt;doxygen</title>
<path fill="none" stroke="#999999" d="M74.14,-19C82.33,-19 91.18,-19 99.86,-19"/>
<polygon fill="#999999" stroke="#999999" points="99.93,-22.5 109.93,-19 99.93,-15.5 99.93,-22.5"/>
</g>
<!-- xml -->
<g id="node6" class="node">
<title>xml</title>
<polygon fill="white" stroke="#999999" points="311.99,-37 257.99,-37 257.99,-1 311.99,-1 311.99,-37"/>
<text text-anchor="middle" x="284.99" y="-15.3" font-family="Times New Roman,serif" font-size="14.00" fill="#404040">XML</text>
</g>
<!-- xml&#45;&gt;sphinx -->
<g id="edge6" class="edge">
<title>xml&#45;&gt;sphinx</title>
<path fill="none" stroke="#999999" d="M312.05,-29.98C321.13,-34.35 331.12,-39.82 339.49,-46 357.12,-59 374.3,-76.01 388.27,-91.32"/>
<polygon fill="#999999" stroke="#999999" points="385.99,-94.02 395.27,-99.14 391.21,-89.35 385.99,-94.02"/>
</g>
<!-- html -->
<g id="node7" class="node">
<title>html</title>
<polygon fill="white" stroke="#999999" points="565.42,-149 503.42,-149 503.42,-111 565.42,-111 565.42,-149"/>
<text text-anchor="middle" x="534.42" y="-133.8" font-family="Times New Roman,serif" font-size="14.00" fill="#404040">HTML</text>
<text text-anchor="middle" x="534.42" y="-118.8" font-family="Times New Roman,serif" font-size="14.00" fill="#404040">web site</text>
</g>
<!-- sphinx&#45;&gt;html -->
<g id="edge8" class="edge">
<title>sphinx&#45;&gt;html</title>
<path fill="none" stroke="#999999" d="M467.59,-130C476.02,-130 484.79,-130 493.07,-130"/>
<polygon fill="#999999" stroke="#999999" points="493.24,-133.5 503.24,-130 493.24,-126.5 493.24,-133.5"/>
</g>
<!-- doxygen&#45;&gt;xml -->
<g id="edge5" class="edge">
<title>doxygen&#45;&gt;xml</title>
<path fill="none" stroke="#999999" d="M194.62,-19C211.55,-19 230.99,-19 247.4,-19"/>
<polygon fill="#999999" stroke="#999999" points="247.69,-22.5 257.69,-19 247.69,-15.5 247.69,-22.5"/>
</g>
</g>
</svg>
