<?xml version="1.0" encoding="UTF-8" standalone="no"?>
<!DOCTYPE svg PUBLIC "-//W3C//DTD SVG 1.1//EN"
 "http://www.w3.org/Graphics/SVG/1.1/DTD/svg11.dtd">
<!-- Generated by graphviz version 2.47.1 (20210417.1919)
 -->
<!-- Pages: 1 -->
<svg width="404pt" height="228pt"
 viewBox="0.00 0.00 403.50 227.60" xmlns="http://www.w3.org/2000/svg" xmlns:xlink="http://www.w3.org/1999/xlink">
<g id="graph0" class="graph" transform="scale(1 1) rotate(0) translate(4 223.6)">
<!-- init -->
<g id="node1" class="node">
<title>init</title>
<ellipse fill="white" stroke="#999999" cx="117" cy="-217.8" rx="1.8" ry="1.8"/>
</g>
<!-- SUSPENDED -->
<g id="node2" class="node">
<title>SUSPENDED</title>
<polygon fill="white" stroke="#999999" points="234,-180 0,-180 0,-144 234,-144 234,-180"/>
<text text-anchor="middle" x="117" y="-158.3" font-family="Times New Roman,serif" font-size="14.00" fill="#404040">PM_DEVICE_STATE_SUSPENDED</text>
</g>
<!-- init&#45;&gt;SUSPENDED -->
<g id="edge1" class="edge">
<title>init&#45;&gt;SUSPENDED</title>
<path fill="none" stroke="#999999" d="M117,-215.87C117,-212.64 117,-201.55 117,-190.35"/>
<polygon fill="#999999" stroke="#999999" points="120.5,-190.26 117,-180.26 113.5,-190.26 120.5,-190.26"/>
</g>
<!-- ACTIVE -->
<g id="node3" class="node">
<title>ACTIVE</title>
<polygon fill="white" stroke="#999999" points="219.5,-36 14.5,-36 14.5,0 219.5,0 219.5,-36"/>
<text text-anchor="middle" x="117" y="-14.3" font-family="Times New Roman,serif" font-size="14.00" fill="#404040">PM_DEVICE_STATE_ACTIVE</text>
</g>
<!-- SUSPENDED&#45;&gt;ACTIVE -->
<g id="edge2" class="edge">
<title>SUSPENDED&#45;&gt;ACTIVE</title>
<path fill="none" stroke="#999999" d="M112.42,-143.87C109.86,-119.67 109.57,-75.21 111.54,-46.39"/>
<polygon fill="#999999" stroke="#999999" points="115.05,-46.45 112.41,-36.19 108.07,-45.86 115.05,-46.45"/>
</g>
<!-- SUSPENDING -->
<g id="node4" class="node">
<title>SUSPENDING</title>
<polygon fill="white" stroke="#999999" points="395.5,-108 154.5,-108 154.5,-72 395.5,-72 395.5,-108"/>
<text text-anchor="middle" x="275" y="-86.3" font-family="Times New Roman,serif" font-size="14.00" fill="#404040">PM_DEVICE_STATE_SUSPENDING</text>
</g>
<!-- SUSPENDED&#45;&gt;SUSPENDING -->
<!-- ACTIVE&#45;&gt;SUSPENDED -->
<g id="edge3" class="edge">
<title>ACTIVE&#45;&gt;SUSPENDED</title>
<path fill="none" stroke="#999999" d="M121.59,-36.19C124.15,-60.42 124.43,-104.89 122.45,-133.68"/>
<polygon fill="#999999" stroke="#999999" points="118.95,-133.61 121.58,-143.87 125.92,-134.21 118.95,-133.61"/>
</g>
<!-- ACTIVE&#45;&gt;SUSPENDING -->
<g id="edge4" class="edge">
<title>ACTIVE&#45;&gt;SUSPENDING</title>
<path fill="none" stroke="#999999" d="M161.42,-36.07C183.9,-45.59 210.98,-57.53 233.1,-67.66"/>
<polygon fill="#999999" stroke="#999999" points="231.7,-70.87 242.25,-71.88 234.63,-64.51 231.7,-70.87"/>
</g>
<!-- SUSPENDING&#45;&gt;SUSPENDED -->
<g id="edge5" class="edge">
<title>SUSPENDING&#45;&gt;SUSPENDED</title>
<path fill="none" stroke="#999999" d="M242.37,-108.07C221.7,-117.67 194.58,-129.74 170.81,-139.93"/>
<polygon fill="#999999" stroke="#999999" points="169.38,-136.74 161.55,-143.88 172.12,-143.18 169.38,-136.74"/>
</g>
<!-- SUSPENDING&#45;&gt;ACTIVE -->
</g>
</svg>
