<?xml version="1.0" encoding="UTF-8" standalone="no"?>
<!DOCTYPE svg PUBLIC "-//W3C//DTD SVG 1.1//EN"
 "http://www.w3.org/Graphics/SVG/1.1/DTD/svg11.dtd">
<!-- Generated by graphviz version 2.47.1 (20210417.1919)
 -->
<!-- Title: smf_hierarchical Pages: 1 -->
<svg width="143pt" height="231pt"
 viewBox="0.00 0.00 142.50 230.60" xmlns="http://www.w3.org/2000/svg" xmlns:xlink="http://www.w3.org/1999/xlink">
<g id="graph0" class="graph" transform="scale(1 1) rotate(0) translate(4 226.6)">
<title>smf_hierarchical</title>
<g id="clust1" class="cluster">
<title>cluster_0</title>
<path fill="transparent" stroke="black" d="M20,-64C20,-64 96,-64 96,-64 102,-64 108,-70 108,-76 108,-76 108,-199 108,-199 108,-205 102,-211 96,-211 96,-211 20,-211 20,-211 14,-211 8,-205 8,-199 8,-199 8,-76 8,-76 8,-70 14,-64 20,-64"/>
<text text-anchor="middle" x="58" y="-195.8" font-family="Times New Roman,serif" font-size="14.00">PARENT</text>
</g>
<!-- init -->
<g id="node1" class="node">
<title>init</title>
<ellipse fill="white" stroke="#999999" cx="58" cy="-220.8" rx="1.8" ry="1.8"/>
</g>
<!-- STATE_S0 -->
<g id="node2" class="node">
<title>STATE_S0</title>
<polygon fill="white" stroke="#999999" points="99.5,-180 16.5,-180 16.5,-144 99.5,-144 99.5,-180"/>
<text text-anchor="middle" x="58" y="-158.3" font-family="Times New Roman,serif" font-size="14.00" fill="#404040">STATE_S0</text>
</g>
<!-- init&#45;&gt;STATE_S0 -->
<g id="edge2" class="edge">
<title>init&#45;&gt;STATE_S0</title>
<path fill="none" stroke="#999999" d="M58,-218.81C58,-215.25 58,-202.57 58,-190.19"/>
<polygon fill="#999999" stroke="#999999" points="61.5,-190.08 58,-180.08 54.5,-190.08 61.5,-190.08"/>
</g>
<!-- STATE_S1 -->
<g id="node3" class="node">
<title>STATE_S1</title>
<polygon fill="white" stroke="#999999" points="99.5,-108 16.5,-108 16.5,-72 99.5,-72 99.5,-108"/>
<text text-anchor="middle" x="58" y="-86.3" font-family="Times New Roman,serif" font-size="14.00" fill="#404040">STATE_S1</text>
</g>
<!-- STATE_S0&#45;&gt;STATE_S1 -->
<g id="edge1" class="edge">
<title>STATE_S0&#45;&gt;STATE_S1</title>
<path fill="none" stroke="#999999" d="M58,-143.7C58,-135.98 58,-126.71 58,-118.11"/>
<polygon fill="#999999" stroke="#999999" points="61.5,-118.1 58,-108.1 54.5,-118.1 61.5,-118.1"/>
</g>
<!-- STATE_S2 -->
<g id="node4" class="node">
<title>STATE_S2</title>
<polygon fill="white" stroke="#999999" points="134.5,-36 51.5,-36 51.5,0 134.5,0 134.5,-36"/>
<text text-anchor="middle" x="93" y="-14.3" font-family="Times New Roman,serif" font-size="14.00" fill="#404040">STATE_S2</text>
</g>
<!-- STATE_S1&#45;&gt;STATE_S2 -->
<g id="edge3" class="edge">
<title>STATE_S1&#45;&gt;STATE_S2</title>
<path fill="none" stroke="#999999" d="M66.65,-71.7C70.64,-63.73 75.45,-54.1 79.87,-45.26"/>
<polygon fill="#999999" stroke="#999999" points="83.11,-46.61 84.45,-36.1 76.85,-43.48 83.11,-46.61"/>
</g>
<!-- STATE_S2&#45;&gt;STATE_S0 -->
<g id="edge4" class="edge">
<title>STATE_S2&#45;&gt;STATE_S0</title>
<path fill="none" stroke="#999999" d="M101.59,-36.31C109.46,-54.67 118.56,-84.27 109,-108 104.65,-118.79 96.94,-128.61 88.81,-136.79"/>
<polygon fill="#999999" stroke="#999999" points="86.21,-134.43 81.3,-143.82 91,-139.54 86.21,-134.43"/>
</g>
</g>
</svg>
