<?xml version="1.0" encoding="UTF-8" standalone="no"?>
<!DOCTYPE svg PUBLIC "-//W3C//DTD SVG 1.1//EN"
 "http://www.w3.org/Graphics/SVG/1.1/DTD/svg11.dtd">
<!-- Generated by graphviz version 2.47.1 (20210417.1919)
 -->
<!-- Pages: 1 -->
<svg width="701pt" height="224pt"
 viewBox="0.00 0.00 701.36 224.00" xmlns="http://www.w3.org/2000/svg" xmlns:xlink="http://www.w3.org/1999/xlink">
<g id="graph0" class="graph" transform="scale(1 1) rotate(0) translate(4 220)">
<!-- action -->
<!-- devA -->
<g id="node2" class="node">
<title>devA</title>
<ellipse fill="white" stroke="#999999" cx="160.36" cy="-111" rx="31.4" ry="18"/>
<text text-anchor="middle" x="160.36" y="-107.3" font-family="Times New Roman,serif" font-size="14.00" fill="#404040">gpio0</text>
</g>
<!-- action&#45;&gt;devA -->
<g id="edge1" class="edge">
<title>action&#45;&gt;devA</title>
<path fill="none" stroke="#999999" d="M160.36,-179.8C160.36,-168.17 160.36,-152.55 160.36,-139.24"/>
<polygon fill="#999999" stroke="#999999" points="163.86,-139.18 160.36,-129.18 156.86,-139.18 163.86,-139.18"/>
<text text-anchor="middle" x="207.86" y="-150.8" font-family="Times New Roman,serif" font-size="14.00">pm_device_get()</text>
</g>
<!-- domain -->
<g id="node4" class="node">
<title>domain</title>
<ellipse fill="white" stroke="#999999" cx="310.36" cy="-24" rx="58.49" ry="18"/>
<text text-anchor="middle" x="310.36" y="-20.3" font-family="Times New Roman,serif" font-size="14.00" fill="#404040">gpio_domain</text>
</g>
<!-- devA&#45;&gt;domain -->
<g id="edge2" class="edge">
<title>devA:se&#45;&gt;domain:n</title>
<path fill="none" stroke="#999999" d="M176.36,-94C212.06,-58.3 246,-102.48 288.36,-75 299.91,-67.51 306.84,-62.34 309.32,-52.03"/>
<polygon fill="#999999" stroke="#999999" points="312.81,-52.31 310.36,-42 305.84,-51.59 312.81,-52.31"/>
<text text-anchor="middle" x="353.86" y="-63.8" font-family="Times New Roman,serif" font-size="14.00">pm_device_get()</text>
</g>
<!-- devB -->
<g id="node3" class="node">
<title>devB</title>
<ellipse fill="white" stroke="#999999" cx="428.36" cy="-111" rx="31.4" ry="18"/>
<text text-anchor="middle" x="428.36" y="-107.3" font-family="Times New Roman,serif" font-size="14.00" fill="#404040">gpio1</text>
</g>
<!-- domain&#45;&gt;devA -->
<g id="edge4" class="edge">
<title>domain:sw&#45;&gt;devA:sw</title>
<path fill="none" stroke="#999999" d="M293.36,-6C270.49,16.86 27.66,-34.83 7.36,-60 -29.87,-106.17 86.07,-55.79 136.33,-87.62"/>
<polygon fill="#999999" stroke="#999999" points="134.35,-90.52 144.36,-94 138.71,-85.04 134.35,-90.52"/>
<text text-anchor="middle" x="145.86" y="-63.8" font-family="Times New Roman,serif" font-size="14.00">action_cb(PM_DEVICE_ACTION_TURN_ON)</text>
</g>
<!-- domain&#45;&gt;devB -->
<g id="edge3" class="edge">
<title>domain&#45;&gt;devB</title>
<path fill="none" stroke="#999999" d="M358.45,-34.33C375.23,-39.56 393.15,-47.63 406.36,-60 413.02,-66.25 417.78,-74.87 421.13,-83.2"/>
<polygon fill="#999999" stroke="#999999" points="417.84,-84.39 424.45,-92.68 424.45,-82.09 417.84,-84.39"/>
<text text-anchor="middle" x="554.86" y="-63.8" font-family="Times New Roman,serif" font-size="14.00">action_cb(PM_DEVICE_ACTION_TURN_ON)</text>
</g>
</g>
</svg>
