<?xml version="1.0" encoding="UTF-8" standalone="no"?><svg xmlns="http://www.w3.org/2000/svg" xmlns:xlink="http://www.w3.org/1999/xlink" contentScriptType="application/ecmascript" contentStyleType="text/css" height="232px" preserveAspectRatio="none" style="width:945px;height:232px;" version="1.1" viewBox="0 0 945 232" width="945px" zoomAndPan="magnify"><defs/><g><line style="stroke: #000000; stroke-width: 1.7;" x1="10" x2="10" y1="10" y2="191.5547"/><line style="stroke: #000000; stroke-width: 1.7;" x1="923" x2="923" y1="10" y2="191.5547"/><line style="stroke: #AAAAAA; stroke-width: 0.5; stroke-dasharray: 3.0,5.0;" x1="118" x2="118" y1="10" y2="191.5547"/><line style="stroke: #AAAAAA; stroke-width: 0.5; stroke-dasharray: 3.0,5.0;" x1="168" x2="168" y1="10" y2="191.5547"/><line style="stroke: #AAAAAA; stroke-width: 0.5; stroke-dasharray: 3.0,5.0;" x1="218" x2="218" y1="10" y2="191.5547"/><line style="stroke: #AAAAAA; stroke-width: 0.5; stroke-dasharray: 3.0,5.0;" x1="268" x2="268" y1="10" y2="191.5547"/><line style="stroke: #AAAAAA; stroke-width: 0.5; stroke-dasharray: 3.0,5.0;" x1="318" x2="318" y1="10" y2="191.5547"/><line style="stroke: #AAAAAA; stroke-width: 0.5; stroke-dasharray: 3.0,5.0;" x1="368" x2="368" y1="10" y2="191.5547"/><line style="stroke: #AAAAAA; stroke-width: 0.5; stroke-dasharray: 3.0,5.0;" x1="418" x2="418" y1="10" y2="191.5547"/><line style="stroke: #AAAAAA; stroke-width: 0.5; stroke-dasharray: 3.0,5.0;" x1="468" x2="468" y1="10" y2="191.5547"/><line style="stroke: #AAAAAA; stroke-width: 0.5; stroke-dasharray: 3.0,5.0;" x1="518" x2="518" y1="10" y2="191.5547"/><line style="stroke: #AAAAAA; stroke-width: 0.5; stroke-dasharray: 3.0,5.0;" x1="568" x2="568" y1="10" y2="191.5547"/><line style="stroke: #AAAAAA; stroke-width: 0.5; stroke-dasharray: 3.0,5.0;" x1="618" x2="618" y1="10" y2="191.5547"/><line style="stroke: #AAAAAA; stroke-width: 0.5; stroke-dasharray: 3.0,5.0;" x1="668" x2="668" y1="10" y2="191.5547"/><line style="stroke: #AAAAAA; stroke-width: 0.5; stroke-dasharray: 3.0,5.0;" x1="718" x2="718" y1="10" y2="191.5547"/><line style="stroke: #AAAAAA; stroke-width: 0.5; stroke-dasharray: 3.0,5.0;" x1="768" x2="768" y1="10" y2="191.5547"/><line style="stroke: #AAAAAA; stroke-width: 0.5; stroke-dasharray: 3.0,5.0;" x1="818" x2="818" y1="10" y2="191.5547"/><line style="stroke: #AAAAAA; stroke-width: 0.5; stroke-dasharray: 3.0,5.0;" x1="868" x2="868" y1="10" y2="191.5547"/><line style="stroke: #AAAAAA; stroke-width: 0.5; stroke-dasharray: 3.0,5.0;" x1="918" x2="918" y1="10" y2="191.5547"/><text fill="#33335B" font-family="sans-serif" font-size="12" lengthAdjust="spacingAndGlyphs" textLength="105" x="15" y="23.752">Speech application</text><line style="stroke: #000000; stroke-width: 1.0;" x1="10" x2="121" y1="27.3887" y2="27.3887"/><line style="stroke: #000000; stroke-width: 1.0;" x1="121" x2="131" y1="27.3887" y2="10"/><line style="stroke: #038048; stroke-width: 1.5;" x1="78" x2="118" y1="62.7773" y2="62.7773"/><line style="stroke: #038048; stroke-width: 1.5;" x1="118" x2="568" y1="62.7773" y2="62.7773"/><line style="stroke: #038048; stroke-width: 1.5;" x1="568" x2="918" y1="42.7773" y2="42.7773"/><line style="stroke: #038048; stroke-width: 1.5;" x1="118" x2="118" y1="62.7773" y2="62.7773"/><line style="stroke: #038048; stroke-width: 1.5;" x1="568" x2="568" y1="42.7773" y2="62.7773"/><text fill="#33335B" font-family="sans-serif" font-size="12" lengthAdjust="spacingAndGlyphs" textLength="20" x="15" y="60.1406">idle</text><text fill="#33335B" font-family="sans-serif" font-size="12" lengthAdjust="spacingAndGlyphs" textLength="63" x="15" y="40.1406">Processing</text><line style="stroke: #000000; stroke-width: 1.7;" x1="10" x2="923" y1="10" y2="10"/><text fill="#33335B" font-family="sans-serif" font-size="12" lengthAdjust="spacingAndGlyphs" textLength="74" x="15" y="106.5293">Audio Stream</text><line style="stroke: #000000; stroke-width: 1.0;" x1="10" x2="90" y1="110.166" y2="110.166"/><line style="stroke: #000000; stroke-width: 1.0;" x1="90" x2="100" y1="110.166" y2="92.7773"/><polygon fill="#D7E0F2" points="31,149.5547,106,149.5547,118,161.5547,106,173.5547,31,173.5547" style="stroke: #D7E0F2; stroke-width: 1.5;"/><path d="M31,149.5547 L106,149.5547 L118,161.5547 L106,173.5547 L31,173.5547 " fill="#D7E0F2" style="stroke: #038048; stroke-width: 1.5;"/><polygon fill="#D7E0F2" points="130,149.5547,356,149.5547,368,161.5547,356,173.5547,130,173.5547,118,161.5547" style="stroke: #038048; stroke-width: 1.5;"/><polygon fill="#D7E0F2" points="380,149.5547,856,149.5547,868,161.5547,856,173.5547,380,173.5547,368,161.5547" style="stroke: #038048; stroke-width: 1.5;"/><polygon fill="#D7E0F2" points="880,149.5547,918,149.5547,918,173.5547,880,173.5547,868,161.5547" style="stroke: #D7E0F2; stroke-width: 1.5;"/><path d="M918,149.5547 L880,149.5547 L868,161.5547 L880,173.5547 L918,173.5547 " fill="#D7E0F2" style="stroke: #038048; stroke-width: 1.5;"/><text fill="#33335B" font-family="sans-serif" font-size="12" lengthAdjust="spacingAndGlyphs" textLength="63" x="43" y="167.1123">Preceeding</text><text fill="#33335B" font-family="sans-serif" font-size="12" lengthAdjust="spacingAndGlyphs" textLength="59" x="213.5" y="167.1123">Keyphrase</text><text fill="#33335B" font-family="sans-serif" font-size="12" lengthAdjust="spacingAndGlyphs" textLength="59" x="588.5" y="167.1123">Command</text><text fill="#33335B" font-family="sans-serif" font-size="12" lengthAdjust="spacingAndGlyphs" textLength="53" x="880" y="167.1123">Following</text><line style="stroke: #FF0000; stroke-width: 1.0;" x1="118" x2="368" y1="140.5547" y2="140.5547"/><polygon fill="#FF0000" points="125.5175,137.8185,125.5175,143.2908,118,140.5547" style="stroke: #FF0000; stroke-width: 1.0;"/><polygon fill="#FF0000" points="360.4825,143.2908,360.4825,137.8185,368,140.5547" style="stroke: #FF0000; stroke-width: 1.0;"/><text fill="#000000" font-family="Serif" font-size="14" lengthAdjust="spacingAndGlyphs" textLength="123" x="181.5" y="132.4785">keyphrase length - L1</text><line style="stroke: #FF0000; stroke-width: 1.0;" x1="368" x2="568" y1="140.5547" y2="140.5547"/><polygon fill="#FF0000" points="375.5175,137.8185,375.5175,143.2908,368,140.5547" style="stroke: #FF0000; stroke-width: 1.0;"/><polygon fill="#FF0000" points="560.4825,143.2908,560.4825,137.8185,568,140.5547" style="stroke: #FF0000; stroke-width: 1.0;"/><text fill="#000000" font-family="Serif" font-size="14" lengthAdjust="spacingAndGlyphs" textLength="51" x="442" y="113.3584">detection</text><text fill="#000000" font-family="Serif" font-size="14" lengthAdjust="spacingAndGlyphs" textLength="52" x="442" y="132.4785">time - L2</text><line style="stroke: #FF0000; stroke-width: 1.0;" x1="568" x2="768" y1="140.5547" y2="140.5547"/><polygon fill="#FF0000" points="575.5175,137.8185,575.5175,143.2908,568,140.5547" style="stroke: #FF0000; stroke-width: 1.0;"/><polygon fill="#FF0000" points="760.4825,143.2908,760.4825,137.8185,768,140.5547" style="stroke: #FF0000; stroke-width: 1.0;"/><text fill="#000000" font-family="Serif" font-size="14" lengthAdjust="spacingAndGlyphs" textLength="29" x="604.5" y="113.3584">burst</text><text fill="#000000" font-family="Serif" font-size="14" lengthAdjust="spacingAndGlyphs" textLength="127" x="604.5" y="132.4785">transmission time - L3</text><line style="stroke: #FF0000; stroke-width: 1.0;" x1="768" x2="918" y1="140.5547" y2="140.5547"/><polygon fill="#FF0000" points="775.5175,137.8185,775.5175,143.2908,768,140.5547" style="stroke: #FF0000; stroke-width: 1.0;"/><polygon fill="#FF0000" points="910.4825,143.2908,910.4825,137.8185,918,140.5547" style="stroke: #FF0000; stroke-width: 1.0;"/><text fill="#000000" font-family="Serif" font-size="14" lengthAdjust="spacingAndGlyphs" textLength="34" x="809.5" y="113.3584">safety</text><text fill="#000000" font-family="Serif" font-size="14" lengthAdjust="spacingAndGlyphs" textLength="67" x="809.5" y="132.4785">margin - L4</text><line style="stroke: #000000; stroke-width: 1.7;" x1="10" x2="923" y1="92.7773" y2="92.7773"/><line style="stroke: #000000; stroke-width: 2.0;" x1="118" x2="118" y1="191.5547" y2="196.5547"/><line style="stroke: #000000; stroke-width: 2.0;" x1="168" x2="168" y1="191.5547" y2="196.5547"/><line style="stroke: #000000; stroke-width: 2.0;" x1="218" x2="218" y1="191.5547" y2="196.5547"/><line style="stroke: #000000; stroke-width: 2.0;" x1="268" x2="268" y1="191.5547" y2="196.5547"/><line style="stroke: #000000; stroke-width: 2.0;" x1="318" x2="318" y1="191.5547" y2="196.5547"/><line style="stroke: #000000; stroke-width: 2.0;" x1="368" x2="368" y1="191.5547" y2="196.5547"/><line style="stroke: #000000; stroke-width: 2.0;" x1="418" x2="418" y1="191.5547" y2="196.5547"/><line style="stroke: #000000; stroke-width: 2.0;" x1="468" x2="468" y1="191.5547" y2="196.5547"/><line style="stroke: #000000; stroke-width: 2.0;" x1="518" x2="518" y1="191.5547" y2="196.5547"/><line style="stroke: #000000; stroke-width: 2.0;" x1="568" x2="568" y1="191.5547" y2="196.5547"/><line style="stroke: #000000; stroke-width: 2.0;" x1="618" x2="618" y1="191.5547" y2="196.5547"/><line style="stroke: #000000; stroke-width: 2.0;" x1="668" x2="668" y1="191.5547" y2="196.5547"/><line style="stroke: #000000; stroke-width: 2.0;" x1="718" x2="718" y1="191.5547" y2="196.5547"/><line style="stroke: #000000; stroke-width: 2.0;" x1="768" x2="768" y1="191.5547" y2="196.5547"/><line style="stroke: #000000; stroke-width: 2.0;" x1="818" x2="818" y1="191.5547" y2="196.5547"/><line style="stroke: #000000; stroke-width: 2.0;" x1="868" x2="868" y1="191.5547" y2="196.5547"/><line style="stroke: #000000; stroke-width: 2.0;" x1="918" x2="918" y1="191.5547" y2="196.5547"/><line style="stroke: #000000; stroke-width: 2.0;" x1="118" x2="918" y1="191.5547" y2="191.5547"/><text fill="#33335B" font-family="sans-serif" font-size="12" lengthAdjust="spacingAndGlyphs" textLength="7" x="114.5" y="211.3066">0</text><text fill="#33335B" font-family="sans-serif" font-size="12" lengthAdjust="spacingAndGlyphs" textLength="21" x="357.5" y="211.3066">100</text><text fill="#33335B" font-family="sans-serif" font-size="12" lengthAdjust="spacingAndGlyphs" textLength="21" x="557.5" y="211.3066">180</text><text fill="#33335B" font-family="sans-serif" font-size="12" lengthAdjust="spacingAndGlyphs" textLength="21" x="857.5" y="211.3066">300</text><line style="stroke: #0000FF; stroke-width: 1.0;" x1="568" x2="568" y1="149.5547" y2="62.7773"/><polygon fill="#0000FF" points="570.7362,70.2949,565.2638,70.2949,568,62.7773" style="stroke: #0000FF; stroke-width: 1.0;"/><text fill="#0000FF" font-family="Serif" font-size="14" lengthAdjust="spacingAndGlyphs" textLength="63" x="568" y="86.3388">notification</text><text fill="#33335B" font-family="sans-serif" font-size="10" lengthAdjust="spacingAndGlyphs" textLength="97" x="418" y="219.4033">timeline not to scale</text><!--MD5=[fd4f788b66e10cc700e2d5eeaeb523fc]
@startuml
hidefootbox
skinparam componentStyle uml2

skinparam defaultFontColor	#33335b

skinparam rectangle {
	color		#d6d6de
	backgroundColor	#ffffff
}

skinparam component {
	backgroundColor	#ffffff
	borderColor	#33335b
	arrowColor	#f05772
}

skinparam interface {
	backgroundColor	#ffffff
	borderColor	#f05772
}

skinparam class {
	backgroundColor	#ffffff
	borderColor	#33335b
	arrowColor	#f05772
}
skinparam stereotypeCBackgroundColor	#6fccdd

skinparam sequence {
	arrowColor		#4a4a86
	lifeLineBorderColor	#f05772
	groupBorderColor	#a1a1ca
	boxBorderColor		#a1a1ca
	dividerBorderColor	#d6d6de
	dividerBorderThickness	1
}
skinparam participant {
	borderColor		#33335b
	backgroundColor		#ffffff
}
skinparam actor {
	borderColor		#33335b
	backgroundColor		#ffffff
}

skinparam state {
	borderColor		#33335b
	backgroundColor		#ffffff
}

skinparam node {
	backgroundColor		#ffffff
}

skinparam note {
	backgroundColor 	#f6ed80
	borderColor		#d6d6de
}

scale max 1024 width

footer: timeline not to scale 
robust "Speech application" as App
concise "Audio Stream" as Audio

App is idle
Audio is "Preceeding"

@App
0 is idle
+180 is Processing

@Audio
0 is Keyphrase
@0 <-> @100 : keyphrase length - L1
@100 <-> @+80 : detection\ntime - L2
@180 <-> @+80 : burst \ntransmission time - L3
Audio@180 -> App@180 : notification
@260 <-> @+60 : safety \nmargin - L4
100 is Command
+200 is Following
@enduml

PlantUML version 1.2019.12(Sun Nov 03 18:24:54 CST 2019)
(GPL source distribution)
Java Runtime: Java(TM) SE Runtime Environment
JVM: Java HotSpot(TM) 64-Bit Server VM
Java Version: 1.8.0_321-b07
Operating System: Windows 10
Default Encoding: GBK
Language: zh
Country: CN
--></g></svg>