<?xml version="1.0" encoding="UTF-8" standalone="no"?><svg xmlns="http://www.w3.org/2000/svg" xmlns:xlink="http://www.w3.org/1999/xlink" contentScriptType="application/ecmascript" contentStyleType="text/css" height="575.5656px" preserveAspectRatio="none" style="width:812px;height:575px;" version="1.1" viewBox="0 0 812 575" width="812.6697px" zoomAndPan="magnify"><defs><filter height="300%" id="f1o2b7izs4lgbo" width="300%" x="-1" y="-1"><feGaussianBlur result="blurOut" stdDeviation="1.8099547511312217"/><feColorMatrix in="blurOut" result="blurOut2" type="matrix" values="0 0 0 0 0 0 0 0 0 0 0 0 0 0 0 0 0 0 .4 0"/><feOffset dx="3.6199095022624435" dy="3.6199095022624435" in="blurOut2" result="blurOut3"/><feBlend in="SourceGraphic" in2="blurOut3" mode="normal"/></filter></defs><g><rect fill="#FFFFFF" filter="url(#f1o2b7izs4lgbo)" height="256.1404" style="stroke: #FFFFFF; stroke-width: 0.9049773755656109;" width="9.0498" x="163.8009" y="85.063"/><line style="stroke: #F05772; stroke-width: 0.9049773755656109;" x1="163.8009" x2="163.8009" y1="85.063" y2="341.2034"/><line style="stroke: #F05772; stroke-width: 0.9049773755656109;" x1="172.8507" x2="172.8507" y1="85.063" y2="341.2034"/><line style="stroke: #F05772; stroke-width: 0.9049773755656109;" x1="163.8009" x2="172.8507" y1="85.063" y2="85.063"/><rect fill="#FFFFFF" filter="url(#f1o2b7izs4lgbo)" height="190.7439" style="stroke: #FFFFFF; stroke-width: 0.9049773755656109;" width="9.0498" x="163.8009" y="366.5428"/><line style="stroke: #F05772; stroke-width: 0.9049773755656109;" x1="163.8009" x2="163.8009" y1="366.5428" y2="557.2867"/><line style="stroke: #F05772; stroke-width: 0.9049773755656109;" x1="172.8507" x2="172.8507" y1="366.5428" y2="557.2867"/><line style="stroke: #F05772; stroke-width: 0.9049773755656109;" x1="163.8009" x2="172.8507" y1="557.2867" y2="557.2867"/><rect fill="#FFFFFF" filter="url(#f1o2b7izs4lgbo)" height="227.4034" style="stroke: #FFFFFF; stroke-width: 0.9049773755656109;" width="9.0498" x="307.6923" y="113.8"/><line style="stroke: #F05772; stroke-width: 0.9049773755656109;" x1="307.6923" x2="307.6923" y1="113.8" y2="341.2034"/><line style="stroke: #F05772; stroke-width: 0.9049773755656109;" x1="316.7421" x2="316.7421" y1="113.8" y2="341.2034"/><line style="stroke: #F05772; stroke-width: 0.9049773755656109;" x1="307.6923" x2="316.7421" y1="113.8" y2="113.8"/><rect fill="#FFFFFF" filter="url(#f1o2b7izs4lgbo)" height="190.7439" style="stroke: #FFFFFF; stroke-width: 0.9049773755656109;" width="9.0498" x="307.6923" y="366.5428"/><line style="stroke: #F05772; stroke-width: 0.9049773755656109;" x1="307.6923" x2="307.6923" y1="366.5428" y2="557.2867"/><line style="stroke: #F05772; stroke-width: 0.9049773755656109;" x1="316.7421" x2="316.7421" y1="366.5428" y2="557.2867"/><line style="stroke: #F05772; stroke-width: 0.9049773755656109;" x1="307.6923" x2="316.7421" y1="557.2867" y2="557.2867"/><rect fill="#FFFFFF" filter="url(#f1o2b7izs4lgbo)" height="87.116" style="stroke: #F05772; stroke-width: 0.9049773755656109;" width="9.0498" x="312.2172" y="165.8442"/><rect fill="#FFFFFF" filter="url(#f1o2b7izs4lgbo)" height="71.9537" style="stroke: #F05772; stroke-width: 0.9049773755656109;" width="9.0498" x="312.2172" y="445.514"/><rect fill="#FFFFFF" filter="url(#f1o2b7izs4lgbo)" height="74.6686" style="stroke: #F05772; stroke-width: 0.9049773755656109;" width="9.0498" x="486.8778" y="252.9602"/><line style="stroke: #F05772; stroke-width: 0.9049773755656109;" x1="167.8733" x2="167.8733" y1="54.516" y2="341.2034"/><line style="stroke: #F05772; stroke-width: 0.9049773755656109; stroke-dasharray: 1.0,4.0;" x1="167.8733" x2="167.8733" y1="341.2034" y2="366.5428"/><line style="stroke: #F05772; stroke-width: 0.9049773755656109;" x1="167.8733" x2="167.8733" y1="366.5428" y2="565.4315"/><line style="stroke: #F05772; stroke-width: 0.9049773755656109;" x1="311.7647" x2="311.7647" y1="54.516" y2="341.2034"/><line style="stroke: #F05772; stroke-width: 0.9049773755656109; stroke-dasharray: 1.0,4.0;" x1="311.7647" x2="311.7647" y1="341.2034" y2="366.5428"/><line style="stroke: #F05772; stroke-width: 0.9049773755656109;" x1="311.7647" x2="311.7647" y1="366.5428" y2="565.4315"/><line style="stroke: #F05772; stroke-width: 0.9049773755656109;" x1="490.9502" x2="490.9502" y1="54.516" y2="341.2034"/><line style="stroke: #F05772; stroke-width: 0.9049773755656109; stroke-dasharray: 1.0,4.0;" x1="490.9502" x2="490.9502" y1="341.2034" y2="366.5428"/><line style="stroke: #F05772; stroke-width: 0.9049773755656109;" x1="490.9502" x2="490.9502" y1="366.5428" y2="565.4315"/><line style="stroke: #F05772; stroke-width: 0.9049773755656109;" x1="624.8869" x2="624.8869" y1="54.516" y2="341.2034"/><line style="stroke: #F05772; stroke-width: 0.9049773755656109; stroke-dasharray: 1.0,4.0;" x1="624.8869" x2="624.8869" y1="341.2034" y2="366.5428"/><line style="stroke: #F05772; stroke-width: 0.9049773755656109;" x1="624.8869" x2="624.8869" y1="366.5428" y2="565.4315"/><line style="stroke: #F05772; stroke-width: 0.9049773755656109;" x1="703.6199" x2="703.6199" y1="54.516" y2="341.2034"/><line style="stroke: #F05772; stroke-width: 0.9049773755656109; stroke-dasharray: 1.0,4.0;" x1="703.6199" x2="703.6199" y1="341.2034" y2="366.5428"/><line style="stroke: #F05772; stroke-width: 0.9049773755656109;" x1="703.6199" x2="703.6199" y1="366.5428" y2="565.4315"/><line style="stroke: #F05772; stroke-width: 0.9049773755656109;" x1="763.3484" x2="763.3484" y1="54.516" y2="341.2034"/><line style="stroke: #F05772; stroke-width: 0.9049773755656109; stroke-dasharray: 1.0,4.0;" x1="763.3484" x2="763.3484" y1="341.2034" y2="366.5428"/><line style="stroke: #F05772; stroke-width: 0.9049773755656109;" x1="763.3484" x2="763.3484" y1="366.5428" y2="565.4315"/><rect fill="#FFFFFF" filter="url(#f1o2b7izs4lgbo)" height="29.973" style="stroke: #33335B; stroke-width: 1.3574660633484164;" width="58.8235" x="137.1041" y="20.0182"/><text fill="#33335B" font-family="sans-serif" font-size="12.6697" lengthAdjust="spacingAndGlyphs" textLength="46.1538" x="143.4389" y="40.8725">platform</text><rect fill="#FFFFFF" filter="url(#f1o2b7izs4lgbo)" height="29.973" style="stroke: #33335B; stroke-width: 1.3574660633484164;" width="87.7828" x="266.5158" y="20.0182"/><text fill="#33335B" font-family="sans-serif" font-size="12.6697" lengthAdjust="spacingAndGlyphs" textLength="75.1131" x="272.8507" y="40.8725">cavs/lps_wait</text><rect fill="#FFFFFF" filter="url(#f1o2b7izs4lgbo)" height="47.2762" style="stroke: #33335B; stroke-width: 1.3574660633484164;" width="67.8733" x="455.6561" y="2.7149"/><text fill="#33335B" font-family="sans-serif" font-size="12.6697" lengthAdjust="spacingAndGlyphs" textLength="46.1538" x="466.5158" y="23.5692">cavs/lps</text><text fill="#33335B" font-family="sans-serif" font-size="12.6697" lengthAdjust="spacingAndGlyphs" textLength="55.2036" x="461.991" y="40.8725">pg thread</text><rect fill="#FFFFFF" filter="url(#f1o2b7izs4lgbo)" height="29.973" style="stroke: #33335B; stroke-width: 1.3574660633484164;" width="76.9231" x="585.0679" y="20.0182"/><text fill="#33335B" font-family="sans-serif" font-size="12.6697" lengthAdjust="spacingAndGlyphs" textLength="64.2534" x="591.4027" y="40.8725">pm-runtime</text><rect fill="#FFFFFF" filter="url(#f1o2b7izs4lgbo)" height="47.2762" style="stroke: #33335B; stroke-width: 1.3574660633484164;" width="55.2036" x="674.6606" y="2.7149"/><text fill="#33335B" font-family="sans-serif" font-size="12.6697" lengthAdjust="spacingAndGlyphs" textLength="42.5339" x="680.9955" y="23.5692">Lpsram</text><text fill="#33335B" font-family="sans-serif" font-size="12.6697" lengthAdjust="spacingAndGlyphs" textLength="26.2443" x="689.1403" y="40.8725">Boot</text><rect fill="#FFFFFF" filter="url(#f1o2b7izs4lgbo)" height="47.2762" style="stroke: #33335B; stroke-width: 1.3574660633484164;" width="38.914" x="742.5339" y="2.7149"/><text fill="#33335B" font-family="sans-serif" font-size="12.6697" lengthAdjust="spacingAndGlyphs" textLength="22.6244" x="750.6787" y="23.5692">Dsp</text><text fill="#33335B" font-family="sans-serif" font-size="12.6697" lengthAdjust="spacingAndGlyphs" textLength="26.2443" x="748.8688" y="40.8725">Rom</text><rect fill="#FFFFFF" filter="url(#f1o2b7izs4lgbo)" height="256.1404" style="stroke: #FFFFFF; stroke-width: 0.9049773755656109;" width="9.0498" x="163.8009" y="85.063"/><line style="stroke: #F05772; stroke-width: 0.9049773755656109;" x1="163.8009" x2="163.8009" y1="85.063" y2="341.2034"/><line style="stroke: #F05772; stroke-width: 0.9049773755656109;" x1="172.8507" x2="172.8507" y1="85.063" y2="341.2034"/><line style="stroke: #F05772; stroke-width: 0.9049773755656109;" x1="163.8009" x2="172.8507" y1="85.063" y2="85.063"/><rect fill="#FFFFFF" filter="url(#f1o2b7izs4lgbo)" height="190.7439" style="stroke: #FFFFFF; stroke-width: 0.9049773755656109;" width="9.0498" x="163.8009" y="366.5428"/><line style="stroke: #F05772; stroke-width: 0.9049773755656109;" x1="163.8009" x2="163.8009" y1="366.5428" y2="557.2867"/><line style="stroke: #F05772; stroke-width: 0.9049773755656109;" x1="172.8507" x2="172.8507" y1="366.5428" y2="557.2867"/><line style="stroke: #F05772; stroke-width: 0.9049773755656109;" x1="163.8009" x2="172.8507" y1="557.2867" y2="557.2867"/><rect fill="#FFFFFF" filter="url(#f1o2b7izs4lgbo)" height="227.4034" style="stroke: #FFFFFF; stroke-width: 0.9049773755656109;" width="9.0498" x="307.6923" y="113.8"/><line style="stroke: #F05772; stroke-width: 0.9049773755656109;" x1="307.6923" x2="307.6923" y1="113.8" y2="341.2034"/><line style="stroke: #F05772; stroke-width: 0.9049773755656109;" x1="316.7421" x2="316.7421" y1="113.8" y2="341.2034"/><line style="stroke: #F05772; stroke-width: 0.9049773755656109;" x1="307.6923" x2="316.7421" y1="113.8" y2="113.8"/><rect fill="#FFFFFF" filter="url(#f1o2b7izs4lgbo)" height="190.7439" style="stroke: #FFFFFF; stroke-width: 0.9049773755656109;" width="9.0498" x="307.6923" y="366.5428"/><line style="stroke: #F05772; stroke-width: 0.9049773755656109;" x1="307.6923" x2="307.6923" y1="366.5428" y2="557.2867"/><line style="stroke: #F05772; stroke-width: 0.9049773755656109;" x1="316.7421" x2="316.7421" y1="366.5428" y2="557.2867"/><line style="stroke: #F05772; stroke-width: 0.9049773755656109;" x1="307.6923" x2="316.7421" y1="557.2867" y2="557.2867"/><rect fill="#FFFFFF" filter="url(#f1o2b7izs4lgbo)" height="87.116" style="stroke: #F05772; stroke-width: 0.9049773755656109;" width="9.0498" x="312.2172" y="165.8442"/><rect fill="#FFFFFF" filter="url(#f1o2b7izs4lgbo)" height="71.9537" style="stroke: #F05772; stroke-width: 0.9049773755656109;" width="9.0498" x="312.2172" y="445.514"/><rect fill="#FFFFFF" filter="url(#f1o2b7izs4lgbo)" height="74.6686" style="stroke: #F05772; stroke-width: 0.9049773755656109;" width="9.0498" x="486.8778" y="252.9602"/><polygon fill="#4A4A86" points="152.9412,81.4431,161.991,85.063,152.9412,88.6829,156.5611,85.063" style="stroke: #4A4A86; stroke-width: 0.9049773755656109;"/><line style="stroke: #4A4A86; stroke-width: 0.9049773755656109;" x1="2.7149" x2="158.371" y1="85.063" y2="85.063"/><text fill="#33335B" font-family="sans-serif" font-size="11.7647" lengthAdjust="spacingAndGlyphs" textLength="143.8914" x="9.0498" y="80.668">platform_wait_for_interrupt()</text><polygon fill="#4A4A86" points="296.8326,110.1801,305.8824,113.8,296.8326,117.4199,300.4525,113.8" style="stroke: #4A4A86; stroke-width: 0.9049773755656109;"/><line style="stroke: #4A4A86; stroke-width: 0.9049773755656109;" x1="172.8507" x2="302.2624" y1="113.8" y2="113.8"/><text fill="#33335B" font-family="sans-serif" font-size="11.7647" lengthAdjust="spacingAndGlyphs" textLength="117.6471" x="179.1855" y="109.405">lps_wait_for_interrupt()</text><line style="stroke: #4A4A86; stroke-width: 0.9049773755656109;" x1="316.7421" x2="359.276" y1="154.0795" y2="154.0795"/><line style="stroke: #4A4A86; stroke-width: 0.9049773755656109;" x1="359.276" x2="359.276" y1="154.0795" y2="165.8442"/><line style="stroke: #4A4A86; stroke-width: 0.9049773755656109;" x1="322.1719" x2="359.276" y1="165.8442" y2="165.8442"/><polygon fill="#4A4A86" points="331.2217,162.2243,322.1719,165.8442,331.2217,169.4641,327.6018,165.8442" style="stroke: #4A4A86; stroke-width: 0.9049773755656109;"/><text fill="#33335B" font-family="sans-serif" font-size="11.7647" lengthAdjust="spacingAndGlyphs" textLength="60.6335" x="327.6018" y="133.6172">platform_pg</text><text fill="#33335B" font-family="sans-serif" font-size="11.7647" lengthAdjust="spacingAndGlyphs" textLength="157.4661" x="327.6018" y="149.6845">int_handler(D0i3/D0) [SW INT]</text><polygon fill="#4A4A86" points="614.4796,208.0447,623.5294,211.6646,614.4796,215.2845,618.0995,211.6646" style="stroke: #4A4A86; stroke-width: 0.9049773755656109;"/><line style="stroke: #4A4A86; stroke-width: 0.9049773755656109;" x1="321.267" x2="619.9095" y1="211.6646" y2="211.6646"/><text fill="#33335B" font-family="sans-serif" font-size="11.7647" font-weight="bold" lengthAdjust="spacingAndGlyphs" textLength="138.4615" x="327.6018" y="207.2696">pm_runtime_put(DSP, 0)</text><path d="M629.8643,182.1338 L629.8643,222.8577 L720.362,222.8577 L720.362,191.1835 L711.3122,182.1338 L629.8643,182.1338 " fill="#F6ED80" filter="url(#f1o2b7izs4lgbo)" style="stroke: #D6D6DE; stroke-width: 0.9049773755656109;"/><path d="M711.3122,182.1338 L711.3122,191.1835 L720.362,191.1835 L711.3122,182.1338 " fill="#F6ED80" style="stroke: #D6D6DE; stroke-width: 0.9049773755656109;"/><text fill="#33335B" font-family="sans-serif" font-size="11.7647" lengthAdjust="spacingAndGlyphs" textLength="71.4932" x="635.2941" y="200.141">DSP core PG</text><text fill="#33335B" font-family="sans-serif" font-size="11.7647" lengthAdjust="spacingAndGlyphs" textLength="40.724" x="635.2941" y="216.2083">enabled</text><polygon fill="#4A4A86" points="476.0181,249.3403,485.0679,252.9602,476.0181,256.5801,479.638,252.9602" style="stroke: #4A4A86; stroke-width: 0.9049773755656109;"/><line style="stroke: #4A4A86; stroke-width: 0.9049773755656109;" x1="316.7421" x2="481.448" y1="252.9602" y2="252.9602"/><text fill="#33335B" font-family="sans-serif" font-size="11.7647" lengthAdjust="spacingAndGlyphs" textLength="89.5928" x="323.0769" y="248.5652">platform_pg_task</text><line style="stroke: #4A4A86; stroke-width: 0.9049773755656109;" x1="495.9276" x2="533.9367" y1="281.6972" y2="281.6972"/><line style="stroke: #4A4A86; stroke-width: 0.9049773755656109;" x1="533.9367" x2="533.9367" y1="281.6972" y2="293.4619"/><line style="stroke: #4A4A86; stroke-width: 0.9049773755656109;" x1="496.8326" x2="533.9367" y1="293.4619" y2="293.4619"/><polygon fill="#4A4A86" points="505.8824,289.842,496.8326,293.4619,505.8824,297.0818,502.2624,293.4619" style="stroke: #4A4A86; stroke-width: 0.9049773755656109;"/><text fill="#33335B" font-family="sans-serif" font-size="11.7647" lengthAdjust="spacingAndGlyphs" textLength="112.2172" x="502.2624" y="277.3022">configure lpsram boot</text><line style="stroke: #4A4A86; stroke-width: 0.9049773755656109;" x1="495.9276" x2="533.9367" y1="326.7238" y2="326.7238"/><line style="stroke: #4A4A86; stroke-width: 0.9049773755656109;" x1="533.9367" x2="533.9367" y1="326.7238" y2="338.4885"/><line style="stroke: #4A4A86; stroke-width: 0.9049773755656109;" x1="491.4027" x2="533.9367" y1="338.4885" y2="338.4885"/><polygon fill="#4A4A86" points="500.4525,334.8686,491.4027,338.4885,500.4525,342.1084,496.8326,338.4885" style="stroke: #4A4A86; stroke-width: 0.9049773755656109;"/><text fill="#33335B" font-family="sans-serif" font-size="11.7647" lengthAdjust="spacingAndGlyphs" textLength="23.5294" x="502.2624" y="322.3288">waiti</text><path d="M541.1765,306.5841 L541.1765,331.0185 L660.6335,331.0185 L660.6335,315.6338 L651.5837,306.5841 L541.1765,306.5841 " fill="#F6ED80" filter="url(#f1o2b7izs4lgbo)" style="stroke: #D6D6DE; stroke-width: 0.9049773755656109;"/><path d="M651.5837,306.5841 L651.5837,315.6338 L660.6335,315.6338 L651.5837,306.5841 " fill="#F6ED80" style="stroke: #D6D6DE; stroke-width: 0.9049773755656109;"/><text fill="#33335B" font-family="sans-serif" font-size="11.7647" lengthAdjust="spacingAndGlyphs" textLength="100.4525" x="546.6063" y="324.5913">DSP core is PG-ed</text><polygon fill="#4A4A86" points="773.7557,384.4201,764.7059,388.04,773.7557,391.6599,770.1357,388.04" style="stroke: #4A4A86; stroke-width: 0.9049773755656109;"/><line style="stroke: #4A4A86; stroke-width: 0.9049773755656109;" x1="768.3258" x2="801.81" y1="388.04" y2="388.04"/><text fill="#33335B" font-family="sans-serif" font-size="11.7647" lengthAdjust="spacingAndGlyphs" textLength="17.1946" x="779.1855" y="383.645">INT</text><polygon fill="#4A4A86" points="714.0271,397.0898,704.9774,400.7097,714.0271,404.3296,710.4072,400.7097" style="stroke: #4A4A86; stroke-width: 0.9049773755656109;"/><line style="stroke: #4A4A86; stroke-width: 0.9049773755656109;" x1="708.5973" x2="762.8959" y1="400.7097" y2="400.7097"/><polygon fill="#4A4A86" points="331.2217,441.8941,322.1719,445.514,331.2217,449.1339,327.6018,445.514" style="stroke: #4A4A86; stroke-width: 0.9049773755656109;"/><line style="stroke: #4A4A86; stroke-width: 0.9049773755656109;" x1="325.7919" x2="703.1674" y1="445.514" y2="445.514"/><text fill="#33335B" font-family="sans-serif" font-size="11.7647" lengthAdjust="spacingAndGlyphs" textLength="60.6335" x="336.6516" y="425.0517">platform_pg</text><text fill="#33335B" font-family="sans-serif" font-size="11.7647" lengthAdjust="spacingAndGlyphs" textLength="157.4661" x="336.6516" y="441.119">int_handler(D0i3/D0) [SW INT]</text><polygon fill="#4A4A86" points="614.4796,483.1896,623.5294,486.8096,614.4796,490.4295,618.0995,486.8096" style="stroke: #4A4A86; stroke-width: 0.9049773755656109;"/><line style="stroke: #4A4A86; stroke-width: 0.9049773755656109;" x1="321.267" x2="619.9095" y1="486.8096" y2="486.8096"/><text fill="#33335B" font-family="sans-serif" font-size="11.7647" font-weight="bold" lengthAdjust="spacingAndGlyphs" textLength="138.4615" x="327.6018" y="482.4146">pm_runtime_get(DSP, 0)</text><path d="M629.8643,457.2787 L629.8643,498.0027 L720.362,498.0027 L720.362,466.3285 L711.3122,457.2787 L629.8643,457.2787 " fill="#F6ED80" filter="url(#f1o2b7izs4lgbo)" style="stroke: #D6D6DE; stroke-width: 0.9049773755656109;"/><path d="M711.3122,457.2787 L711.3122,466.3285 L720.362,466.3285 L711.3122,457.2787 " fill="#F6ED80" style="stroke: #D6D6DE; stroke-width: 0.9049773755656109;"/><text fill="#33335B" font-family="sans-serif" font-size="11.7647" lengthAdjust="spacingAndGlyphs" textLength="71.4932" x="635.2941" y="475.2859">DSP core PG</text><text fill="#33335B" font-family="sans-serif" font-size="11.7647" lengthAdjust="spacingAndGlyphs" textLength="43.4389" x="635.2941" y="491.3532">disabled</text><line style="stroke: #4A4A86; stroke-width: 0.9049773755656109; stroke-dasharray: 2.0,2.0;" x1="321.267" x2="359.276" y1="516.5627" y2="516.5627"/><line style="stroke: #4A4A86; stroke-width: 0.9049773755656109; stroke-dasharray: 2.0,2.0;" x1="359.276" x2="359.276" y1="516.5627" y2="528.3274"/><line style="stroke: #4A4A86; stroke-width: 0.9049773755656109; stroke-dasharray: 2.0,2.0;" x1="316.7421" x2="359.276" y1="528.3274" y2="528.3274"/><polygon fill="#4A4A86" points="325.7919,524.7075,316.7421,528.3274,325.7919,531.9473,322.1719,528.3274" style="stroke: #4A4A86; stroke-width: 0.9049773755656109;"/><polygon fill="#4A4A86" points="182.8054,532.8523,173.7557,536.4722,182.8054,540.0921,179.1855,536.4722" style="stroke: #4A4A86; stroke-width: 0.9049773755656109;"/><line style="stroke: #4A4A86; stroke-width: 0.9049773755656109; stroke-dasharray: 2.0,2.0;" x1="177.3756" x2="306.7873" y1="536.4722" y2="536.4722"/><polygon fill="#4A4A86" points="12.6697,545.522,3.6199,549.1419,12.6697,552.7618,9.0498,549.1419" style="stroke: #4A4A86; stroke-width: 0.9049773755656109;"/><line style="stroke: #4A4A86; stroke-width: 0.9049773755656109; stroke-dasharray: 2.0,2.0;" x1="7.2398" x2="162.8959" y1="549.1419" y2="549.1419"/><!--MD5=[5816e26797c27500ba02b3369a61ce70]
@startuml
hidefootbox
skinparam componentStyle uml2

skinparam defaultFontColor	#33335b

skinparam rectangle {
	color		#d6d6de
	backgroundColor	#ffffff
}

skinparam component {
	backgroundColor	#ffffff
	borderColor	#33335b
	arrowColor	#f05772
}

skinparam interface {
	backgroundColor	#ffffff
	borderColor	#f05772
}

skinparam class {
	backgroundColor	#ffffff
	borderColor	#33335b
	arrowColor	#f05772
}
skinparam stereotypeCBackgroundColor	#6fccdd

skinparam sequence {
	arrowColor		#4a4a86
	lifeLineBorderColor	#f05772
	groupBorderColor	#a1a1ca
	boxBorderColor		#a1a1ca
	dividerBorderColor	#d6d6de
	dividerBorderThickness	1
}
skinparam participant {
	borderColor		#33335b
	backgroundColor		#ffffff
}
skinparam actor {
	borderColor		#33335b
	backgroundColor		#ffffff
}

skinparam state {
	borderColor		#33335b
	backgroundColor		#ffffff
}

skinparam node {
	backgroundColor		#ffffff
}

skinparam note {
	backgroundColor 	#f6ed80
	borderColor		#d6d6de
}
scale max 800 width

participant platform
participant lps as "cavs/lps_wait"
participant lps_pg as "cavs/lps\npg thread"
participant pm_rt as "pm-runtime"

participant lpsram_boot as "Lpsram\nBoot"
participant dsp_rom as "Dsp\nRom"

-> platform : platform_wait_for_interrupt()
   activate platform
   platform -> lps : lps_wait_for_interrupt()
      activate lps
      lps -> lps : platform_pg\nint_handler(D0i3/D0) [SW INT]
         activate lps
         lps -> pm_rt : <b>pm_runtime_put(DSP, 0)</b>
            note right: DSP core PG\nenabled
         lps -> lps_pg : platform_pg_task
         deactivate lps
            activate lps_pg
               lps_pg -> lps_pg : configure lpsram boot
               lps_pg -> lps_pg : waiti
                  note right: DSP core is PG-ed
               deactivate lps_pg
...

dsp_rom <- : INT
lpsram_boot <- dsp_rom
lps <- lpsram_boot : platform_pg\nint_handler(D0i3/D0) [SW INT]
   activate lps
   lps -> pm_rt : <b>pm_runtime_get(DSP, 0)
      note right: DSP core PG\ndisabled
   lps <- - lps
   deactivate lps
platform <- - lps
<- - platform

@enduml

PlantUML version 1.2019.12(Sun Nov 03 18:24:54 CST 2019)
(GPL source distribution)
Java Runtime: Java(TM) SE Runtime Environment
JVM: Java HotSpot(TM) 64-Bit Server VM
Java Version: 1.8.0_321-b07
Operating System: Windows 10
Default Encoding: GBK
Language: zh
Country: CN
--></g></svg>