<?xml version="1.0" encoding="UTF-8" standalone="no"?><svg xmlns="http://www.w3.org/2000/svg" xmlns:xlink="http://www.w3.org/1999/xlink" contentScriptType="application/ecmascript" contentStyleType="text/css" height="967px" preserveAspectRatio="none" style="width:775px;height:967px;" version="1.1" viewBox="0 0 775 967" width="775px" zoomAndPan="magnify"><defs><filter height="300%" id="fti7dm2az1wu0" width="300%" x="-1" y="-1"><feGaussianBlur result="blurOut" stdDeviation="2.0"/><feColorMatrix in="blurOut" result="blurOut2" type="matrix" values="0 0 0 0 0 0 0 0 0 0 0 0 0 0 0 0 0 0 .4 0"/><feOffset dx="4.0" dy="4.0" in="blurOut2" result="blurOut3"/><feBlend in="SourceGraphic" in2="blurOut3" mode="normal"/></filter></defs><g><rect fill="#FFFFFF" height="945.3457" style="stroke: #A1A1CA; stroke-width: 1.0;" width="64" x="86" y="4"/><text fill="#33335B" font-family="sans-serif" font-size="13" font-weight="bold" lengthAdjust="spacingAndGlyphs" textLength="27" x="104.5" y="18.8979">Host</text><rect fill="#DDDDDD" height="945.3457" style="stroke: #A1A1CA; stroke-width: 1.0;" width="147" x="260" y="4"/><text fill="#33335B" font-family="sans-serif" font-size="13" font-weight="bold" lengthAdjust="spacingAndGlyphs" textLength="57" x="305" y="18.8979">HD/A HW</text><rect fill="#FFFFFF" height="945.3457" style="stroke: #A1A1CA; stroke-width: 1.0;" width="355" x="409" y="4"/><text fill="#33335B" font-family="sans-serif" font-size="13" font-weight="bold" lengthAdjust="spacingAndGlyphs" textLength="27" x="573" y="18.8979">DSP</text><line style="stroke: #F05772; stroke-width: 1.0; stroke-dasharray: 5.0,5.0;" x1="118" x2="118" y1="82.9946" y2="955.3457"/><line style="stroke: #F05772; stroke-width: 1.0; stroke-dasharray: 5.0,5.0;" x1="297" x2="297" y1="82.9946" y2="955.3457"/><line style="stroke: #F05772; stroke-width: 1.0; stroke-dasharray: 5.0,5.0;" x1="371" x2="371" y1="82.9946" y2="955.3457"/><line style="stroke: #F05772; stroke-width: 1.0; stroke-dasharray: 5.0,5.0;" x1="435" x2="435" y1="82.9946" y2="955.3457"/><line style="stroke: #F05772; stroke-width: 1.0; stroke-dasharray: 5.0,5.0;" x1="721" x2="721" y1="82.9946" y2="955.3457"/><rect fill="#FFFFFF" filter="url(#fti7dm2az1wu0)" height="52.2402" style="stroke: #33335B; stroke-width: 1.5;" width="52" x="90" y="25.7544"/><text fill="#33335B" font-family="sans-serif" font-size="14" lengthAdjust="spacingAndGlyphs" textLength="28" x="102" y="48.7983">Host</text><text fill="#33335B" font-family="sans-serif" font-size="14" lengthAdjust="spacingAndGlyphs" textLength="38" x="97" y="67.9185">Driver</text><rect fill="#FFFFFF" filter="url(#fti7dm2az1wu0)" height="33.1201" style="stroke: #33335B; stroke-width: 1.5;" width="62" x="264" y="44.8745"/><text fill="#33335B" font-family="sans-serif" font-size="14" lengthAdjust="spacingAndGlyphs" textLength="48" x="271" y="67.9185">hda_sw</text><rect fill="#FFFFFF" filter="url(#fti7dm2az1wu0)" height="33.1201" style="stroke: #33335B; stroke-width: 1.5;" width="59" x="340" y="44.8745"/><text fill="#33335B" font-family="sans-serif" font-size="14" lengthAdjust="spacingAndGlyphs" textLength="45" x="347" y="67.9185">hda_fw</text><rect fill="#FFFFFF" filter="url(#fti7dm2az1wu0)" height="33.1201" style="stroke: #33335B; stroke-width: 1.5;" width="41" x="413" y="44.8745"/><text fill="#33335B" font-family="sans-serif" font-size="14" lengthAdjust="spacingAndGlyphs" textLength="27" x="420" y="67.9185">host</text><rect fill="#FFFFFF" filter="url(#fti7dm2az1wu0)" height="33.1201" style="stroke: #33335B; stroke-width: 1.5;" width="73" x="683" y="44.8745"/><text fill="#33335B" font-family="sans-serif" font-size="14" lengthAdjust="spacingAndGlyphs" textLength="59" x="690" y="67.9185">hda_dma</text><path d="M255,97.9946 L255,124.9946 L409,124.9946 L409,107.9946 L399,97.9946 L255,97.9946 " fill="#F6ED80" filter="url(#fti7dm2az1wu0)" style="stroke: #D6D6DE; stroke-width: 1.0;"/><path d="M399,97.9946 L399,107.9946 L409,107.9946 L399,97.9946 " fill="#F6ED80" style="stroke: #D6D6DE; stroke-width: 1.0;"/><text fill="#33335B" font-family="sans-serif" font-size="13" lengthAdjust="spacingAndGlyphs" textLength="133" x="261" y="117.8926">"DMA in RESET state"</text><polygon fill="#4A4A86" points="106,154.5034,116,158.5034,106,162.5034,110,158.5034" style="stroke: #4A4A86; stroke-width: 1.0;"/><line style="stroke: #4A4A86; stroke-width: 1.0;" x1="3" x2="112" y1="158.5034" y2="158.5034"/><text fill="#33335B" font-family="sans-serif" font-size="13" lengthAdjust="spacingAndGlyphs" textLength="84" x="10" y="153.647">Create Stream</text><polygon fill="#4A4A86" points="423.5,186.2578,433.5,190.2578,423.5,194.2578,427.5,190.2578" style="stroke: #4A4A86; stroke-width: 1.0;"/><line style="stroke: #4A4A86; stroke-width: 1.0;" x1="118" x2="429.5" y1="190.2578" y2="190.2578"/><text fill="#33335B" font-family="sans-serif" font-size="13" lengthAdjust="spacingAndGlyphs" textLength="31" x="125" y="185.4014">new()</text><polygon fill="#4A4A86" points="709.5,218.0122,719.5,222.0122,709.5,226.0122,713.5,222.0122" style="stroke: #4A4A86; stroke-width: 1.0;"/><line style="stroke: #4A4A86; stroke-width: 1.0;" x1="435.5" x2="715.5" y1="222.0122" y2="222.0122"/><text fill="#33335B" font-family="sans-serif" font-size="13" lengthAdjust="spacingAndGlyphs" textLength="107" x="442.5" y="217.1558">dma_get(dmac_id)</text><polygon fill="#4A4A86" points="446.5,249.7666,436.5,253.7666,446.5,257.7666,442.5,253.7666" style="stroke: #4A4A86; stroke-width: 1.0;"/><line style="stroke: #4A4A86; stroke-width: 1.0; stroke-dasharray: 2.0,2.0;" x1="440.5" x2="720.5" y1="253.7666" y2="253.7666"/><text fill="#33335B" font-family="sans-serif" font-size="13" lengthAdjust="spacingAndGlyphs" textLength="32" x="452.5" y="248.9102">dmac</text><polygon fill="#4A4A86" points="129,263.7666,119,267.7666,129,271.7666,125,267.7666" style="stroke: #4A4A86; stroke-width: 1.0;"/><line style="stroke: #4A4A86; stroke-width: 1.0; stroke-dasharray: 2.0,2.0;" x1="123" x2="434.5" y1="267.7666" y2="267.7666"/><polygon fill="#4A4A86" points="14,277.7666,4,281.7666,14,285.7666,10,281.7666" style="stroke: #4A4A86; stroke-width: 1.0;"/><line style="stroke: #4A4A86; stroke-width: 1.0; stroke-dasharray: 2.0,2.0;" x1="8" x2="117" y1="281.7666" y2="281.7666"/><polygon fill="#4A4A86" points="106,309.521,116,313.521,106,317.521,110,313.521" style="stroke: #4A4A86; stroke-width: 1.0;"/><line style="stroke: #4A4A86; stroke-width: 1.0;" x1="3" x2="112" y1="313.521" y2="313.521"/><text fill="#33335B" font-family="sans-serif" font-size="13" lengthAdjust="spacingAndGlyphs" textLength="91" x="10" y="308.6646">Stream Params</text><polygon fill="#4A4A86" points="285,341.2754,295,345.2754,285,349.2754,289,345.2754" style="stroke: #4A4A86; stroke-width: 1.0;"/><line style="stroke: #4A4A86; stroke-width: 1.0;" x1="118" x2="291" y1="345.2754" y2="345.2754"/><text fill="#33335B" font-family="sans-serif" font-size="13" lengthAdjust="spacingAndGlyphs" textLength="155" x="125" y="340.4189">setup DMA (format &amp; BDL)</text><polygon fill="#4A4A86" points="423.5,373.0298,433.5,377.0298,423.5,381.0298,427.5,377.0298" style="stroke: #4A4A86; stroke-width: 1.0;"/><line style="stroke: #4A4A86; stroke-width: 1.0;" x1="118" x2="429.5" y1="377.0298" y2="377.0298"/><text fill="#33335B" font-family="sans-serif" font-size="13" lengthAdjust="spacingAndGlyphs" textLength="51" x="125" y="372.1733">params()</text><polygon fill="#4A4A86" points="709.5,404.7842,719.5,408.7842,709.5,412.7842,713.5,408.7842" style="stroke: #4A4A86; stroke-width: 1.0;"/><line style="stroke: #4A4A86; stroke-width: 1.0;" x1="435.5" x2="715.5" y1="408.7842" y2="408.7842"/><text fill="#33335B" font-family="sans-serif" font-size="13" lengthAdjust="spacingAndGlyphs" textLength="262" x="442.5" y="403.9277">dma_channel_get(dmac, params.stream_tag)</text><polygon fill="#4A4A86" points="446.5,436.5386,436.5,440.5386,446.5,444.5386,442.5,440.5386" style="stroke: #4A4A86; stroke-width: 1.0;"/><line style="stroke: #4A4A86; stroke-width: 1.0; stroke-dasharray: 2.0,2.0;" x1="440.5" x2="720.5" y1="440.5386" y2="440.5386"/><text fill="#33335B" font-family="sans-serif" font-size="13" lengthAdjust="spacingAndGlyphs" textLength="28" x="452.5" y="435.6821">chan</text><polygon fill="#4A4A86" points="709.5,468.293,719.5,472.293,709.5,476.293,713.5,472.293" style="stroke: #4A4A86; stroke-width: 1.0;"/><line style="stroke: #4A4A86; stroke-width: 1.0;" x1="435.5" x2="715.5" y1="472.293" y2="472.293"/><text fill="#33335B" font-family="sans-serif" font-size="13" lengthAdjust="spacingAndGlyphs" textLength="209" x="442.5" y="467.4365">dma_set_config(dmac, chan, config)</text><polygon fill="#4A4A86" points="382.5,500.0474,372.5,504.0474,382.5,508.0474,378.5,504.0474" style="stroke: #4A4A86; stroke-width: 1.0;"/><line style="stroke: #4A4A86; stroke-width: 1.0;" x1="376.5" x2="720.5" y1="504.0474" y2="504.0474"/><text fill="#33335B" font-family="sans-serif" font-size="13" lengthAdjust="spacingAndGlyphs" textLength="91" x="388.5" y="499.1909">DGBBA, DGBS</text><polygon fill="#4A4A86" points="382.5,531.8018,372.5,535.8018,382.5,539.8018,378.5,535.8018" style="stroke: #4A4A86; stroke-width: 1.0;"/><line style="stroke: #4A4A86; stroke-width: 1.0;" x1="376.5" x2="720.5" y1="535.8018" y2="535.8018"/><text fill="#33335B" font-family="sans-serif" font-size="13" lengthAdjust="spacingAndGlyphs" textLength="193" x="388.5" y="530.9453">DGMBS := buffer size [host dma]</text><polygon fill="#4A4A86" points="382.5,563.5562,372.5,567.5562,382.5,571.5562,378.5,567.5562" style="stroke: #4A4A86; stroke-width: 1.0;"/><line style="stroke: #4A4A86; stroke-width: 1.0;" x1="376.5" x2="720.5" y1="567.5562" y2="567.5562"/><text fill="#33335B" font-family="sans-serif" font-size="13" lengthAdjust="spacingAndGlyphs" textLength="55" x="388.5" y="562.6997">GEN := 0</text><polygon fill="#4A4A86" points="382.5,595.3105,372.5,599.3105,382.5,603.3105,378.5,599.3105" style="stroke: #4A4A86; stroke-width: 1.0;"/><line style="stroke: #4A4A86; stroke-width: 1.0;" x1="376.5" x2="720.5" y1="599.3105" y2="599.3105"/><text fill="#33335B" font-family="sans-serif" font-size="13" lengthAdjust="spacingAndGlyphs" textLength="152" x="388.5" y="594.4541">SCS := 1 [bit_depth != 32]</text><polygon fill="#4A4A86" points="382.5,627.0649,372.5,631.0649,382.5,635.0649,378.5,631.0649" style="stroke: #4A4A86; stroke-width: 1.0;"/><line style="stroke: #4A4A86; stroke-width: 1.0;" x1="376.5" x2="720.5" y1="631.0649" y2="631.0649"/><text fill="#33335B" font-family="sans-serif" font-size="13" lengthAdjust="spacingAndGlyphs" textLength="70" x="388.5" y="626.2085">FWCB : = 1</text><polygon fill="#4A4A86" points="382.5,658.8193,372.5,662.8193,382.5,666.8193,378.5,662.8193" style="stroke: #4A4A86; stroke-width: 1.0;"/><line style="stroke: #4A4A86; stroke-width: 1.0;" x1="376.5" x2="720.5" y1="662.8193" y2="662.8193"/><text fill="#33335B" font-family="sans-serif" font-size="13" lengthAdjust="spacingAndGlyphs" textLength="83" x="388.5" y="657.9629">FIFORDY := 0</text><polygon fill="#4A4A86" points="446.5,672.8193,436.5,676.8193,446.5,680.8193,442.5,676.8193" style="stroke: #4A4A86; stroke-width: 1.0;"/><line style="stroke: #4A4A86; stroke-width: 1.0; stroke-dasharray: 2.0,2.0;" x1="440.5" x2="720.5" y1="676.8193" y2="676.8193"/><polygon fill="#4A4A86" points="129,686.8193,119,690.8193,129,694.8193,125,690.8193" style="stroke: #4A4A86; stroke-width: 1.0;"/><line style="stroke: #4A4A86; stroke-width: 1.0; stroke-dasharray: 2.0,2.0;" x1="123" x2="434.5" y1="690.8193" y2="690.8193"/><polygon fill="#4A4A86" points="14,700.8193,4,704.8193,14,708.8193,10,704.8193" style="stroke: #4A4A86; stroke-width: 1.0;"/><line style="stroke: #4A4A86; stroke-width: 1.0; stroke-dasharray: 2.0,2.0;" x1="8" x2="117" y1="704.8193" y2="704.8193"/><polygon fill="#4A4A86" points="106,732.5737,116,736.5737,106,740.5737,110,736.5737" style="stroke: #4A4A86; stroke-width: 1.0;"/><line style="stroke: #4A4A86; stroke-width: 1.0;" x1="3" x2="112" y1="736.5737" y2="736.5737"/><text fill="#33335B" font-family="sans-serif" font-size="13" lengthAdjust="spacingAndGlyphs" textLength="27" x="10" y="731.7173">RUN</text><polygon fill="#4A4A86" points="285,764.3281,295,768.3281,285,772.3281,289,768.3281" style="stroke: #4A4A86; stroke-width: 1.0;"/><line style="stroke: #4A4A86; stroke-width: 1.0;" x1="118" x2="291" y1="768.3281" y2="768.3281"/><text fill="#33335B" font-family="sans-serif" font-size="13" lengthAdjust="spacingAndGlyphs" textLength="54" x="125" y="763.4717">RUN := 1</text><polygon fill="#4A4A86" points="423.5,796.0825,433.5,800.0825,423.5,804.0825,427.5,800.0825" style="stroke: #4A4A86; stroke-width: 1.0;"/><line style="stroke: #4A4A86; stroke-width: 1.0;" x1="118" x2="429.5" y1="800.0825" y2="800.0825"/><text fill="#33335B" font-family="sans-serif" font-size="13" lengthAdjust="spacingAndGlyphs" textLength="195" x="125" y="795.2261">trigger(COMP_TRIGGER_START)</text><polygon fill="#4A4A86" points="709.5,827.8369,719.5,831.8369,709.5,835.8369,713.5,831.8369" style="stroke: #4A4A86; stroke-width: 1.0;"/><line style="stroke: #4A4A86; stroke-width: 1.0;" x1="435.5" x2="715.5" y1="831.8369" y2="831.8369"/><text fill="#33335B" font-family="sans-serif" font-size="13" lengthAdjust="spacingAndGlyphs" textLength="66" x="442.5" y="826.9805">dma_start()</text><polygon fill="#4A4A86" points="382.5,859.5913,372.5,863.5913,382.5,867.5913,378.5,863.5913" style="stroke: #4A4A86; stroke-width: 1.0;"/><line style="stroke: #4A4A86; stroke-width: 1.0;" x1="376.5" x2="720.5" y1="863.5913" y2="863.5913"/><text fill="#33335B" font-family="sans-serif" font-size="13" lengthAdjust="spacingAndGlyphs" textLength="55" x="388.5" y="858.7349">GEN := 1</text><polygon fill="#4A4A86" points="382.5,891.3457,372.5,895.3457,382.5,899.3457,378.5,895.3457" style="stroke: #4A4A86; stroke-width: 1.0;"/><line style="stroke: #4A4A86; stroke-width: 1.0;" x1="376.5" x2="720.5" y1="895.3457" y2="895.3457"/><text fill="#33335B" font-family="sans-serif" font-size="13" lengthAdjust="spacingAndGlyphs" textLength="83" x="388.5" y="890.4893">FIFORDY := 1</text><polygon fill="#4A4A86" points="446.5,905.3457,436.5,909.3457,446.5,913.3457,442.5,909.3457" style="stroke: #4A4A86; stroke-width: 1.0;"/><line style="stroke: #4A4A86; stroke-width: 1.0; stroke-dasharray: 2.0,2.0;" x1="440.5" x2="720.5" y1="909.3457" y2="909.3457"/><polygon fill="#4A4A86" points="129,919.3457,119,923.3457,129,927.3457,125,923.3457" style="stroke: #4A4A86; stroke-width: 1.0;"/><line style="stroke: #4A4A86; stroke-width: 1.0; stroke-dasharray: 2.0,2.0;" x1="123" x2="434.5" y1="923.3457" y2="923.3457"/><polygon fill="#4A4A86" points="14,933.3457,4,937.3457,14,941.3457,10,937.3457" style="stroke: #4A4A86; stroke-width: 1.0;"/><line style="stroke: #4A4A86; stroke-width: 1.0; stroke-dasharray: 2.0,2.0;" x1="8" x2="117" y1="937.3457" y2="937.3457"/><!--MD5=[e94bfcc794ecb94bd7312a8573474179]
@startuml
hidefootbox
skinparam componentStyle uml2

skinparam defaultFontColor	#33335b

skinparam rectangle {
	color		#d6d6de
	backgroundColor	#ffffff
}

skinparam component {
	backgroundColor	#ffffff
	borderColor	#33335b
	arrowColor	#f05772
}

skinparam interface {
	backgroundColor	#ffffff
	borderColor	#f05772
}

skinparam class {
	backgroundColor	#ffffff
	borderColor	#33335b
	arrowColor	#f05772
}
skinparam stereotypeCBackgroundColor	#6fccdd

skinparam sequence {
	arrowColor		#4a4a86
	lifeLineBorderColor	#f05772
	groupBorderColor	#a1a1ca
	boxBorderColor		#a1a1ca
	dividerBorderColor	#d6d6de
	dividerBorderThickness	1
}
skinparam participant {
	borderColor		#33335b
	backgroundColor		#ffffff
}
skinparam actor {
	borderColor		#33335b
	backgroundColor		#ffffff
}

skinparam state {
	borderColor		#33335b
	backgroundColor		#ffffff
}

skinparam node {
	backgroundColor		#ffffff
}

skinparam note {
	backgroundColor 	#f6ed80
	borderColor		#d6d6de
}
box "Host" #ffffff
    participant "Host\nDriver" as drv
end box
box "HD/A HW"
	participant hda_sw
	participant hda_fw
end box
box "DSP" #ffffff
    participant host
    participant hda_dma
end box

note over hda_sw, hda_fw: "DMA in RESET state"

-> drv : Create Stream
    drv -> host : new()
        host -> hda_dma : dma_get(dmac_id)
            host <- - hda_dma : dmac

        drv <- - host
    <- - drv

-> drv : Stream Params
    drv -> hda_sw : setup DMA (format & BDL)

    drv -> host : params()
        host -> hda_dma : dma_channel_get(dmac, params.stream_tag)
            host <- - hda_dma : chan

        host -> hda_dma : dma_set_config(dmac, chan, config)
            hda_fw <- hda_dma : DGBBA, DGBS
            hda_fw <- hda_dma : DGMBS := buffer size [host dma]
            hda_fw <- hda_dma : GEN := 0
            hda_fw <- hda_dma : SCS := 1 [bit_depth != 32]
            hda_fw <- hda_dma : FWCB : = 1
            hda_fw <- hda_dma : FIFORDY := 0
            host <- - hda_dma

        drv <- - host
    <- - drv

-> drv : RUN
    drv -> hda_sw : RUN := 1

    drv -> host : trigger(COMP_TRIGGER_START)
        host -> hda_dma : dma_start()
            hda_fw <- hda_dma : GEN := 1
            hda_fw <- hda_dma : FIFORDY := 1
            host <- - hda_dma
        drv <- - host
    <- - drv

@enduml

PlantUML version 1.2019.12(Sun Nov 03 18:24:54 CST 2019)
(GPL source distribution)
Java Runtime: Java(TM) SE Runtime Environment
JVM: Java HotSpot(TM) 64-Bit Server VM
Java Version: 1.8.0_321-b07
Operating System: Windows 10
Default Encoding: GBK
Language: zh
Country: CN
--></g></svg>