<?xml version="1.0" encoding="UTF-8" standalone="no"?><svg xmlns="http://www.w3.org/2000/svg" xmlns:xlink="http://www.w3.org/1999/xlink" contentScriptType="application/ecmascript" contentStyleType="text/css" height="425px" preserveAspectRatio="none" style="width:481px;height:425px;" version="1.1" viewBox="0 0 481 425" width="481px" zoomAndPan="magnify"><defs><filter height="300%" id="fxv95qqntqt0h" width="300%" x="-1" y="-1"><feGaussianBlur result="blurOut" stdDeviation="2.0"/><feColorMatrix in="blurOut" result="blurOut2" type="matrix" values="0 0 0 0 0 0 0 0 0 0 0 0 0 0 0 0 0 0 .4 0"/><feOffset dx="4.0" dy="4.0" in="blurOut2" result="blurOut3"/><feBlend in="SourceGraphic" in2="blurOut3" mode="normal"/></filter></defs><g><rect fill="#FFFFFF" filter="url(#fxv95qqntqt0h)" height="31.7544" style="stroke: #F05772; stroke-width: 1.0;" width="10" x="172.5" y="122.8745"/><rect fill="#FFFFFF" filter="url(#fxv95qqntqt0h)" height="31.7544" style="stroke: #F05772; stroke-width: 1.0;" width="10" x="172.5" y="228.3833"/><rect fill="#FFFFFF" filter="url(#fxv95qqntqt0h)" height="98.5088" style="stroke: #F05772; stroke-width: 1.0;" width="10" x="172.5" y="305.8921"/><line style="stroke: #F05772; stroke-width: 1.0;" x1="27" x2="27" y1="89.1201" y2="176.6289"/><line style="stroke: #F05772; stroke-width: 1.0; stroke-dasharray: 1.0,4.0;" x1="27" x2="27" y1="176.6289" y2="204.6289"/><line style="stroke: #F05772; stroke-width: 1.0;" x1="27" x2="27" y1="204.6289" y2="413.4009"/><line style="stroke: #F05772; stroke-width: 1.0;" x1="177.5" x2="177.5" y1="89.1201" y2="176.6289"/><line style="stroke: #F05772; stroke-width: 1.0; stroke-dasharray: 1.0,4.0;" x1="177.5" x2="177.5" y1="176.6289" y2="204.6289"/><line style="stroke: #F05772; stroke-width: 1.0;" x1="177.5" x2="177.5" y1="204.6289" y2="413.4009"/><line style="stroke: #F05772; stroke-width: 1.0;" x1="416" x2="416" y1="89.1201" y2="176.6289"/><line style="stroke: #F05772; stroke-width: 1.0; stroke-dasharray: 1.0,4.0;" x1="416" x2="416" y1="176.6289" y2="204.6289"/><line style="stroke: #F05772; stroke-width: 1.0;" x1="416" x2="416" y1="204.6289" y2="413.4009"/><text fill="#33335B" font-family="sans-serif" font-size="14" lengthAdjust="spacingAndGlyphs" textLength="33" x="8" y="86.0439">client</text><ellipse cx="27.5" cy="13" fill="#FFFFFF" filter="url(#fxv95qqntqt0h)" rx="8" ry="8" style="stroke: #33335B; stroke-width: 2.0;"/><path d="M27.5,21 L27.5,48 M14.5,29 L40.5,29 M27.5,48 L14.5,63 M27.5,48 L40.5,63 " fill="none" filter="url(#fxv95qqntqt0h)" style="stroke: #33335B; stroke-width: 2.0;"/><rect fill="#FFFFFF" filter="url(#fxv95qqntqt0h)" height="33.1201" style="stroke: #33335B; stroke-width: 1.5;" width="104" x="123.5" y="51"/><text fill="#33335B" font-family="sans-serif" font-size="14" lengthAdjust="spacingAndGlyphs" textLength="90" x="130.5" y="74.0439">edf_scheduler</text><rect fill="#FFFFFF" filter="url(#fxv95qqntqt0h)" height="33.1201" style="stroke: #33335B; stroke-width: 1.5;" width="111" x="359" y="51"/><text fill="#33335B" font-family="sans-serif" font-size="14" lengthAdjust="spacingAndGlyphs" textLength="97" x="366" y="74.0439">interrupt_driver</text><rect fill="#FFFFFF" filter="url(#fxv95qqntqt0h)" height="31.7544" style="stroke: #F05772; stroke-width: 1.0;" width="10" x="172.5" y="122.8745"/><rect fill="#FFFFFF" filter="url(#fxv95qqntqt0h)" height="31.7544" style="stroke: #F05772; stroke-width: 1.0;" width="10" x="172.5" y="228.3833"/><rect fill="#FFFFFF" filter="url(#fxv95qqntqt0h)" height="98.5088" style="stroke: #F05772; stroke-width: 1.0;" width="10" x="172.5" y="305.8921"/><polygon fill="#4A4A86" points="160.5,118.8745,170.5,122.8745,160.5,126.8745,164.5,122.8745" style="stroke: #4A4A86; stroke-width: 1.0;"/><line style="stroke: #4A4A86; stroke-width: 1.0;" x1="3" x2="166.5" y1="122.8745" y2="122.8745"/><text fill="#33335B" font-family="sans-serif" font-size="13" lengthAdjust="spacingAndGlyphs" textLength="88" x="10" y="118.0181">scheduler_init()</text><polygon fill="#4A4A86" points="404.5,150.6289,414.5,154.6289,404.5,158.6289,408.5,154.6289" style="stroke: #4A4A86; stroke-width: 1.0;"/><line style="stroke: #4A4A86; stroke-width: 1.0;" x1="177.5" x2="410.5" y1="154.6289" y2="154.6289"/><text fill="#33335B" font-family="sans-serif" font-size="13" lengthAdjust="spacingAndGlyphs" textLength="210" x="184.5" y="149.7725">interrupt_register(edf_scheduler_run)</text><polygon fill="#4A4A86" points="14,164.6289,4,168.6289,14,172.6289,10,168.6289" style="stroke: #4A4A86; stroke-width: 1.0;"/><line style="stroke: #4A4A86; stroke-width: 1.0; stroke-dasharray: 2.0,2.0;" x1="8" x2="176.5" y1="168.6289" y2="168.6289"/><polygon fill="#4A4A86" points="160.5,224.3833,170.5,228.3833,160.5,232.3833,164.5,228.3833" style="stroke: #4A4A86; stroke-width: 1.0;"/><line style="stroke: #4A4A86; stroke-width: 1.0;" x1="27.5" x2="166.5" y1="228.3833" y2="228.3833"/><text fill="#33335B" font-family="sans-serif" font-size="13" lengthAdjust="spacingAndGlyphs" textLength="126" x="34.5" y="223.5269">schedule_task(&amp;task)</text><polygon fill="#4A4A86" points="404.5,256.1377,414.5,260.1377,404.5,264.1377,408.5,260.1377" style="stroke: #4A4A86; stroke-width: 1.0;"/><line style="stroke: #4A4A86; stroke-width: 1.0;" x1="177.5" x2="410.5" y1="260.1377" y2="260.1377"/><text fill="#33335B" font-family="sans-serif" font-size="13" lengthAdjust="spacingAndGlyphs" textLength="80" x="184.5" y="255.2813">interrupt_set()</text><polygon fill="#4A4A86" points="38.5,270.1377,28.5,274.1377,38.5,278.1377,34.5,274.1377" style="stroke: #4A4A86; stroke-width: 1.0;"/><line style="stroke: #4A4A86; stroke-width: 1.0; stroke-dasharray: 2.0,2.0;" x1="32.5" x2="176.5" y1="274.1377" y2="274.1377"/><polygon fill="#4A4A86" points="193.5,301.8921,183.5,305.8921,193.5,309.8921,189.5,305.8921" style="stroke: #4A4A86; stroke-width: 1.0;"/><line style="stroke: #4A4A86; stroke-width: 1.0;" x1="187.5" x2="415.5" y1="305.8921" y2="305.8921"/><text fill="#33335B" font-family="sans-serif" font-size="13" lengthAdjust="spacingAndGlyphs" textLength="113" x="199.5" y="301.0356">edf_scheduler_run()</text><line style="stroke: #4A4A86; stroke-width: 1.0;" x1="182.5" x2="224.5" y1="337.6465" y2="337.6465"/><line style="stroke: #4A4A86; stroke-width: 1.0;" x1="224.5" x2="224.5" y1="337.6465" y2="350.6465"/><line style="stroke: #4A4A86; stroke-width: 1.0;" x1="183.5" x2="224.5" y1="350.6465" y2="350.6465"/><polygon fill="#4A4A86" points="193.5,346.6465,183.5,350.6465,193.5,354.6465,189.5,350.6465" style="stroke: #4A4A86; stroke-width: 1.0;"/><text fill="#33335B" font-family="sans-serif" font-size="13" lengthAdjust="spacingAndGlyphs" textLength="141" x="189.5" y="332.79">schedule_task_running()</text><line style="stroke: #4A4A86; stroke-width: 1.0;" x1="182.5" x2="224.5" y1="382.4009" y2="382.4009"/><line style="stroke: #4A4A86; stroke-width: 1.0;" x1="224.5" x2="224.5" y1="382.4009" y2="395.4009"/><line style="stroke: #4A4A86; stroke-width: 1.0;" x1="183.5" x2="224.5" y1="395.4009" y2="395.4009"/><polygon fill="#4A4A86" points="193.5,391.4009,183.5,395.4009,193.5,399.4009,189.5,395.4009" style="stroke: #4A4A86; stroke-width: 1.0;"/><text fill="#33335B" font-family="sans-serif" font-size="13" lengthAdjust="spacingAndGlyphs" textLength="152" x="189.5" y="377.5444">schedule_task_complete()</text><!--MD5=[39ee6ce5c13a85b2b7ba726a7798870f]
@startuml
hidefootbox
skinparam componentStyle uml2

skinparam defaultFontColor	#33335b

skinparam rectangle {
	color		#d6d6de
	backgroundColor	#ffffff
}

skinparam component {
	backgroundColor	#ffffff
	borderColor	#33335b
	arrowColor	#f05772
}

skinparam interface {
	backgroundColor	#ffffff
	borderColor	#f05772
}

skinparam class {
	backgroundColor	#ffffff
	borderColor	#33335b
	arrowColor	#f05772
}
skinparam stereotypeCBackgroundColor	#6fccdd

skinparam sequence {
	arrowColor		#4a4a86
	lifeLineBorderColor	#f05772
	groupBorderColor	#a1a1ca
	boxBorderColor		#a1a1ca
	dividerBorderColor	#d6d6de
	dividerBorderThickness	1
}
skinparam participant {
	borderColor		#33335b
	backgroundColor		#ffffff
}
skinparam actor {
	borderColor		#33335b
	backgroundColor		#ffffff
}

skinparam state {
	borderColor		#33335b
	backgroundColor		#ffffff
}

skinparam node {
	backgroundColor		#ffffff
}

skinparam note {
	backgroundColor 	#f6ed80
	borderColor		#d6d6de
}
actor client as c

participant edf_scheduler as edf
participant interrupt_driver as int

-> edf : scheduler_init()
    activate edf
    edf -> int : interrupt_register(edf_scheduler_run)
    deactivate edf
<- - edf
...
c -> edf : schedule_task(&task)
    activate edf
    edf -> int : interrupt_set()
    deactivate edf
c <- - edf

edf <- int : edf_scheduler_run()
    activate edf
    edf -> edf : schedule_task_running()
    edf -> edf : schedule_task_complete()

@enduml

PlantUML version 1.2019.12(Sun Nov 03 18:24:54 CST 2019)
(GPL source distribution)
Java Runtime: Java(TM) SE Runtime Environment
JVM: Java HotSpot(TM) 64-Bit Server VM
Java Version: 1.8.0_321-b07
Operating System: Windows 10
Default Encoding: GBK
Language: zh
Country: CN
--></g></svg>