<?xml version="1.0" encoding="UTF-8" standalone="no"?><svg xmlns="http://www.w3.org/2000/svg" xmlns:xlink="http://www.w3.org/1999/xlink" contentScriptType="application/ecmascript" contentStyleType="text/css" height="393px" preserveAspectRatio="none" style="width:577px;height:393px;" version="1.1" viewBox="0 0 577 393" width="577px" zoomAndPan="magnify"><defs><filter height="300%" id="f2tu479mxmrje" width="300%" x="-1" y="-1"><feGaussianBlur result="blurOut" stdDeviation="2.0"/><feColorMatrix in="blurOut" result="blurOut2" type="matrix" values="0 0 0 0 0 0 0 0 0 0 0 0 0 0 0 0 0 0 .4 0"/><feOffset dx="4.0" dy="4.0" in="blurOut2" result="blurOut3"/><feBlend in="SourceGraphic" in2="blurOut3" mode="normal"/></filter></defs><g><!--MD5=[7710054a08d622d2d960c555d61d76fb]
cluster cavs--><polygon fill="#FFFFFF" filter="url(#f2tu479mxmrje)" points="89,151,128,151,135,176.1201,466,176.1201,466,254,89,254,89,151" style="stroke: #000000; stroke-width: 1.5;"/><line style="stroke: #000000; stroke-width: 1.5;" x1="89" x2="135" y1="176.1201" y2="176.1201"/><text fill="#33335B" font-family="sans-serif" font-size="14" font-weight="bold" lengthAdjust="spacingAndGlyphs" textLength="33" x="93" y="169.0439">cavs</text><!--MD5=[c28c1df5c2d2e22d07a1cfff56ab0919]
cluster arch--><polygon fill="#FFFFFF" filter="url(#f2tu479mxmrje)" points="178,278,215,278,222,303.1201,544,303.1201,544,381,178,381,178,278" style="stroke: #000000; stroke-width: 1.5;"/><line style="stroke: #000000; stroke-width: 1.5;" x1="178" x2="222" y1="303.1201" y2="303.1201"/><text fill="#33335B" font-family="sans-serif" font-size="14" font-weight="bold" lengthAdjust="spacingAndGlyphs" textLength="31" x="182" y="296.0439">arch</text><!--MD5=[d841c4c2f84d4e18d352f800547f43fc]
cluster platform--><polygon fill="#FFFFFF" filter="url(#f2tu479mxmrje)" points="22,24,86,24,93,49.1201,555,49.1201,555,127,22,127,22,24" style="stroke: #000000; stroke-width: 1.5;"/><line style="stroke: #000000; stroke-width: 1.5;" x1="22" x2="93" y1="49.1201" y2="49.1201"/><text fill="#33335B" font-family="sans-serif" font-size="14" font-weight="bold" lengthAdjust="spacingAndGlyphs" textLength="58" x="26" y="42.0439">platform</text><!--MD5=[4b4cb74f92c39c2893536ba1b2722bf8]
entity 2.5--><rect fill="#FFFFFF" filter="url(#f2tu479mxmrje)" height="49.1201" style="stroke: #33335B; stroke-width: 1.5;" width="60" x="105" y="189"/><rect fill="#FFFFFF" height="10" style="stroke: #33335B; stroke-width: 1.5;" width="15" x="145" y="194"/><rect fill="#FFFFFF" height="2" style="stroke: #33335B; stroke-width: 1.5;" width="4" x="143" y="196"/><rect fill="#FFFFFF" height="2" style="stroke: #33335B; stroke-width: 1.5;" width="4" x="143" y="200"/><text fill="#33335B" font-family="sans-serif" font-size="14" lengthAdjust="spacingAndGlyphs" textLength="20" x="120" y="225.0439">2.5</text><!--MD5=[1ba81da61a18b9bf0c34ef1c680c4179]
entity 2.0--><rect fill="#FFFFFF" filter="url(#f2tu479mxmrje)" height="49.1201" style="stroke: #33335B; stroke-width: 1.5;" width="60" x="390" y="189"/><rect fill="#FFFFFF" height="10" style="stroke: #33335B; stroke-width: 1.5;" width="15" x="430" y="194"/><rect fill="#FFFFFF" height="2" style="stroke: #33335B; stroke-width: 1.5;" width="4" x="428" y="196"/><rect fill="#FFFFFF" height="2" style="stroke: #33335B; stroke-width: 1.5;" width="4" x="428" y="200"/><text fill="#33335B" font-family="sans-serif" font-size="14" lengthAdjust="spacingAndGlyphs" textLength="20" x="405" y="225.0439">2.0</text><!--MD5=[b251ce038e8502df1be41958e247dc26]
entity 1.8--><rect fill="#FFFFFF" filter="url(#f2tu479mxmrje)" height="49.1201" style="stroke: #33335B; stroke-width: 1.5;" width="60" x="295" y="189"/><rect fill="#FFFFFF" height="10" style="stroke: #33335B; stroke-width: 1.5;" width="15" x="335" y="194"/><rect fill="#FFFFFF" height="2" style="stroke: #33335B; stroke-width: 1.5;" width="4" x="333" y="196"/><rect fill="#FFFFFF" height="2" style="stroke: #33335B; stroke-width: 1.5;" width="4" x="333" y="200"/><text fill="#33335B" font-family="sans-serif" font-size="14" lengthAdjust="spacingAndGlyphs" textLength="20" x="310" y="225.0439">1.8</text><!--MD5=[2ddb27eb383b8221de435c42be08e929]
entity 1.5--><rect fill="#FFFFFF" filter="url(#f2tu479mxmrje)" height="49.1201" style="stroke: #33335B; stroke-width: 1.5;" width="60" x="200" y="189"/><rect fill="#FFFFFF" height="10" style="stroke: #33335B; stroke-width: 1.5;" width="15" x="240" y="194"/><rect fill="#FFFFFF" height="2" style="stroke: #33335B; stroke-width: 1.5;" width="4" x="238" y="196"/><rect fill="#FFFFFF" height="2" style="stroke: #33335B; stroke-width: 1.5;" width="4" x="238" y="200"/><text fill="#33335B" font-family="sans-serif" font-size="14" lengthAdjust="spacingAndGlyphs" textLength="20" x="215" y="225.0439">1.5</text><!--MD5=[da9746410650acf9fab14ea35e32d13b]
entity host--><rect fill="#FFFFFF" filter="url(#f2tu479mxmrje)" height="49.1201" style="stroke: #33335B; stroke-width: 1.5;" width="67" x="460.5" y="316"/><rect fill="#FFFFFF" height="10" style="stroke: #33335B; stroke-width: 1.5;" width="15" x="507.5" y="321"/><rect fill="#FFFFFF" height="2" style="stroke: #33335B; stroke-width: 1.5;" width="4" x="505.5" y="323"/><rect fill="#FFFFFF" height="2" style="stroke: #33335B; stroke-width: 1.5;" width="4" x="505.5" y="327"/><text fill="#33335B" font-family="sans-serif" font-size="14" lengthAdjust="spacingAndGlyphs" textLength="27" x="475.5" y="352.0439">host</text><!--MD5=[82e10e2039fd868936cd3cab7ef705de]
entity xtensa--><rect fill="#FFFFFF" filter="url(#f2tu479mxmrje)" height="49.1201" style="stroke: #33335B; stroke-width: 1.5;" width="81" x="344.5" y="316"/><rect fill="#FFFFFF" height="10" style="stroke: #33335B; stroke-width: 1.5;" width="15" x="405.5" y="321"/><rect fill="#FFFFFF" height="2" style="stroke: #33335B; stroke-width: 1.5;" width="4" x="403.5" y="323"/><rect fill="#FFFFFF" height="2" style="stroke: #33335B; stroke-width: 1.5;" width="4" x="403.5" y="327"/><text fill="#33335B" font-family="sans-serif" font-size="14" lengthAdjust="spacingAndGlyphs" textLength="41" x="359.5" y="352.0439">xtensa</text><!--MD5=[2bf5899885793984c006f54fe433e3b8]
entity xtensa_smp--><rect fill="#FFFFFF" filter="url(#f2tu479mxmrje)" height="49.1201" style="stroke: #33335B; stroke-width: 1.5;" width="115" x="194.5" y="316"/><rect fill="#FFFFFF" height="10" style="stroke: #33335B; stroke-width: 1.5;" width="15" x="289.5" y="321"/><rect fill="#FFFFFF" height="2" style="stroke: #33335B; stroke-width: 1.5;" width="4" x="287.5" y="323"/><rect fill="#FFFFFF" height="2" style="stroke: #33335B; stroke-width: 1.5;" width="4" x="287.5" y="327"/><text fill="#33335B" font-family="sans-serif" font-size="14" lengthAdjust="spacingAndGlyphs" textLength="75" x="209.5" y="352.0439">xtensa_smp</text><!--MD5=[e4fdad6f09f493e63cd1f36b4552aac6]
entity icelake--><rect fill="#FFFFFF" filter="url(#f2tu479mxmrje)" height="49.1201" style="stroke: #33335B; stroke-width: 1.5;" width="84" x="455" y="62"/><rect fill="#FFFFFF" height="10" style="stroke: #33335B; stroke-width: 1.5;" width="15" x="519" y="67"/><rect fill="#FFFFFF" height="2" style="stroke: #33335B; stroke-width: 1.5;" width="4" x="517" y="69"/><rect fill="#FFFFFF" height="2" style="stroke: #33335B; stroke-width: 1.5;" width="4" x="517" y="73"/><text fill="#33335B" font-family="sans-serif" font-size="14" lengthAdjust="spacingAndGlyphs" textLength="44" x="470" y="98.0439">icelake</text><!--MD5=[a77ba404f372e50c6ca54c70f07c1e86]
entity cannonlake--><rect fill="#FFFFFF" filter="url(#f2tu479mxmrje)" height="49.1201" style="stroke: #33335B; stroke-width: 1.5;" width="113" x="306.5" y="62"/><rect fill="#FFFFFF" height="10" style="stroke: #33335B; stroke-width: 1.5;" width="15" x="399.5" y="67"/><rect fill="#FFFFFF" height="2" style="stroke: #33335B; stroke-width: 1.5;" width="4" x="397.5" y="69"/><rect fill="#FFFFFF" height="2" style="stroke: #33335B; stroke-width: 1.5;" width="4" x="397.5" y="73"/><text fill="#33335B" font-family="sans-serif" font-size="14" lengthAdjust="spacingAndGlyphs" textLength="73" x="321.5" y="98.0439">cannonlake</text><!--MD5=[339039aa269ecd27246307fee785ba3d]
entity apollolake--><rect fill="#FFFFFF" filter="url(#f2tu479mxmrje)" height="49.1201" style="stroke: #33335B; stroke-width: 1.5;" width="104" x="167" y="62"/><rect fill="#FFFFFF" height="10" style="stroke: #33335B; stroke-width: 1.5;" width="15" x="251" y="67"/><rect fill="#FFFFFF" height="2" style="stroke: #33335B; stroke-width: 1.5;" width="4" x="249" y="69"/><rect fill="#FFFFFF" height="2" style="stroke: #33335B; stroke-width: 1.5;" width="4" x="249" y="73"/><text fill="#33335B" font-family="sans-serif" font-size="14" lengthAdjust="spacingAndGlyphs" textLength="64" x="182" y="98.0439">apollolake</text><!--MD5=[eb8f7afab1235d6679b317442525ea3c]
entity tigerlake--><rect fill="#FFFFFF" filter="url(#f2tu479mxmrje)" height="49.1201" style="stroke: #33335B; stroke-width: 1.5;" width="94" x="38" y="62"/><rect fill="#FFFFFF" height="10" style="stroke: #33335B; stroke-width: 1.5;" width="15" x="112" y="67"/><rect fill="#FFFFFF" height="2" style="stroke: #33335B; stroke-width: 1.5;" width="4" x="110" y="69"/><rect fill="#FFFFFF" height="2" style="stroke: #33335B; stroke-width: 1.5;" width="4" x="110" y="73"/><text fill="#33335B" font-family="sans-serif" font-size="14" lengthAdjust="spacingAndGlyphs" textLength="54" x="53" y="98.0439">tigerlake</text><!--MD5=[95d821f9d01255520bb84241872ab5a0]
link 1.5 to xtensa_smp--><path d="M234.14,238.01 C237.76,258.57 243.02,288.5 246.9,310.53 " fill="none" id="1.5-&gt;xtensa_smp" style="stroke: #4A4A86; stroke-width: 1.0; stroke-dasharray: 7.0,7.0;"/><polygon fill="#4A4A86" points="247.81,315.67,250.1771,306.1098,246.937,310.7468,242.3,307.5067,247.81,315.67" style="stroke: #4A4A86; stroke-width: 1.0;"/><!--MD5=[7f4ddfe3515eca5bee11dd8b1a3cb757]
link 1.8 to xtensa_smp--><path d="M311.27,238.01 C299.16,258.74 281.49,289 268.59,311.09 " fill="none" id="1.8-&gt;xtensa_smp" style="stroke: #4A4A86; stroke-width: 1.0; stroke-dasharray: 7.0,7.0;"/><polygon fill="#4A4A86" points="265.92,315.67,273.9076,309.9082,268.4376,311.3501,266.9957,305.8801,265.92,315.67" style="stroke: #4A4A86; stroke-width: 1.0;"/><!--MD5=[828bc279fd72de2a3591debc3315d373]
link 2.0 to xtensa_smp--><path d="M401.73,238.45 C393.83,247.18 383.9,256.31 373,262 C354.61,271.61 345.6,260.79 327,270 C306.93,279.94 288.43,296.95 274.83,311.66 " fill="none" id="2.0-&gt;xtensa_smp" style="stroke: #4A4A86; stroke-width: 1.0; stroke-dasharray: 7.0,7.0;"/><polygon fill="#4A4A86" points="271.12,315.74,280.1384,311.7816,274.4876,312.0442,274.2251,306.3934,271.12,315.74" style="stroke: #4A4A86; stroke-width: 1.0;"/><!--MD5=[4fae1bbede267e14a46deb01672f1f13]
link 2.5 to xtensa_smp--><path d="M157.01,238.01 C176.66,259 205.45,289.77 226.18,311.91 " fill="none" id="2.5-&gt;xtensa_smp" style="stroke: #4A4A86; stroke-width: 1.0; stroke-dasharray: 7.0,7.0;"/><polygon fill="#4A4A86" points="229.69,315.67,226.4539,306.368,226.2708,312.0219,220.6169,311.8387,229.69,315.67" style="stroke: #4A4A86; stroke-width: 1.0;"/><!--MD5=[d8df1a70dad104bcb78d1d6113c761c3]
link apollolake to 1.5--><path d="M221.07,111.01 C222.88,131.57 225.51,161.5 227.45,183.53 " fill="none" id="apollolake-&gt;1.5" style="stroke: #4A4A86; stroke-width: 1.0; stroke-dasharray: 7.0,7.0;"/><polygon fill="#4A4A86" points="227.9,188.67,231.088,179.3514,227.4576,183.6896,223.1194,180.0592,227.9,188.67" style="stroke: #4A4A86; stroke-width: 1.0;"/><!--MD5=[d4b7e3b18c673c0a6fe5f1302ce4546d]
link cannonlake to 1.8--><path d="M355.85,111.01 C349.58,131.66 340.43,161.75 333.72,183.81 " fill="none" id="cannonlake-&gt;1.8" style="stroke: #4A4A86; stroke-width: 1.0; stroke-dasharray: 7.0,7.0;"/><polygon fill="#4A4A86" points="332.24,188.67,338.6677,181.2077,333.6833,183.8828,331.0082,178.8985,332.24,188.67" style="stroke: #4A4A86; stroke-width: 1.0;"/><!--MD5=[7fe60b91c1da7593fd2fb257f3c5ddc4]
link icelake to 2.0--><path d="M482.52,111.01 C469.69,131.83 450.95,162.26 437.33,184.36 " fill="none" id="icelake-&gt;2.0" style="stroke: #4A4A86; stroke-width: 1.0; stroke-dasharray: 7.0,7.0;"/><polygon fill="#4A4A86" points="434.68,188.67,442.8118,183.1136,437.3069,184.4156,436.0048,178.9107,434.68,188.67" style="stroke: #4A4A86; stroke-width: 1.0;"/><!--MD5=[7451302f9f814caedc7d71e0b650e79a]
link tigerlake to 2.5--><path d="M94.4,111.01 C102.66,131.66 114.7,161.75 123.52,183.81 " fill="none" id="tigerlake-&gt;2.5" style="stroke: #4A4A86; stroke-width: 1.0; stroke-dasharray: 7.0,7.0;"/><polygon fill="#4A4A86" points="125.47,188.67,125.8414,178.8281,123.613,184.0276,118.4136,181.7993,125.47,188.67" style="stroke: #4A4A86; stroke-width: 1.0;"/><!--MD5=[42e4d2068c2ec1a03e2050f2c5b3cf82]
@startuml
hidefootbox
skinparam componentStyle uml2

skinparam defaultFontColor	#33335b

skinparam rectangle {
	color		#d6d6de
	backgroundColor	#ffffff
}

skinparam component {
	backgroundColor	#ffffff
	borderColor	#33335b
	arrowColor	#f05772
}

skinparam interface {
	backgroundColor	#ffffff
	borderColor	#f05772
}

skinparam class {
	backgroundColor	#ffffff
	borderColor	#33335b
	arrowColor	#f05772
}
skinparam stereotypeCBackgroundColor	#6fccdd

skinparam sequence {
	arrowColor		#4a4a86
	lifeLineBorderColor	#f05772
	groupBorderColor	#a1a1ca
	boxBorderColor		#a1a1ca
	dividerBorderColor	#d6d6de
	dividerBorderThickness	1
}
skinparam participant {
	borderColor		#33335b
	backgroundColor		#ffffff
}
skinparam actor {
	borderColor		#33335b
	backgroundColor		#ffffff
}

skinparam state {
	borderColor		#33335b
	backgroundColor		#ffffff
}

skinparam node {
	backgroundColor		#ffffff
}

skinparam note {
	backgroundColor 	#f6ed80
	borderColor		#d6d6de
}
package cavs {
   component 2.5
   component 2.0
   component 1.8
   component 1.5
}

package arch {
   component host
   component xtensa
   component xtensa_smp
}

1.5 ..> xtensa_smp
1.8 ..> xtensa_smp
2.0 ..> xtensa_smp
2.5 ..> xtensa_smp

package platform {
   component icelake
   component cannonlake
   component apollolake
   component tigerlake
}

apollolake ..> 1.5
cannonlake ..> 1.8
icelake ..> 2.0
tigerlake ..> 2.5

@enduml

PlantUML version 1.2019.12(Sun Nov 03 18:24:54 CST 2019)
(GPL source distribution)
Java Runtime: Java(TM) SE Runtime Environment
JVM: Java HotSpot(TM) 64-Bit Server VM
Java Version: 1.8.0_321-b07
Operating System: Windows 10
Default Encoding: GBK
Language: zh
Country: CN
--></g></svg>