<?xml version="1.0" encoding="UTF-8" standalone="no"?><svg xmlns="http://www.w3.org/2000/svg" xmlns:xlink="http://www.w3.org/1999/xlink" contentScriptType="application/ecmascript" contentStyleType="text/css" height="391px" preserveAspectRatio="none" style="width:525px;height:391px;" version="1.1" viewBox="0 0 525 391" width="525px" zoomAndPan="magnify"><defs><filter height="300%" id="ftm9swlesgisv" width="300%" x="-1" y="-1"><feGaussianBlur result="blurOut" stdDeviation="2.0"/><feColorMatrix in="blurOut" result="blurOut2" type="matrix" values="0 0 0 0 0 0 0 0 0 0 0 0 0 0 0 0 0 0 .4 0"/><feOffset dx="4.0" dy="4.0" in="blurOut2" result="blurOut3"/><feBlend in="SourceGraphic" in2="blurOut3" mode="normal"/></filter></defs><g><!--MD5=[ff658e621e4d039d232dc2816b4a8497]
cluster component--><polygon fill="#FFFFFF" filter="url(#ftm9swlesgisv)" points="22,24,107,24,114,49.1201,503,49.1201,503,379,22,379,22,24" style="stroke: #000000; stroke-width: 1.5;"/><line style="stroke: #000000; stroke-width: 1.5;" x1="22" x2="114" y1="49.1201" y2="49.1201"/><text fill="#33335B" font-family="sans-serif" font-size="14" font-weight="bold" lengthAdjust="spacingAndGlyphs" textLength="79" x="26" y="42.0439">component</text><!--MD5=[8c61665d9a482ae36487effce834807d]
class comp_driver--><rect fill="#FFFFFF" filter="url(#ftm9swlesgisv)" height="100.0918" id="comp_driver" style="stroke: #33335B; stroke-width: 1.5;" width="107" x="38.5" y="107"/><ellipse cx="56.65" cy="123" fill="#6FCCDD" rx="11" ry="11" style="stroke: #33335B; stroke-width: 1.0;"/><path d="M55.2281,128.3594 Q53.3688,128.3594 52.275,126.9688 Q51.1813,125.5781 51.1813,122.5938 Q51.1813,120.0625 52.3453,118.4063 Q53.5094,116.75 55.4938,116.75 Q56.9625,116.75 57.4313,116.875 Q57.9,117.0781 57.9,117.0781 Q57.9,117.0781 57.9,117.0078 Q57.9,116.9375 58.5094,116.0156 L59.5563,119.6719 L58.2281,120.0781 Q57.7594,118.5313 57.0953,117.8672 Q56.4313,117.2031 55.3688,117.2031 Q54.9781,117.2031 54.2125,118.7344 Q53.4469,120.2656 53.4469,122.5156 Q53.4469,124.9844 54.1109,126.375 Q54.775,127.7656 55.3063,127.7656 Q56.3688,127.7656 57.1266,127 Q57.8844,126.2344 58.2281,124.5781 L59.5563,125.1719 Q59.2281,126.5781 58.3297,127.4688 Q57.4313,128.3594 55.2281,128.3594 Z "/><text fill="#33335B" font-family="sans-serif" font-size="12" lengthAdjust="spacingAndGlyphs" textLength="68" x="71.35" y="128.5576">comp_driver</text><line style="stroke: #33335B; stroke-width: 1.5;" x1="39.5" x2="144.5" y1="139" y2="139"/><text fill="#33335B" font-family="sans-serif" font-size="11" lengthAdjust="spacingAndGlyphs" textLength="68" x="44.5" y="155.606">type : uint32_t</text><text fill="#33335B" font-family="sans-serif" font-size="11" lengthAdjust="spacingAndGlyphs" textLength="61" x="44.5" y="170.6289">uid : uint32_t</text><text fill="#33335B" font-family="sans-serif" font-size="11" lengthAdjust="spacingAndGlyphs" textLength="95" x="44.5" y="185.6519">module_id : uint32_t</text><text fill="#33335B" font-family="sans-serif" font-size="11" lengthAdjust="spacingAndGlyphs" textLength="77" x="44.5" y="200.6748">ops : comp_ops</text><!--MD5=[ca01a630127841bc4a19e8cd9fad1d12]
class comp_ops--><rect fill="#FFFFFF" filter="url(#ftm9swlesgisv)" height="32" id="comp_ops" style="stroke: #33335B; stroke-width: 1.5;" width="91" x="46.5" y="331"/><ellipse cx="61.5" cy="347" fill="#6FCCDD" rx="11" ry="11" style="stroke: #33335B; stroke-width: 1.0;"/><path d="M60.0781,352.3594 Q58.2188,352.3594 57.125,350.9688 Q56.0313,349.5781 56.0313,346.5938 Q56.0313,344.0625 57.1953,342.4063 Q58.3594,340.75 60.3438,340.75 Q61.8125,340.75 62.2813,340.875 Q62.75,341.0781 62.75,341.0781 Q62.75,341.0781 62.75,341.0078 Q62.75,340.9375 63.3594,340.0156 L64.4063,343.6719 L63.0781,344.0781 Q62.6094,342.5313 61.9453,341.8672 Q61.2813,341.2031 60.2188,341.2031 Q59.8281,341.2031 59.0625,342.7344 Q58.2969,344.2656 58.2969,346.5156 Q58.2969,348.9844 58.9609,350.375 Q59.625,351.7656 60.1563,351.7656 Q61.2188,351.7656 61.9766,351 Q62.7344,350.2344 63.0781,348.5781 L64.4063,349.1719 Q64.0781,350.5781 63.1797,351.4688 Q62.2813,352.3594 60.0781,352.3594 Z "/><text fill="#33335B" font-family="sans-serif" font-size="12" lengthAdjust="spacingAndGlyphs" textLength="59" x="75.5" y="352.5576">comp_ops</text><!--MD5=[6b61d24a2f07ef25d3ad4d1e1b703523]
class comp_dev--><rect fill="#FFFFFF" filter="url(#ftm9swlesgisv)" height="190.2295" id="comp_dev" style="stroke: #33335B; stroke-width: 1.5;" width="174" x="313" y="62"/><ellipse cx="367.25" cy="78" fill="#6FCCDD" rx="11" ry="11" style="stroke: #33335B; stroke-width: 1.0;"/><path d="M365.8281,83.3594 Q363.9688,83.3594 362.875,81.9688 Q361.7813,80.5781 361.7813,77.5938 Q361.7813,75.0625 362.9453,73.4063 Q364.1094,71.75 366.0938,71.75 Q367.5625,71.75 368.0313,71.875 Q368.5,72.0781 368.5,72.0781 Q368.5,72.0781 368.5,72.0078 Q368.5,71.9375 369.1094,71.0156 L370.1563,74.6719 L368.8281,75.0781 Q368.3594,73.5313 367.6953,72.8672 Q367.0313,72.2031 365.9688,72.2031 Q365.5781,72.2031 364.8125,73.7344 Q364.0469,75.2656 364.0469,77.5156 Q364.0469,79.9844 364.7109,81.375 Q365.375,82.7656 365.9063,82.7656 Q366.9688,82.7656 367.7266,82 Q368.4844,81.2344 368.8281,79.5781 L370.1563,80.1719 Q369.8281,81.5781 368.9297,82.4688 Q368.0313,83.3594 365.8281,83.3594 Z "/><text fill="#33335B" font-family="sans-serif" font-size="12" lengthAdjust="spacingAndGlyphs" textLength="57" x="387.75" y="83.5576">comp_dev</text><line style="stroke: #33335B; stroke-width: 1.5;" x1="314" x2="486" y1="94" y2="94"/><text fill="#33335B" font-family="sans-serif" font-size="11" lengthAdjust="spacingAndGlyphs" textLength="89" x="319" y="110.606">drv : comp_driver*</text><text fill="#33335B" font-family="sans-serif" font-size="11" lengthAdjust="spacingAndGlyphs" textLength="0" x="322" y="125.6289"/><text fill="#33335B" font-family="sans-serif" font-size="11" font-style="italic" lengthAdjust="spacingAndGlyphs" textLength="129" x="319" y="140.6519">more params goes here ...</text><text fill="#33335B" font-family="sans-serif" font-size="11" lengthAdjust="spacingAndGlyphs" textLength="0" x="322" y="155.6748"/><text fill="#33335B" font-family="sans-serif" font-size="11" lengthAdjust="spacingAndGlyphs" textLength="162" x="319" y="170.6978">params : sof_ipc_stream_params</text><text fill="#33335B" font-family="sans-serif" font-size="11" lengthAdjust="spacingAndGlyphs" textLength="0" x="322" y="185.7207"/><text fill="#33335B" font-family="sans-serif" font-size="11" lengthAdjust="spacingAndGlyphs" textLength="59" x="319" y="200.7437">bsource_list</text><text fill="#33335B" font-family="sans-serif" font-size="11" lengthAdjust="spacingAndGlyphs" textLength="44" x="319" y="215.7666">bsink_list</text><text fill="#33335B" font-family="sans-serif" font-size="11" lengthAdjust="spacingAndGlyphs" textLength="63" x="319" y="230.7896">private: void*</text><text fill="#33335B" font-family="sans-serif" font-size="11" lengthAdjust="spacingAndGlyphs" textLength="103" x="319" y="245.8125">comp : sof_ipc_comp</text><!--MD5=[77eaf3e41c79ea6e09654fb4afa917d1]
link comp_driver to comp_ops--><path d="M92,207.39 C92,245.95 92,297.53 92,325.64 " fill="none" id="comp_driver-&gt;comp_ops" style="stroke: #4A4A86; stroke-width: 1.0;"/><polygon fill="#4A4A86" points="92,330.94,96,321.94,92,325.94,88,321.94,92,330.94" style="stroke: #4A4A86; stroke-width: 1.0;"/><text fill="#33335B" font-family="sans-serif" font-size="13" lengthAdjust="spacingAndGlyphs" textLength="47" x="93" y="297.8979">provides</text><text fill="#33335B" font-family="sans-serif" font-size="13" lengthAdjust="spacingAndGlyphs" textLength="21" x="67.2594" y="320.2228">ops</text><!--MD5=[a5b5e72d9b0d4a48ef290bd53b21d5f1]
link comp_driver to comp_dev--><path d="M145.65,157 C190.31,157 254.92,157 307.85,157 " fill="none" id="comp_driver-&gt;comp_dev" style="stroke: #4A4A86; stroke-width: 1.0;"/><polygon fill="#4A4A86" points="312.93,157,303.93,153,307.93,157,303.93,161,312.93,157" style="stroke: #4A4A86; stroke-width: 1.0;"/><text fill="#33335B" font-family="sans-serif" font-size="13" lengthAdjust="spacingAndGlyphs" textLength="131" x="163.75" y="150.8979">creates in comp_new()</text><!--MD5=[57152cf665d87074ff28eb34f43ebd0f]
@startuml
hidefootbox
skinparam componentStyle uml2

skinparam defaultFontColor	#33335b

skinparam rectangle {
	color		#d6d6de
	backgroundColor	#ffffff
}

skinparam component {
	backgroundColor	#ffffff
	borderColor	#33335b
	arrowColor	#f05772
}

skinparam interface {
	backgroundColor	#ffffff
	borderColor	#f05772
}

skinparam class {
	backgroundColor	#ffffff
	borderColor	#33335b
	arrowColor	#f05772
}
skinparam stereotypeCBackgroundColor	#6fccdd

skinparam sequence {
	arrowColor		#4a4a86
	lifeLineBorderColor	#f05772
	groupBorderColor	#a1a1ca
	boxBorderColor		#a1a1ca
	dividerBorderColor	#d6d6de
	dividerBorderThickness	1
}
skinparam participant {
	borderColor		#33335b
	backgroundColor		#ffffff
}
skinparam actor {
	borderColor		#33335b
	backgroundColor		#ffffff
}

skinparam state {
	borderColor		#33335b
	backgroundColor		#ffffff
}

skinparam node {
	backgroundColor		#ffffff
}

skinparam note {
	backgroundColor 	#f6ed80
	borderColor		#d6d6de
}
package component {

   class comp_driver {
   	type : uint32_t
	uid : uint32_t
   	module_id : uint32_t
   	ops : comp_ops
   }
   hide comp_driver methods

   class comp_ops
   hide comp_ops methods
   hide comp_ops attributes

   class comp_dev {
   	drv : comp_driver*

   	<i>more params goes here ...</i>

   	params : sof_ipc_stream_params

   	bsource_list
   	bsink_list
   	private: void*
   	comp : sof_ipc_comp
   }
   hide comp_dev methods

   comp_driver - -> "ops" comp_ops : provides

   comp_driver -> comp_dev : creates in comp_new()
}

@enduml

PlantUML version 1.2019.12(Sun Nov 03 18:24:54 CST 2019)
(GPL source distribution)
Java Runtime: Java(TM) SE Runtime Environment
JVM: Java HotSpot(TM) 64-Bit Server VM
Java Version: 1.8.0_321-b07
Operating System: Windows 10
Default Encoding: GBK
Language: zh
Country: CN
--></g></svg>