<?xml version="1.0" encoding="UTF-8" standalone="no"?><svg xmlns="http://www.w3.org/2000/svg" xmlns:xlink="http://www.w3.org/1999/xlink" contentScriptType="application/ecmascript" contentStyleType="text/css" height="1357px" preserveAspectRatio="none" style="width:576px;height:1357px;" version="1.1" viewBox="0 0 576 1357" width="576px" zoomAndPan="magnify"><defs><filter height="300%" id="fww4rvxmufq7h" width="300%" x="-1" y="-1"><feGaussianBlur result="blurOut" stdDeviation="2.0"/><feColorMatrix in="blurOut" result="blurOut2" type="matrix" values="0 0 0 0 0 0 0 0 0 0 0 0 0 0 0 0 0 0 .4 0"/><feOffset dx="4.0" dy="4.0" in="blurOut2" result="blurOut3"/><feBlend in="SourceGraphic" in2="blurOut3" mode="normal"/></filter></defs><g><ellipse cx="191" cy="18" fill="#000000" filter="url(#fww4rvxmufq7h)" rx="10" ry="10" style="stroke: none; stroke-width: 1.0;"/><rect fill="#FFFFFF" filter="url(#fww4rvxmufq7h)" height="50" rx="12.5" ry="12.5" style="stroke: #33335B; stroke-width: 1.5;" width="117" x="132.5" y="107"/><line style="stroke: #33335B; stroke-width: 1.5;" x1="132.5" x2="249.5" y1="136.1201" y2="136.1201"/><text fill="#33335B" font-family="sans-serif" font-size="14" lengthAdjust="spacingAndGlyphs" textLength="97" x="142.5" y="128.0439">NewABIChange</text><rect fill="#FFFFFF" filter="url(#fww4rvxmufq7h)" height="50" rx="12.5" ry="12.5" style="stroke: #33335B; stroke-width: 1.5;" width="50" x="7" y="278.5"/><line style="stroke: #33335B; stroke-width: 1.5;" x1="7" x2="57" y1="307.6201" y2="307.6201"/><text fill="#33335B" font-family="sans-serif" font-size="14" lengthAdjust="spacingAndGlyphs" textLength="29" x="17.5" y="299.5439">RFC</text><path d="M92,272 L92,299.5 L57.15,303.5 L92,307.5 L92,335.2632 A0,0 0 0 0 92,335.2632 L298,335.2632 A0,0 0 0 0 298,335.2632 L298,282 L288,272 L92,272 A0,0 0 0 0 92,272 " fill="#F6ED80" filter="url(#fww4rvxmufq7h)" style="stroke: #D6D6DE; stroke-width: 1.0;"/><path d="M288,272 L288,282 L298,282 L288,272 " fill="#F6ED80" style="stroke: #D6D6DE; stroke-width: 1.0;"/><text fill="#33335B" font-family="sans-serif" font-size="13" lengthAdjust="spacingAndGlyphs" textLength="144" x="98" y="291.8979">RFC stage is intended to</text><text fill="#33335B" font-family="sans-serif" font-size="13" lengthAdjust="spacingAndGlyphs" textLength="157" x="98" y="309.6523">avoid wasted effort via early</text><text fill="#33335B" font-family="sans-serif" font-size="13" lengthAdjust="spacingAndGlyphs" textLength="181" x="102" y="327.4067">engagement with the ABI users</text><rect fill="#FFFFFF" filter="url(#fww4rvxmufq7h)" height="50" rx="12.5" ry="12.5" style="stroke: #33335B; stroke-width: 1.5;" width="110" x="6" y="450"/><line style="stroke: #33335B; stroke-width: 1.5;" x1="6" x2="116" y1="479.1201" y2="479.1201"/><text fill="#33335B" font-family="sans-serif" font-size="14" lengthAdjust="spacingAndGlyphs" textLength="90" x="16" y="471.0439">RFCApproved</text><rect fill="#FFFFFF" filter="url(#fww4rvxmufq7h)" height="50" rx="12.5" ry="12.5" style="stroke: #33335B; stroke-width: 1.5;" width="137" x="137.5" y="579"/><line style="stroke: #33335B; stroke-width: 1.5;" x1="137.5" x2="274.5" y1="608.1201" y2="608.1201"/><text fill="#33335B" font-family="sans-serif" font-size="14" lengthAdjust="spacingAndGlyphs" textLength="117" x="147.5" y="600.0439">FWImplementation</text><rect fill="#FFFFFF" filter="url(#fww4rvxmufq7h)" height="50" rx="12.5" ry="12.5" style="stroke: #33335B; stroke-width: 1.5;" width="124" x="144" y="708"/><line style="stroke: #33335B; stroke-width: 1.5;" x1="144" x2="268" y1="737.1201" y2="737.1201"/><text fill="#33335B" font-family="sans-serif" font-size="14" lengthAdjust="spacingAndGlyphs" textLength="104" x="154" y="729.0439">ABIClassification</text><rect fill="#FFFFFF" filter="url(#fww4rvxmufq7h)" height="50" rx="12.5" ry="12.5" style="stroke: #33335B; stroke-width: 1.5;" width="102" x="155" y="855"/><line style="stroke: #33335B; stroke-width: 1.5;" x1="155" x2="257" y1="884.1201" y2="884.1201"/><text fill="#33335B" font-family="sans-serif" font-size="14" lengthAdjust="spacingAndGlyphs" textLength="82" x="165" y="876.0439">ABIApproved</text><rect fill="#FFFFFF" filter="url(#fww4rvxmufq7h)" height="50" rx="12.5" ry="12.5" style="stroke: #33335B; stroke-width: 1.5;" width="117" x="147.5" y="1002"/><line style="stroke: #33335B; stroke-width: 1.5;" x1="147.5" x2="264.5" y1="1031.1201" y2="1031.1201"/><text fill="#33335B" font-family="sans-serif" font-size="14" lengthAdjust="spacingAndGlyphs" textLength="97" x="157.5" y="1023.0439">DriverPRCheck</text><rect fill="#FFFFFF" filter="url(#fww4rvxmufq7h)" height="50" rx="12.5" ry="12.5" style="stroke: #33335B; stroke-width: 1.5;" width="140" x="136" y="1296"/><line style="stroke: #33335B; stroke-width: 1.5;" x1="136" x2="276" y1="1325.1201" y2="1325.1201"/><text fill="#33335B" font-family="sans-serif" font-size="14" lengthAdjust="spacingAndGlyphs" textLength="120" x="146" y="1317.0439">FWChangeMerged</text><rect fill="#FFFFFF" filter="url(#fww4rvxmufq7h)" height="50" rx="12.5" ry="12.5" style="stroke: #33335B; stroke-width: 1.5;" width="140" x="424" y="1149"/><line style="stroke: #33335B; stroke-width: 1.5;" x1="424" x2="564" y1="1178.1201" y2="1178.1201"/><text fill="#33335B" font-family="sans-serif" font-size="14" lengthAdjust="spacingAndGlyphs" textLength="120" x="434" y="1170.0439">DrvChangeMerged</text><!--MD5=[d947f9ee9e8583f0175dac9ab25cc135]
link *start to NewABIChange--><path d="M191,28.17 C191,44.07 191,77.4 191,101.82 " fill="none" id="*start-&gt;NewABIChange" style="stroke: #4A4A86; stroke-width: 1.0;"/><polygon fill="#4A4A86" points="191,106.89,195,97.89,191,101.89,187,97.89,191,106.89" style="stroke: #4A4A86; stroke-width: 1.0;"/><text fill="#33335B" font-family="sans-serif" font-size="13" lengthAdjust="spacingAndGlyphs" textLength="243" x="192" y="73.8979">Firmware feature that requires ABI change</text><!--MD5=[6c0a702b064a08536bd5194c65a5e38e]
link NewABIChange to RFC--><path d="M168.22,157.29 C139.17,188.25 89.05,241.68 58.38,274.38 " fill="none" id="NewABIChange-&gt;RFC" style="stroke: #4A4A86; stroke-width: 1.0;"/><polygon fill="#4A4A86" points="54.74,278.26,63.8056,274.411,58.1521,274.6052,57.9579,268.9517,54.74,278.26" style="stroke: #4A4A86; stroke-width: 1.0;"/><text fill="#33335B" font-family="sans-serif" font-size="13" lengthAdjust="spacingAndGlyphs" textLength="138" x="154" y="202.8979">Send RFC Pull Request</text><text fill="#33335B" font-family="sans-serif" font-size="13" lengthAdjust="spacingAndGlyphs" textLength="153" x="146.5" y="220.6523">covering interface changes</text><text fill="#33335B" font-family="sans-serif" font-size="13" lengthAdjust="spacingAndGlyphs" textLength="160" x="145" y="238.4067">and rationale for the change</text><!--MD5=[d2ef43fa9d27348855ad0d434701d419]
link RFC to RFCApproved--><path d="M36.15,328.79 C41.39,359.37 50.37,411.88 55.98,444.67 " fill="none" id="RFC-&gt;RFCApproved" style="stroke: #4A4A86; stroke-width: 1.0;"/><polygon fill="#4A4A86" points="56.85,449.76,59.2757,440.2145,56.0072,444.8315,51.3901,441.5631,56.85,449.76" style="stroke: #4A4A86; stroke-width: 1.0;"/><text fill="#33335B" font-family="sans-serif" font-size="13" lengthAdjust="spacingAndGlyphs" textLength="152" x="101.5" y="380.8979">a) Approve+1 from at least</text><text fill="#33335B" font-family="sans-serif" font-size="13" lengthAdjust="spacingAndGlyphs" textLength="200" x="77.5" y="398.6523">one Driver and one FW Maintainer,</text><text fill="#33335B" font-family="sans-serif" font-size="13" lengthAdjust="spacingAndGlyphs" textLength="245" x="57" y="416.4067">b) Owners assigned for FW and driver impl</text><!--MD5=[d8266fd3bf4e4888e1b61a678ccf8c9d]
link NewABIChange to FWImplementation--><path d="M249.64,144.47 C273.63,152.3 299.18,165.35 314,187 C400.21,312.9 325.67,377.45 329,530 C329.18,538.44 333.62,541.93 329,549 C317.54,566.55 298.96,578.43 279.68,586.47 " fill="none" id="NewABIChange-&gt;FWImplementation" style="stroke: #4A4A86; stroke-width: 1.0;"/><polygon fill="#4A4A86" points="274.77,588.43,284.6119,588.8014,279.4124,586.573,281.6407,581.3736,274.77,588.43" style="stroke: #4A4A86; stroke-width: 1.0;"/><text fill="#33335B" font-family="sans-serif" font-size="13" lengthAdjust="spacingAndGlyphs" textLength="147" x="353" y="389.8979">Fast path implementation</text><text fill="#33335B" font-family="sans-serif" font-size="13" lengthAdjust="spacingAndGlyphs" textLength="153" x="350" y="407.6523">only when no driver impact</text><!--MD5=[ebe142d97be07bcaa4b8d41406f3d04c]
link RFCApproved to FWImplementation--><path d="M54.46,500.09 C51.77,515.42 51.24,534.95 61,549 C77.38,572.57 105.34,585.88 132.37,593.37 " fill="none" id="RFCApproved-&gt;FWImplementation" style="stroke: #4A4A86; stroke-width: 1.0;"/><polygon fill="#4A4A86" points="137.4,594.71,129.7323,588.5289,132.5684,593.4235,127.6738,596.2596,137.4,594.71" style="stroke: #4A4A86; stroke-width: 1.0;"/><text fill="#33335B" font-family="sans-serif" font-size="13" lengthAdjust="spacingAndGlyphs" textLength="262" x="62" y="545.8979">Implementation done, submit as non-RFC PR</text><!--MD5=[035bb6c3b755ca9cb81c24f4bab9b2a0]
link FWImplementation to ABIClassification--><path d="M206,629.19 C206,650.11 206,680.41 206,702.71 " fill="none" id="FWImplementation-&gt;ABIClassification" style="stroke: #4A4A86; stroke-width: 1.0;"/><polygon fill="#4A4A86" points="206,707.9,210,698.9,206,702.9,202,698.9,206,707.9" style="stroke: #4A4A86; stroke-width: 1.0;"/><text fill="#33335B" font-family="sans-serif" font-size="13" lengthAdjust="spacingAndGlyphs" textLength="141" x="207" y="674.8979">Tag PR for ABI classifier</text><!--MD5=[f5ba36811c9701a18ca721fe6fc0bb7d]
link ABIClassification to ABIApproved--><path d="M206,758.27 C206,783.36 206,822.56 206,849.45 " fill="none" id="ABIClassification-&gt;ABIApproved" style="stroke: #4A4A86; stroke-width: 1.0;"/><polygon fill="#4A4A86" points="206,854.65,210,845.65,206,849.65,202,845.65,206,854.65" style="stroke: #4A4A86; stroke-width: 1.0;"/><text fill="#33335B" font-family="sans-serif" font-size="13" lengthAdjust="spacingAndGlyphs" textLength="152" x="244.5" y="803.8979">TSC member approval and</text><text fill="#33335B" font-family="sans-serif" font-size="13" lengthAdjust="spacingAndGlyphs" textLength="227" x="207" y="821.6523">ABI MAJOR.MINOR classification done</text><!--MD5=[b712fe514747f6d9b3539db6677702b6]
link ABIApproved to DriverPRCheck--><path d="M206,905.27 C206,930.36 206,969.56 206,996.45 " fill="none" id="ABIApproved-&gt;DriverPRCheck" style="stroke: #4A4A86; stroke-width: 1.0;"/><polygon fill="#4A4A86" points="206,1001.65,210,992.65,206,996.65,202,992.65,206,1001.65" style="stroke: #4A4A86; stroke-width: 1.0;"/><text fill="#33335B" font-family="sans-serif" font-size="13" lengthAdjust="spacingAndGlyphs" textLength="150" x="236.5" y="950.8979">If driver change is needed,</text><text fill="#33335B" font-family="sans-serif" font-size="13" lengthAdjust="spacingAndGlyphs" textLength="209" x="207" y="968.6523">wait until both sides ready for merge</text><!--MD5=[77b230be902b254ffa35a5507c24890b]
link DriverPRCheck to FWChangeMerged--><path d="M203.16,1052.06 C200.44,1076.45 196.53,1115.28 195,1149 C192.74,1198.79 198.15,1256.65 202.16,1290.69 " fill="none" id="DriverPRCheck-&gt;FWChangeMerged" style="stroke: #4A4A86; stroke-width: 1.0;"/><polygon fill="#4A4A86" points="202.79,1295.94,205.6796,1286.5246,202.1892,1290.9762,197.7375,1287.4859,202.79,1295.94" style="stroke: #4A4A86; stroke-width: 1.0;"/><text fill="#33335B" font-family="sans-serif" font-size="13" lengthAdjust="spacingAndGlyphs" textLength="100" x="251" y="1171.3979">No driver change:</text><text fill="#33335B" font-family="sans-serif" font-size="13" lengthAdjust="spacingAndGlyphs" textLength="210" x="196" y="1189.1523">After review and validation ok, merge</text><!--MD5=[1f9bc16a16210cf46e79b5b37b6a649e]
link DriverPRCheck to DrvChangeMerged--><path d="M253.88,1052.11 C305.58,1078.14 387.71,1119.49 441.24,1146.44 " fill="none" id="DriverPRCheck-&gt;DrvChangeMerged" style="stroke: #4A4A86; stroke-width: 1.0;"/><polygon fill="#4A4A86" points="446,1148.84,439.7681,1141.2135,441.5365,1146.5868,436.1631,1148.3551,446,1148.84" style="stroke: #4A4A86; stroke-width: 1.0;"/><text fill="#33335B" font-family="sans-serif" font-size="13" lengthAdjust="spacingAndGlyphs" textLength="91" x="397" y="1097.8979">After review and</text><text fill="#33335B" font-family="sans-serif" font-size="13" lengthAdjust="spacingAndGlyphs" textLength="115" x="385" y="1115.6523">validation ok, merge</text><!--MD5=[bb2108a5d5655ec3bf608ccf9e037a4a]
link DrvChangeMerged to FWChangeMerged--><path d="M446.12,1199.11 C394.42,1225.14 312.29,1266.49 258.76,1293.44 " fill="none" id="DrvChangeMerged-&gt;FWChangeMerged" style="stroke: #4A4A86; stroke-width: 1.0;"/><polygon fill="#4A4A86" points="254,1295.84,263.8369,1295.3551,258.4635,1293.5868,260.2319,1288.2135,254,1295.84" style="stroke: #4A4A86; stroke-width: 1.0;"/><text fill="#33335B" font-family="sans-serif" font-size="13" lengthAdjust="spacingAndGlyphs" textLength="91" x="397" y="1244.8979">After review and</text><text fill="#33335B" font-family="sans-serif" font-size="13" lengthAdjust="spacingAndGlyphs" textLength="115" x="385" y="1262.6523">validation ok, merge</text><!--MD5=[31d61404ef1f721f7d67538b9e8e8505]
@startuml
hidefootbox
skinparam componentStyle uml2

skinparam defaultFontColor	#33335b

skinparam rectangle {
	color		#d6d6de
	backgroundColor	#ffffff
}

skinparam component {
	backgroundColor	#ffffff
	borderColor	#33335b
	arrowColor	#f05772
}

skinparam interface {
	backgroundColor	#ffffff
	borderColor	#f05772
}

skinparam class {
	backgroundColor	#ffffff
	borderColor	#33335b
	arrowColor	#f05772
}
skinparam stereotypeCBackgroundColor	#6fccdd

skinparam sequence {
	arrowColor		#4a4a86
	lifeLineBorderColor	#f05772
	groupBorderColor	#a1a1ca
	boxBorderColor		#a1a1ca
	dividerBorderColor	#d6d6de
	dividerBorderThickness	1
}
skinparam participant {
	borderColor		#33335b
	backgroundColor		#ffffff
}
skinparam actor {
	borderColor		#33335b
	backgroundColor		#ffffff
}

skinparam state {
	borderColor		#33335b
	backgroundColor		#ffffff
}

skinparam node {
	backgroundColor		#ffffff
}

skinparam note {
	backgroundColor 	#f6ed80
	borderColor		#d6d6de
}
[*] - -> NewABIChange: Firmware feature that requires ABI change

NewABIChange - -> RFC: Send RFC Pull Request\ncovering interface changes\n and rationale for the change

note right of RFC : RFC stage is intended to\navoid wasted effort via early\n engagement with the ABI users

RFC - -> RFCApproved: a) Approve+1 from at least\none Driver and one FW Maintainer,\n b) Owners assigned for FW and driver impl

NewABIChange - -> FWImplementation: Fast path implementation\nonly when no driver impact

RFCApproved - -> FWImplementation: Implementation done, submit as non-RFC PR

FWImplementation - -> ABIClassification: Tag PR for ABI classifier

ABIClassification - -> ABIApproved: TSC member approval and\nABI MAJOR.MINOR classification done

ABIApproved - -> DriverPRCheck: If driver change is needed,\nwait until both sides ready for merge

DriverPRCheck - -> FWChangeMerged: No driver change:\nAfter review and validation ok, merge

DriverPRCheck - -> DrvChangeMerged: After review and\nvalidation ok, merge

DrvChangeMerged - -> FWChangeMerged: After review and\nvalidation ok, merge

@enduml

PlantUML version 1.2019.12(Sun Nov 03 18:24:54 CST 2019)
(GPL source distribution)
Java Runtime: Java(TM) SE Runtime Environment
JVM: Java HotSpot(TM) 64-Bit Server VM
Java Version: 1.8.0_321-b07
Operating System: Windows 10
Default Encoding: GBK
Language: zh
Country: CN
--></g></svg>