<?xml version="1.0" encoding="UTF-8" standalone="no"?><svg xmlns="http://www.w3.org/2000/svg" xmlns:xlink="http://www.w3.org/1999/xlink" contentScriptType="application/ecmascript" contentStyleType="text/css" height="103px" preserveAspectRatio="none" style="width:156px;height:103px;" version="1.1" viewBox="0 0 156 103" width="156px" zoomAndPan="magnify"><defs><filter height="300%" id="f1rc1y0rrgkgti" width="300%" x="-1" y="-1"><feGaussianBlur result="blurOut" stdDeviation="2.0"/><feColorMatrix in="blurOut" result="blurOut2" type="matrix" values="0 0 0 0 0 0 0 0 0 0 0 0 0 0 0 0 0 0 .4 0"/><feOffset dx="4.0" dy="4.0" in="blurOut2" result="blurOut3"/><feBlend in="SourceGraphic" in2="blurOut3" mode="normal"/></filter></defs><g><!--MD5=[40f124c2b16a7a15b5ae21a3ae831220]
class edf--><rect fill="#FFFFFF" filter="url(#f1rc1y0rrgkgti)" height="85.0688" id="edf" style="stroke: #33335B; stroke-width: 1.5;" width="138" x="7" y="7"/><ellipse cx="22" cy="23" fill="#6FCCDD" rx="11" ry="11" style="stroke: #33335B; stroke-width: 1.0;"/><path d="M20.5781,28.3594 Q18.7188,28.3594 17.625,26.9688 Q16.5313,25.5781 16.5313,22.5938 Q16.5313,20.0625 17.6953,18.4063 Q18.8594,16.75 20.8438,16.75 Q22.3125,16.75 22.7813,16.875 Q23.25,17.0781 23.25,17.0781 Q23.25,17.0781 23.25,17.0078 Q23.25,16.9375 23.8594,16.0156 L24.9063,19.6719 L23.5781,20.0781 Q23.1094,18.5313 22.4453,17.8672 Q21.7813,17.2031 20.7188,17.2031 Q20.3281,17.2031 19.5625,18.7344 Q18.7969,20.2656 18.7969,22.5156 Q18.7969,24.9844 19.4609,26.375 Q20.125,27.7656 20.6563,27.7656 Q21.7188,27.7656 22.4766,27 Q23.2344,26.2344 23.5781,24.5781 L24.9063,25.1719 Q24.5781,26.5781 23.6797,27.4688 Q22.7813,28.3594 20.5781,28.3594 Z "/><text fill="#33335B" font-family="sans-serif" font-size="12" lengthAdjust="spacingAndGlyphs" textLength="106" x="36" y="28.5576">edf_schedule_data</text><line style="stroke: #33335B; stroke-width: 1.5;" x1="8" x2="144" y1="39" y2="39"/><rect fill="none" height="6" style="stroke: #C82930; stroke-width: 1.0;" width="6" x="15" y="47"/><text fill="#33335B" font-family="sans-serif" font-size="11" lengthAdjust="spacingAndGlyphs" textLength="35" x="27" y="55.606">list : list</text><rect fill="none" height="6" style="stroke: #C82930; stroke-width: 1.0;" width="6" x="15" y="62.0229"/><text fill="#33335B" font-family="sans-serif" font-size="11" lengthAdjust="spacingAndGlyphs" textLength="25" x="27" y="70.6289">clock</text><rect fill="none" height="6" style="stroke: #C82930; stroke-width: 1.0;" width="6" x="15" y="77.0459"/><text fill="#33335B" font-family="sans-serif" font-size="11" lengthAdjust="spacingAndGlyphs" textLength="12" x="27" y="85.6519">irq</text><!--MD5=[86e4eb436b7f184693cc6d73bb9f3540]
@startuml
hidefootbox
skinparam componentStyle uml2

skinparam defaultFontColor	#33335b

skinparam rectangle {
	color		#d6d6de
	backgroundColor	#ffffff
}

skinparam component {
	backgroundColor	#ffffff
	borderColor	#33335b
	arrowColor	#f05772
}

skinparam interface {
	backgroundColor	#ffffff
	borderColor	#f05772
}

skinparam class {
	backgroundColor	#ffffff
	borderColor	#33335b
	arrowColor	#f05772
}
skinparam stereotypeCBackgroundColor	#6fccdd

skinparam sequence {
	arrowColor		#4a4a86
	lifeLineBorderColor	#f05772
	groupBorderColor	#a1a1ca
	boxBorderColor		#a1a1ca
	dividerBorderColor	#d6d6de
	dividerBorderThickness	1
}
skinparam participant {
	borderColor		#33335b
	backgroundColor		#ffffff
}
skinparam actor {
	borderColor		#33335b
	backgroundColor		#ffffff
}

skinparam state {
	borderColor		#33335b
	backgroundColor		#ffffff
}

skinparam node {
	backgroundColor		#ffffff
}

skinparam note {
	backgroundColor 	#f6ed80
	borderColor		#d6d6de
}
class "edf_schedule_data" as edf {
   - list : list
   - clock
   - irq
}
hide edf methods

@enduml

PlantUML version 1.2019.12(Sun Nov 03 18:24:54 CST 2019)
(GPL source distribution)
Java Runtime: Java(TM) SE Runtime Environment
JVM: Java HotSpot(TM) 64-Bit Server VM
Java Version: 1.8.0_321-b07
Operating System: Windows 10
Default Encoding: GBK
Language: zh
Country: CN
--></g></svg>