<?xml version="1.0" encoding="UTF-8" standalone="no"?><svg xmlns="http://www.w3.org/2000/svg" xmlns:xlink="http://www.w3.org/1999/xlink" contentScriptType="application/ecmascript" contentStyleType="text/css" height="1166px" preserveAspectRatio="none" style="width:480px;height:1166px;" version="1.1" viewBox="0 0 480 1166" width="480px" zoomAndPan="magnify"><defs><filter height="300%" id="f1h86rtcw6zm2b" width="300%" x="-1" y="-1"><feGaussianBlur result="blurOut" stdDeviation="2.0"/><feColorMatrix in="blurOut" result="blurOut2" type="matrix" values="0 0 0 0 0 0 0 0 0 0 0 0 0 0 0 0 0 0 .4 0"/><feOffset dx="4.0" dy="4.0" in="blurOut2" result="blurOut3"/><feBlend in="SourceGraphic" in2="blurOut3" mode="normal"/></filter></defs><g><text fill="#33335B" font-family="sans-serif" font-size="18" lengthAdjust="spacingAndGlyphs" textLength="128" x="179.5" y="20.6279">image build flow</text><!--MD5=[9e0a7e62d5f2161e5902d10e50a2a44a]
class bootloader_elf_file--><rect fill="#FFFFFF" filter="url(#f1h86rtcw6zm2b)" height="74.0459" id="bootloader_elf_file" style="stroke: #33335B; stroke-width: 1.5;" width="161" x="59.5" y="32.583"/><ellipse cx="86.65" cy="48.583" fill="#DA70D6" rx="11" ry="11" style="stroke: #33335B; stroke-width: 1.0;"/><path d="M87.2438,53.4111 L87.2438,53.8174 L83.0563,53.8174 L83.0563,53.4111 L83.5094,53.4111 Q83.8531,53.4111 83.9859,53.2783 Q84.1188,53.1455 84.1188,52.8799 L84.1188,43.3955 Q84.1188,43.1299 83.9859,42.9971 Q83.8531,42.8643 83.5094,42.8643 L83.1188,42.8643 L83.1188,42.458 L91.025,42.458 L91.8219,44.8486 L90.6656,45.3486 Q89.9625,43.9268 89.2281,43.3955 Q88.4938,42.8643 87.6344,42.8643 L85.775,42.8643 Q85.775,42.8643 85.9078,42.9971 Q86.0406,43.1299 86.0406,43.3955 L86.0406,47.6455 L87.3688,47.6455 Q88.025,47.6455 88.3297,47.3408 Q88.6344,47.0361 88.6344,46.3799 L88.6344,46.0518 L90.025,46.0518 L90.025,49.8955 L88.6344,49.8955 L88.6344,49.6299 Q88.6344,48.833 88.3297,48.4346 Q88.025,48.0361 87.3688,48.0361 L86.1813,48.0361 L86.1813,52.8799 Q86.1813,53.1455 86.3453,53.2783 Q86.5094,53.4111 86.5094,53.4111 L87.2438,53.4111 Z "/><text fill="#33335B" font-family="sans-serif" font-size="12" lengthAdjust="spacingAndGlyphs" textLength="102" x="103.35" y="54.1406">bootloader_elf_file</text><line style="stroke: #33335B; stroke-width: 1.5;" x1="60.5" x2="219.5" y1="64.583" y2="64.583"/><text fill="#33335B" font-family="sans-serif" font-size="11" lengthAdjust="spacingAndGlyphs" textLength="149" x="65.5" y="100.2119">Used for CAVS 1.5 and newer</text><line style="stroke: #33335B; stroke-width: 1.0;" x1="60.5" x2="129.5" y1="80.0945" y2="80.0945"/><text fill="#33335B" font-family="sans-serif" font-size="11" lengthAdjust="spacingAndGlyphs" textLength="21" x="129.5" y="84.689">note</text><line style="stroke: #33335B; stroke-width: 1.0;" x1="150.5" x2="219.5" y1="80.0945" y2="80.0945"/><!--MD5=[5c970644e5b7143556414cadba97c378]
class firmware_elf_file--><rect fill="#FFFFFF" filter="url(#f1h86rtcw6zm2b)" height="48" id="firmware_elf_file" style="stroke: #33335B; stroke-width: 1.5;" width="123" x="255.5" y="45.583"/><ellipse cx="270.5" cy="61.583" fill="#DA70D6" rx="11" ry="11" style="stroke: #33335B; stroke-width: 1.0;"/><path d="M271.0938,66.4111 L271.0938,66.8174 L266.9063,66.8174 L266.9063,66.4111 L267.3594,66.4111 Q267.7031,66.4111 267.8359,66.2783 Q267.9688,66.1455 267.9688,65.8799 L267.9688,56.3955 Q267.9688,56.1299 267.8359,55.9971 Q267.7031,55.8643 267.3594,55.8643 L266.9688,55.8643 L266.9688,55.458 L274.875,55.458 L275.6719,57.8486 L274.5156,58.3486 Q273.8125,56.9268 273.0781,56.3955 Q272.3438,55.8643 271.4844,55.8643 L269.625,55.8643 Q269.625,55.8643 269.7578,55.9971 Q269.8906,56.1299 269.8906,56.3955 L269.8906,60.6455 L271.2188,60.6455 Q271.875,60.6455 272.1797,60.3408 Q272.4844,60.0361 272.4844,59.3799 L272.4844,59.0518 L273.875,59.0518 L273.875,62.8955 L272.4844,62.8955 L272.4844,62.6299 Q272.4844,61.833 272.1797,61.4346 Q271.875,61.0361 271.2188,61.0361 L270.0313,61.0361 L270.0313,65.8799 Q270.0313,66.1455 270.1953,66.2783 Q270.3594,66.4111 270.3594,66.4111 L271.0938,66.4111 Z "/><text fill="#33335B" font-family="sans-serif" font-size="12" lengthAdjust="spacingAndGlyphs" textLength="91" x="284.5" y="67.1406">firmware_elf_file</text><line style="stroke: #33335B; stroke-width: 1.5;" x1="256.5" x2="377.5" y1="77.583" y2="77.583"/><line style="stroke: #33335B; stroke-width: 1.5;" x1="256.5" x2="377.5" y1="85.583" y2="85.583"/><!--MD5=[759b83eeaa614abeac43c954de736d9c]
class rimage--><rect fill="#FFFFFF" filter="url(#f1h86rtcw6zm2b)" height="93.0688" id="rimage" style="stroke: #33335B; stroke-width: 1.5;" width="135" x="160.5" y="167.583"/><ellipse cx="204.3" cy="183.583" fill="#6FCCDD" rx="11" ry="11" style="stroke: #33335B; stroke-width: 1.0;"/><path d="M202.8781,188.9424 Q201.0188,188.9424 199.925,187.5518 Q198.8313,186.1611 198.8313,183.1768 Q198.8313,180.6455 199.9953,178.9893 Q201.1594,177.333 203.1438,177.333 Q204.6125,177.333 205.0813,177.458 Q205.55,177.6611 205.55,177.6611 Q205.55,177.6611 205.55,177.5908 Q205.55,177.5205 206.1594,176.5986 L207.2063,180.2549 L205.8781,180.6611 Q205.4094,179.1143 204.7453,178.4502 Q204.0813,177.7861 203.0188,177.7861 Q202.6281,177.7861 201.8625,179.3174 Q201.0969,180.8486 201.0969,183.0986 Q201.0969,185.5674 201.7609,186.958 Q202.425,188.3486 202.9563,188.3486 Q204.0188,188.3486 204.7766,187.583 Q205.5344,186.8174 205.8781,185.1611 L207.2063,185.7549 Q206.8781,187.1611 205.9797,188.0518 Q205.0813,188.9424 202.8781,188.9424 Z "/><text fill="#33335B" font-family="sans-serif" font-size="12" lengthAdjust="spacingAndGlyphs" textLength="39" x="224.7" y="189.1406">rimage</text><line style="stroke: #33335B; stroke-width: 1.5;" x1="161.5" x2="294.5" y1="199.583" y2="199.583"/><line style="stroke: #33335B; stroke-width: 1.5;" x1="161.5" x2="294.5" y1="207.583" y2="207.583"/><ellipse cx="171.5" cy="218.583" fill="#84BE84" rx="3" ry="3" style="stroke: #038048; stroke-width: 1.0;"/><text fill="#33335B" font-family="sans-serif" font-size="11" lengthAdjust="spacingAndGlyphs" textLength="83" x="180.5" y="224.189">write_firmware()</text><ellipse cx="171.5" cy="233.606" fill="#84BE84" rx="3" ry="3" style="stroke: #038048; stroke-width: 1.0;"/><text fill="#33335B" font-family="sans-serif" font-size="11" lengthAdjust="spacingAndGlyphs" textLength="109" x="180.5" y="239.2119">write_firmware_meu()</text><ellipse cx="171.5" cy="248.6289" fill="#84BE84" rx="3" ry="3" style="stroke: #038048; stroke-width: 1.0;"/><text fill="#33335B" font-family="sans-serif" font-size="11" lengthAdjust="spacingAndGlyphs" textLength="80" x="180.5" y="254.2349">ext_man_write()</text><!--MD5=[2b8f868b3e7ef29862ca687d258a0faa]
class adsp_manifest_file--><rect fill="#FFFFFF" filter="url(#f1h86rtcw6zm2b)" height="63.0229" id="adsp_manifest_file" style="stroke: #33335B; stroke-width: 1.5;" width="138" x="6" y="491.583"/><ellipse cx="21" cy="507.583" fill="#DA70D6" rx="11" ry="11" style="stroke: #33335B; stroke-width: 1.0;"/><path d="M21.5938,512.4111 L21.5938,512.8174 L17.4063,512.8174 L17.4063,512.4111 L17.8594,512.4111 Q18.2031,512.4111 18.3359,512.2783 Q18.4688,512.1455 18.4688,511.8799 L18.4688,502.3955 Q18.4688,502.1299 18.3359,501.9971 Q18.2031,501.8643 17.8594,501.8643 L17.4688,501.8643 L17.4688,501.458 L25.375,501.458 L26.1719,503.8486 L25.0156,504.3486 Q24.3125,502.9268 23.5781,502.3955 Q22.8438,501.8643 21.9844,501.8643 L20.125,501.8643 Q20.125,501.8643 20.2578,501.9971 Q20.3906,502.1299 20.3906,502.3955 L20.3906,506.6455 L21.7188,506.6455 Q22.375,506.6455 22.6797,506.3408 Q22.9844,506.0361 22.9844,505.3799 L22.9844,505.0518 L24.375,505.0518 L24.375,508.8955 L22.9844,508.8955 L22.9844,508.6299 Q22.9844,507.833 22.6797,507.4346 Q22.375,507.0361 21.7188,507.0361 L20.5313,507.0361 L20.5313,511.8799 Q20.5313,512.1455 20.6953,512.2783 Q20.8594,512.4111 20.8594,512.4111 L21.5938,512.4111 Z "/><text fill="#33335B" font-family="sans-serif" font-size="12" lengthAdjust="spacingAndGlyphs" textLength="106" x="35" y="513.1406">adsp_manifest_file</text><line style="stroke: #33335B; stroke-width: 1.5;" x1="7" x2="143" y1="523.583" y2="523.583"/><text fill="#33335B" font-family="sans-serif" font-size="11" lengthAdjust="spacingAndGlyphs" textLength="63" x="12" y="540.189">suffix: .ri.met</text><line style="stroke: #33335B; stroke-width: 1.5;" x1="7" x2="143" y1="546.606" y2="546.606"/><!--MD5=[448a08719e7bd68494804755628afe01]
class image_file--><rect fill="#FFFFFF" filter="url(#f1h86rtcw6zm2b)" height="134.1377" id="image_file" style="stroke: #33335B; stroke-width: 1.5;" width="98" x="202" y="693.583"/><ellipse cx="220.6" cy="709.583" fill="#DA70D6" rx="11" ry="11" style="stroke: #33335B; stroke-width: 1.0;"/><path d="M221.1938,714.4111 L221.1938,714.8174 L217.0063,714.8174 L217.0063,714.4111 L217.4594,714.4111 Q217.8031,714.4111 217.9359,714.2783 Q218.0688,714.1455 218.0688,713.8799 L218.0688,704.3955 Q218.0688,704.1299 217.9359,703.9971 Q217.8031,703.8643 217.4594,703.8643 L217.0688,703.8643 L217.0688,703.458 L224.975,703.458 L225.7719,705.8486 L224.6156,706.3486 Q223.9125,704.9268 223.1781,704.3955 Q222.4438,703.8643 221.5844,703.8643 L219.725,703.8643 Q219.725,703.8643 219.8578,703.9971 Q219.9906,704.1299 219.9906,704.3955 L219.9906,708.6455 L221.3188,708.6455 Q221.975,708.6455 222.2797,708.3408 Q222.5844,708.0361 222.5844,707.3799 L222.5844,707.0518 L223.975,707.0518 L223.975,710.8955 L222.5844,710.8955 L222.5844,710.6299 Q222.5844,709.833 222.2797,709.4346 Q221.975,709.0361 221.3188,709.0361 L220.1313,709.0361 L220.1313,713.8799 Q220.1313,714.1455 220.2953,714.2783 Q220.4594,714.4111 220.4594,714.4111 L221.1938,714.4111 Z "/><text fill="#33335B" font-family="sans-serif" font-size="12" lengthAdjust="spacingAndGlyphs" textLength="58" x="235.4" y="715.1406">image_file</text><line style="stroke: #33335B; stroke-width: 1.5;" x1="203" x2="299" y1="725.583" y2="725.583"/><text fill="#33335B" font-family="sans-serif" font-size="11" lengthAdjust="spacingAndGlyphs" textLength="43" x="208" y="742.189">suffix: .ri</text><ellipse cx="213" cy="770.6289" fill="none" rx="3" ry="3" style="stroke: #038048; stroke-width: 1.0;"/><text fill="#33335B" font-family="sans-serif" font-size="11" lengthAdjust="spacingAndGlyphs" textLength="64" x="222" y="776.2349">CSE manifest</text><ellipse cx="213" cy="785.6519" fill="none" rx="3" ry="3" style="stroke: #038048; stroke-width: 1.0;"/><text fill="#33335B" font-family="sans-serif" font-size="11" lengthAdjust="spacingAndGlyphs" textLength="65" x="222" y="791.2578">CSS manifest</text><ellipse cx="213" cy="800.6748" fill="none" rx="3" ry="3" style="stroke: #038048; stroke-width: 1.0;"/><text fill="#33335B" font-family="sans-serif" font-size="11" lengthAdjust="spacingAndGlyphs" textLength="72" x="222" y="806.2808">ADSP manifest</text><ellipse cx="213" cy="815.6978" fill="none" rx="3" ry="3" style="stroke: #038048; stroke-width: 1.0;"/><text fill="#33335B" font-family="sans-serif" font-size="11" lengthAdjust="spacingAndGlyphs" textLength="62" x="222" y="821.3037">runtime code</text><line style="stroke: #33335B; stroke-width: 1.0;" x1="203" x2="232.5" y1="756.1174" y2="756.1174"/><text fill="#33335B" font-family="sans-serif" font-size="11" lengthAdjust="spacingAndGlyphs" textLength="37" x="232.5" y="760.7119">Content</text><line style="stroke: #33335B; stroke-width: 1.0;" x1="269.5" x2="299" y1="756.1174" y2="756.1174"/><!--MD5=[4e768ebb13fcf4c654a352fc010d5e54]
class unsigned_image_file--><rect fill="#FFFFFF" filter="url(#f1h86rtcw6zm2b)" height="104.0918" id="unsigned_image_file" style="stroke: #33335B; stroke-width: 1.5;" width="149" x="237.5" y="357.583"/><ellipse cx="252.5" cy="373.583" fill="#DA70D6" rx="11" ry="11" style="stroke: #33335B; stroke-width: 1.0;"/><path d="M253.0938,378.4111 L253.0938,378.8174 L248.9063,378.8174 L248.9063,378.4111 L249.3594,378.4111 Q249.7031,378.4111 249.8359,378.2783 Q249.9688,378.1455 249.9688,377.8799 L249.9688,368.3955 Q249.9688,368.1299 249.8359,367.9971 Q249.7031,367.8643 249.3594,367.8643 L248.9688,367.8643 L248.9688,367.458 L256.875,367.458 L257.6719,369.8486 L256.5156,370.3486 Q255.8125,368.9268 255.0781,368.3955 Q254.3438,367.8643 253.4844,367.8643 L251.625,367.8643 Q251.625,367.8643 251.7578,367.9971 Q251.8906,368.1299 251.8906,368.3955 L251.8906,372.6455 L253.2188,372.6455 Q253.875,372.6455 254.1797,372.3408 Q254.4844,372.0361 254.4844,371.3799 L254.4844,371.0518 L255.875,371.0518 L255.875,374.8955 L254.4844,374.8955 L254.4844,374.6299 Q254.4844,373.833 254.1797,373.4346 Q253.875,373.0361 253.2188,373.0361 L252.0313,373.0361 L252.0313,377.8799 Q252.0313,378.1455 252.1953,378.2783 Q252.3594,378.4111 252.3594,378.4111 L253.0938,378.4111 Z "/><text fill="#33335B" font-family="sans-serif" font-size="12" lengthAdjust="spacingAndGlyphs" textLength="117" x="266.5" y="379.1406">unsigned_image_file</text><line style="stroke: #33335B; stroke-width: 1.5;" x1="238.5" x2="385.5" y1="389.583" y2="389.583"/><text fill="#33335B" font-family="sans-serif" font-size="11" lengthAdjust="spacingAndGlyphs" textLength="64" x="243.5" y="406.189">suffix: .ri.uns</text><ellipse cx="248.5" cy="434.6289" fill="none" rx="3" ry="3" style="stroke: #038048; stroke-width: 1.0;"/><text fill="#33335B" font-family="sans-serif" font-size="11" lengthAdjust="spacingAndGlyphs" textLength="72" x="257.5" y="440.2349">ADSP manifest</text><ellipse cx="248.5" cy="449.6519" fill="none" rx="3" ry="3" style="stroke: #038048; stroke-width: 1.0;"/><text fill="#33335B" font-family="sans-serif" font-size="11" lengthAdjust="spacingAndGlyphs" textLength="62" x="257.5" y="455.2578">runtime code</text><line style="stroke: #33335B; stroke-width: 1.0;" x1="238.5" x2="293.5" y1="420.1174" y2="420.1174"/><text fill="#33335B" font-family="sans-serif" font-size="11" lengthAdjust="spacingAndGlyphs" textLength="37" x="293.5" y="424.7119">Content</text><line style="stroke: #33335B; stroke-width: 1.0;" x1="330.5" x2="385.5" y1="420.1174" y2="420.1174"/><!--MD5=[d9fc180130ed2022e7c2981ad5d1b604]
class ext_man_file--><rect fill="#FFFFFF" filter="url(#f1h86rtcw6zm2b)" height="63.0229" id="ext_man_file" style="stroke: #33335B; stroke-width: 1.5;" width="102" x="367" y="491.583"/><ellipse cx="382" cy="507.583" fill="#DA70D6" rx="11" ry="11" style="stroke: #33335B; stroke-width: 1.0;"/><path d="M382.5938,512.4111 L382.5938,512.8174 L378.4063,512.8174 L378.4063,512.4111 L378.8594,512.4111 Q379.2031,512.4111 379.3359,512.2783 Q379.4688,512.1455 379.4688,511.8799 L379.4688,502.3955 Q379.4688,502.1299 379.3359,501.9971 Q379.2031,501.8643 378.8594,501.8643 L378.4688,501.8643 L378.4688,501.458 L386.375,501.458 L387.1719,503.8486 L386.0156,504.3486 Q385.3125,502.9268 384.5781,502.3955 Q383.8438,501.8643 382.9844,501.8643 L381.125,501.8643 Q381.125,501.8643 381.2578,501.9971 Q381.3906,502.1299 381.3906,502.3955 L381.3906,506.6455 L382.7188,506.6455 Q383.375,506.6455 383.6797,506.3408 Q383.9844,506.0361 383.9844,505.3799 L383.9844,505.0518 L385.375,505.0518 L385.375,508.8955 L383.9844,508.8955 L383.9844,508.6299 Q383.9844,507.833 383.6797,507.4346 Q383.375,507.0361 382.7188,507.0361 L381.5313,507.0361 L381.5313,511.8799 Q381.5313,512.1455 381.6953,512.2783 Q381.8594,512.4111 381.8594,512.4111 L382.5938,512.4111 Z "/><text fill="#33335B" font-family="sans-serif" font-size="12" lengthAdjust="spacingAndGlyphs" textLength="70" x="396" y="513.1406">ext_man_file</text><line style="stroke: #33335B; stroke-width: 1.5;" x1="368" x2="468" y1="523.583" y2="523.583"/><text fill="#33335B" font-family="sans-serif" font-size="11" lengthAdjust="spacingAndGlyphs" textLength="72" x="373" y="540.189">suffix: .ri.xman</text><line style="stroke: #33335B; stroke-width: 1.5;" x1="368" x2="468" y1="546.606" y2="546.606"/><!--MD5=[feadd63be3ba81d0be5f2cf6da2328b0]
class build_step--><rect fill="#FFFFFF" filter="url(#f1h86rtcw6zm2b)" height="57.4116" id="build_step" style="stroke: #33335B; stroke-width: 1.5;" width="110" x="278" y="888.583"/><text fill="#33335B" font-family="sans-serif" font-size="12" lengthAdjust="spacingAndGlyphs" textLength="58" x="304" y="907.335">build_step</text><line style="stroke: #33335B; stroke-width: 1.5;" x1="279" x2="387" y1="914.9717" y2="914.9717"/><line style="stroke: #33335B; stroke-width: 1.5;" x1="279" x2="387" y1="922.9717" y2="922.9717"/><ellipse cx="289" cy="933.9717" fill="#84BE84" rx="3" ry="3" style="stroke: #038048; stroke-width: 1.0;"/><text fill="#33335B" font-family="sans-serif" font-size="11" lengthAdjust="spacingAndGlyphs" textLength="84" x="298" y="939.5776">glue binary files()</text><!--MD5=[61f913ddb0380a8b7cb2e0b8ec9032aa]
class final_image_file--><rect fill="#FFFFFF" filter="url(#f1h86rtcw6zm2b)" height="149.1606" id="final_image_file" style="stroke: #33335B; stroke-width: 1.5;" width="120" x="273" y="1006.583"/><ellipse cx="288" cy="1022.583" fill="#DA70D6" rx="11" ry="11" style="stroke: #33335B; stroke-width: 1.0;"/><path d="M288.5938,1027.4111 L288.5938,1027.8174 L284.4063,1027.8174 L284.4063,1027.4111 L284.8594,1027.4111 Q285.2031,1027.4111 285.3359,1027.2783 Q285.4688,1027.1455 285.4688,1026.8799 L285.4688,1017.3955 Q285.4688,1017.1299 285.3359,1016.9971 Q285.2031,1016.8643 284.8594,1016.8643 L284.4688,1016.8643 L284.4688,1016.458 L292.375,1016.458 L293.1719,1018.8486 L292.0156,1019.3486 Q291.3125,1017.9268 290.5781,1017.3955 Q289.8438,1016.8643 288.9844,1016.8643 L287.125,1016.8643 Q287.125,1016.8643 287.2578,1016.9971 Q287.3906,1017.1299 287.3906,1017.3955 L287.3906,1021.6455 L288.7188,1021.6455 Q289.375,1021.6455 289.6797,1021.3408 Q289.9844,1021.0361 289.9844,1020.3799 L289.9844,1020.0518 L291.375,1020.0518 L291.375,1023.8955 L289.9844,1023.8955 L289.9844,1023.6299 Q289.9844,1022.833 289.6797,1022.4346 Q289.375,1022.0361 288.7188,1022.0361 L287.5313,1022.0361 L287.5313,1026.8799 Q287.5313,1027.1455 287.6953,1027.2783 Q287.8594,1027.4111 287.8594,1027.4111 L288.5938,1027.4111 Z "/><text fill="#33335B" font-family="sans-serif" font-size="12" lengthAdjust="spacingAndGlyphs" textLength="88" x="302" y="1028.1406">final_image_file</text><line style="stroke: #33335B; stroke-width: 1.5;" x1="274" x2="392" y1="1038.583" y2="1038.583"/><text fill="#33335B" font-family="sans-serif" font-size="11" lengthAdjust="spacingAndGlyphs" textLength="43" x="279" y="1055.189">suffix: .ri</text><ellipse cx="284" cy="1083.6289" fill="none" rx="3" ry="3" style="stroke: #038048; stroke-width: 1.0;"/><text fill="#33335B" font-family="sans-serif" font-size="11" lengthAdjust="spacingAndGlyphs" textLength="89" x="293" y="1089.2349">Extended manifest</text><ellipse cx="284" cy="1098.6519" fill="none" rx="3" ry="3" style="stroke: #038048; stroke-width: 1.0;"/><text fill="#33335B" font-family="sans-serif" font-size="11" lengthAdjust="spacingAndGlyphs" textLength="64" x="293" y="1104.2578">CSE manifest</text><ellipse cx="284" cy="1113.6748" fill="none" rx="3" ry="3" style="stroke: #038048; stroke-width: 1.0;"/><text fill="#33335B" font-family="sans-serif" font-size="11" lengthAdjust="spacingAndGlyphs" textLength="65" x="293" y="1119.2808">CSS manifest</text><ellipse cx="284" cy="1128.6978" fill="none" rx="3" ry="3" style="stroke: #038048; stroke-width: 1.0;"/><text fill="#33335B" font-family="sans-serif" font-size="11" lengthAdjust="spacingAndGlyphs" textLength="72" x="293" y="1134.3037">ADSP manifest</text><ellipse cx="284" cy="1143.7207" fill="none" rx="3" ry="3" style="stroke: #038048; stroke-width: 1.0;"/><text fill="#33335B" font-family="sans-serif" font-size="11" lengthAdjust="spacingAndGlyphs" textLength="62" x="293" y="1149.3267">runtime code</text><line style="stroke: #33335B; stroke-width: 1.0;" x1="274" x2="314.5" y1="1069.1174" y2="1069.1174"/><text fill="#33335B" font-family="sans-serif" font-size="11" lengthAdjust="spacingAndGlyphs" textLength="37" x="314.5" y="1073.7119">Content</text><line style="stroke: #33335B; stroke-width: 1.0;" x1="351.5" x2="392" y1="1069.1174" y2="1069.1174"/><!--MD5=[dfdf12dbb17e691a01e1d6356fac9a6e]
class MEU--><rect fill="#FFFFFF" filter="url(#f1h86rtcw6zm2b)" height="48" id="MEU" style="stroke: #33335B; stroke-width: 1.5;" width="58" x="261" y="584.583"/><ellipse cx="276" cy="600.583" fill="#6FCCDD" rx="11" ry="11" style="stroke: #33335B; stroke-width: 1.0;"/><path d="M274.5781,605.9424 Q272.7188,605.9424 271.625,604.5518 Q270.5313,603.1611 270.5313,600.1768 Q270.5313,597.6455 271.6953,595.9893 Q272.8594,594.333 274.8438,594.333 Q276.3125,594.333 276.7813,594.458 Q277.25,594.6611 277.25,594.6611 Q277.25,594.6611 277.25,594.5908 Q277.25,594.5205 277.8594,593.5986 L278.9063,597.2549 L277.5781,597.6611 Q277.1094,596.1143 276.4453,595.4502 Q275.7813,594.7861 274.7188,594.7861 Q274.3281,594.7861 273.5625,596.3174 Q272.7969,597.8486 272.7969,600.0986 Q272.7969,602.5674 273.4609,603.958 Q274.125,605.3486 274.6563,605.3486 Q275.7188,605.3486 276.4766,604.583 Q277.2344,603.8174 277.5781,602.1611 L278.9063,602.7549 Q278.5781,604.1611 277.6797,605.0518 Q276.7813,605.9424 274.5781,605.9424 Z "/><text fill="#33335B" font-family="sans-serif" font-size="12" lengthAdjust="spacingAndGlyphs" textLength="26" x="290" y="606.1406">MEU</text><line style="stroke: #33335B; stroke-width: 1.5;" x1="262" x2="318" y1="616.583" y2="616.583"/><line style="stroke: #33335B; stroke-width: 1.5;" x1="262" x2="318" y1="624.583" y2="624.583"/><!--MD5=[9f164c5e8a206d118f532443bb44e19a]
link firmware_elf_file to rimage--><path d="M302.5,93.793 C290.82,112.503 273.97,139.483 259.24,163.053 " fill="none" id="firmware_elf_file-&gt;rimage" style="stroke: #4A4A86; stroke-width: 1.0;"/><polygon fill="#4A4A86" points="256.52,167.413,264.682,161.901,259.17,163.173,257.898,157.661,256.52,167.413" style="stroke: #4A4A86; stroke-width: 1.0;"/><!--MD5=[8aa184c494ca7b091c4423651a8a00a1]
link bootloader_elf_file to rimage--><path d="M162.43,106.913 C172.9,123.863 185.53,144.323 196.91,162.733 " fill="none" id="bootloader_elf_file-&gt;rimage" style="stroke: #4A4A86; stroke-width: 1.0;"/><polygon fill="#4A4A86" points="199.77,167.363,198.4452,157.6037,197.1431,163.1086,191.6382,161.8066,199.77,167.363" style="stroke: #4A4A86; stroke-width: 1.0;"/><!--MD5=[e121641ecc5db650c1585999a253913c]
link rimage to ext_man_file--><path d="M295.64,235.293 C325.34,247.173 358.5,265.013 381,290.583 C428.96,345.093 428.05,436.033 423.09,486.173 " fill="none" id="rimage-&gt;ext_man_file" style="stroke: #4A4A86; stroke-width: 1.0;"/><polygon fill="#4A4A86" points="422.56,491.193,427.4649,482.6524,423.0745,486.2195,419.5073,481.8292,422.56,491.193" style="stroke: #4A4A86; stroke-width: 1.0;"/><text fill="#33335B" font-family="sans-serif" font-size="13" lengthAdjust="spacingAndGlyphs" textLength="62" x="403" y="315.481">with -e flag</text><!--MD5=[3d74be91c6596303381cfe4bdfe57612]
link ext_man_file to build_step--><path d="M411.33,554.843 C395.6,627.373 356.31,808.583 340.13,883.193 " fill="none" id="ext_man_file-&gt;build_step" style="stroke: #4A4A86; stroke-width: 1.0;"/><polygon fill="#4A4A86" points="339.01,888.373,344.8229,880.4225,340.0674,883.4861,337.0038,878.7306,339.01,888.373" style="stroke: #4A4A86; stroke-width: 1.0;"/><!--MD5=[0ecfa9a817a07359882269f7d48069ca]
link rimage to adsp_manifest_file--><path d="M180.4,260.623 C172.21,270.003 164.31,280.193 158,290.583 C119.18,354.483 94.63,439.293 82.99,486.493 " fill="none" id="rimage-&gt;adsp_manifest_file" style="stroke: #4A4A86; stroke-width: 1.0;"/><polygon fill="#4A4A86" points="81.77,491.503,87.7903,483.7084,82.9558,486.6456,80.0185,481.8111,81.77,491.503" style="stroke: #4A4A86; stroke-width: 1.0;"/><!--MD5=[d5d5fa582c6141b6399fc3197b6a9e93]
link rimage to image_file--><path d="M211.77,260.773 C190.69,326.073 158.66,449.783 177,554.583 C185.05,600.603 202.55,649.923 218.51,688.653 " fill="none" id="rimage-&gt;image_file" style="stroke: #4A4A86; stroke-width: 1.0;"/><polygon fill="#4A4A86" points="220.45,693.323,220.6959,683.4772,218.534,688.7047,213.3066,686.5428,220.45,693.323" style="stroke: #4A4A86; stroke-width: 1.0;"/><text fill="#33335B" font-family="sans-serif" font-size="13" lengthAdjust="spacingAndGlyphs" textLength="74" x="198" y="520.481">without MEU</text><text fill="#33335B" font-family="sans-serif" font-size="13" lengthAdjust="spacingAndGlyphs" textLength="114" x="178" y="538.2354">without -s argument</text><!--MD5=[96676d2f6fc44b6ee7a5006f490c58bd]
link rimage to unsigned_image_file--><path d="M247.91,260.943 C259.83,288.413 275.08,323.543 287.72,352.643 " fill="none" id="rimage-&gt;unsigned_image_file" style="stroke: #4A4A86; stroke-width: 1.0;"/><polygon fill="#4A4A86" points="289.72,357.263,289.8255,347.4147,287.7384,352.6725,282.4806,350.5853,289.72,357.263" style="stroke: #4A4A86; stroke-width: 1.0;"/><text fill="#33335B" font-family="sans-serif" font-size="13" lengthAdjust="spacingAndGlyphs" textLength="56" x="294" y="306.481">with MEU</text><text fill="#33335B" font-family="sans-serif" font-size="13" lengthAdjust="spacingAndGlyphs" textLength="96" x="276" y="324.2354">with -s argument</text><!--MD5=[3f98dffc21ba7ca92fb0a8f4891208ec]
link unsigned_image_file to MEU--><path d="M309.69,461.733 C308.05,489.333 305.33,523.923 301,554.583 C299.85,562.753 298.19,571.553 296.51,579.583 " fill="none" id="unsigned_image_file-&gt;MEU" style="stroke: #4A4A86; stroke-width: 1.0;"/><polygon fill="#4A4A86" points="295.47,584.473,301.2606,576.5063,296.5137,579.5832,293.4369,574.8363,295.47,584.473" style="stroke: #4A4A86; stroke-width: 1.0;"/><!--MD5=[a247dd4ef82881fe4b21a9db735565e5]
link MEU to image_file--><path d="M283.99,632.693 C280.08,647.753 274.73,668.293 269.49,688.463 " fill="none" id="MEU-&gt;image_file" style="stroke: #4A4A86; stroke-width: 1.0;"/><polygon fill="#4A4A86" points="268.23,693.303,274.3686,685.6012,269.4898,688.4643,266.6266,683.5855,268.23,693.303" style="stroke: #4A4A86; stroke-width: 1.0;"/><!--MD5=[bab3313d51e292a29d933f0a6fae518f]
link adsp_manifest_file to image_file--><path d="M90.58,554.773 C105.99,583.933 131.11,628.443 158,663.583 C170.09,679.383 184.51,695.363 198.35,709.643 " fill="none" id="adsp_manifest_file-&gt;image_file" style="stroke: #4A4A86; stroke-width: 1.0;"/><polygon fill="#4A4A86" points="201.85,713.233,198.4264,703.9984,198.3577,709.6548,192.7012,709.5861,201.85,713.233" style="stroke: #4A4A86; stroke-width: 1.0;"/><!--MD5=[641eaf0602c64cdd821f1fc86092ecd5]
link image_file to build_step--><path d="M286.25,828.003 C296.57,847.443 307.38,867.813 316,884.063 " fill="none" id="image_file-&gt;build_step" style="stroke: #4A4A86; stroke-width: 1.0;"/><polygon fill="#4A4A86" points="318.38,888.533,317.6939,878.7081,316.036,884.1165,310.6275,882.4585,318.38,888.533" style="stroke: #4A4A86; stroke-width: 1.0;"/><!--MD5=[03f02b53c00fd529b0c3ec70fe53a131]
link build_step to final_image_file--><path d="M333,945.933 C333,961.363 333,981.393 333,1001.253 " fill="none" id="build_step-&gt;final_image_file" style="stroke: #4A4A86; stroke-width: 1.0;"/><polygon fill="#4A4A86" points="333,1006.303,337,997.303,333,1001.303,329,997.303,333,1006.303" style="stroke: #4A4A86; stroke-width: 1.0;"/><!--MD5=[b9459537b6a97f9a8aff318434873cd0]
@startuml
hidefootbox
skinparam componentStyle uml2

skinparam defaultFontColor	#33335b

skinparam rectangle {
	color		#d6d6de
	backgroundColor	#ffffff
}

skinparam component {
	backgroundColor	#ffffff
	borderColor	#33335b
	arrowColor	#f05772
}

skinparam interface {
	backgroundColor	#ffffff
	borderColor	#f05772
}

skinparam class {
	backgroundColor	#ffffff
	borderColor	#33335b
	arrowColor	#f05772
}
skinparam stereotypeCBackgroundColor	#6fccdd

skinparam sequence {
	arrowColor		#4a4a86
	lifeLineBorderColor	#f05772
	groupBorderColor	#a1a1ca
	boxBorderColor		#a1a1ca
	dividerBorderColor	#d6d6de
	dividerBorderThickness	1
}
skinparam participant {
	borderColor		#33335b
	backgroundColor		#ffffff
}
skinparam actor {
	borderColor		#33335b
	backgroundColor		#ffffff
}

skinparam state {
	borderColor		#33335b
	backgroundColor		#ffffff
}

skinparam node {
	backgroundColor		#ffffff
}

skinparam note {
	backgroundColor 	#f6ed80
	borderColor		#d6d6de
}

title image build flow

class bootloader_elf_file << (F, orchid) >> {
  - - note - -
  Used for CAVS 1.5 and newer
}
class firmware_elf_file << (F, orchid) >> {
}

class rimage {
   +write_firmware()
   +write_firmware_meu()
   +ext_man_write()
}

class adsp_manifest_file << (F, orchid) >> {
   suffix: .ri.met
}

class image_file << (F, orchid) >> {
   suffix: .ri
   - - Content - -
   +CSE manifest
   +CSS manifest
   +ADSP manifest
   +runtime code
}

class unsigned_image_file << (F, orchid) >> {
   suffix: .ri.uns
  - - Content - -
   +ADSP manifest
   +runtime code
}

class ext_man_file << (F, orchid) >> {
   suffix: .ri.xman
}

class build_step {
   + glue binary files()
}
hide build_step circle

class final_image_file << (F, orchid) >> {
   suffix: .ri
   - - Content - -
   +Extended manifest
   +CSE manifest
   +CSS manifest
   +ADSP manifest
   +runtime code
}

firmware_elf_file -down-> rimage
bootloader_elf_file -down-> rimage
rimage -down-> ext_man_file : with -e flag
ext_man_file -down-> build_step
rimage -down-> adsp_manifest_file
rimage -down-> image_file : without MEU\nwithout -s argument
rimage -down-> unsigned_image_file : with MEU \nwith -s argument
unsigned_image_file -down-> MEU
MEU -down-> image_file
adsp_manifest_file -down-> image_file
image_file -down-> build_step
build_step -down-> final_image_file

@enduml

PlantUML version 1.2019.12(Sun Nov 03 18:24:54 CST 2019)
(GPL source distribution)
Java Runtime: Java(TM) SE Runtime Environment
JVM: Java HotSpot(TM) 64-Bit Server VM
Java Version: 1.8.0_321-b07
Operating System: Windows 10
Default Encoding: GBK
Language: zh
Country: CN
--></g></svg>