<?xml version="1.0" encoding="UTF-8" standalone="no"?><svg xmlns="http://www.w3.org/2000/svg" xmlns:xlink="http://www.w3.org/1999/xlink" contentScriptType="application/ecmascript" contentStyleType="text/css" height="516px" preserveAspectRatio="none" style="width:162px;height:516px;" version="1.1" viewBox="0 0 162 516" width="162px" zoomAndPan="magnify"><defs><filter height="300%" id="f17yrc0t8dwoqn" width="300%" x="-1" y="-1"><feGaussianBlur result="blurOut" stdDeviation="2.0"/><feColorMatrix in="blurOut" result="blurOut2" type="matrix" values="0 0 0 0 0 0 0 0 0 0 0 0 0 0 0 0 0 0 .4 0"/><feOffset dx="4.0" dy="4.0" in="blurOut2" result="blurOut3"/><feBlend in="SourceGraphic" in2="blurOut3" mode="normal"/></filter></defs><g><!--MD5=[5174bcca1b4ebfd73c4eb390d7997b86]
class lsd--><rect fill="#FFFFFF" filter="url(#f17yrc0t8dwoqn)" height="100.0918" id="lsd" style="stroke: #33335B; stroke-width: 1.5;" width="127" x="15" y="8"/><ellipse cx="30" cy="24" fill="#6FCCDD" rx="11" ry="11" style="stroke: #33335B; stroke-width: 1.0;"/><path d="M28.5781,29.3594 Q26.7188,29.3594 25.625,27.9688 Q24.5313,26.5781 24.5313,23.5938 Q24.5313,21.0625 25.6953,19.4063 Q26.8594,17.75 28.8438,17.75 Q30.3125,17.75 30.7813,17.875 Q31.25,18.0781 31.25,18.0781 Q31.25,18.0781 31.25,18.0078 Q31.25,17.9375 31.8594,17.0156 L32.9063,20.6719 L31.5781,21.0781 Q31.1094,19.5313 30.4453,18.8672 Q29.7813,18.2031 28.7188,18.2031 Q28.3281,18.2031 27.5625,19.7344 Q26.7969,21.2656 26.7969,23.5156 Q26.7969,25.9844 27.4609,27.375 Q28.125,28.7656 28.6563,28.7656 Q29.7188,28.7656 30.4766,28 Q31.2344,27.2344 31.5781,25.5781 L32.9063,26.1719 Q32.5781,27.5781 31.6797,28.4688 Q30.7813,29.3594 28.5781,29.3594 Z "/><text fill="#33335B" font-family="sans-serif" font-size="12" lengthAdjust="spacingAndGlyphs" textLength="95" x="44" y="29.5576">ll_schedule_data</text><line style="stroke: #33335B; stroke-width: 1.5;" x1="16" x2="141" y1="40" y2="40"/><rect fill="none" height="6" style="stroke: #C82930; stroke-width: 1.0;" width="6" x="23" y="48"/><text fill="#33335B" font-family="sans-serif" font-size="11" lengthAdjust="spacingAndGlyphs" textLength="48" x="35" y="56.606">tasks : list</text><rect fill="none" height="6" style="stroke: #C82930; stroke-width: 1.0;" width="6" x="23" y="63.0229"/><text fill="#33335B" font-family="sans-serif" font-size="11" lengthAdjust="spacingAndGlyphs" textLength="52" x="35" y="71.6289">num_tasks</text><rect fill="none" height="6" style="stroke: #C82930; stroke-width: 1.0;" width="6" x="23" y="78.0459"/><text fill="#33335B" font-family="sans-serif" font-size="11" lengthAdjust="spacingAndGlyphs" textLength="18" x="35" y="86.6519">pcd</text><rect fill="none" height="6" style="stroke: #C82930; stroke-width: 1.0;" width="6" x="23" y="93.0688"/><text fill="#33335B" font-family="sans-serif" font-size="11" lengthAdjust="spacingAndGlyphs" textLength="34" x="35" y="101.6748">domain</text><!--MD5=[f88fbe2a60644cdf1f58f90e11b0acf5]
class lsdom--><rect fill="#FFFFFF" filter="url(#f17yrc0t8dwoqn)" height="318.4131" id="lsdom" style="stroke: #33335B; stroke-width: 1.5;" width="145" x="6" y="187"/><ellipse cx="21" cy="203" fill="#6FCCDD" rx="11" ry="11" style="stroke: #33335B; stroke-width: 1.0;"/><path d="M19.5781,208.3594 Q17.7188,208.3594 16.625,206.9688 Q15.5313,205.5781 15.5313,202.5938 Q15.5313,200.0625 16.6953,198.4063 Q17.8594,196.75 19.8438,196.75 Q21.3125,196.75 21.7813,196.875 Q22.25,197.0781 22.25,197.0781 Q22.25,197.0781 22.25,197.0078 Q22.25,196.9375 22.8594,196.0156 L23.9063,199.6719 L22.5781,200.0781 Q22.1094,198.5313 21.4453,197.8672 Q20.7813,197.2031 19.7188,197.2031 Q19.3281,197.2031 18.5625,198.7344 Q17.7969,200.2656 17.7969,202.5156 Q17.7969,204.9844 18.4609,206.375 Q19.125,207.7656 19.6563,207.7656 Q20.7188,207.7656 21.4766,207 Q22.2344,206.2344 22.5781,204.5781 L23.9063,205.1719 Q23.5781,206.5781 22.6797,207.4688 Q21.7813,208.3594 19.5781,208.3594 Z "/><text fill="#33335B" font-family="sans-serif" font-size="12" lengthAdjust="spacingAndGlyphs" textLength="113" x="35" y="208.5576">ll_schedule_domain</text><line style="stroke: #33335B; stroke-width: 1.5;" x1="7" x2="150" y1="219" y2="219"/><rect fill="none" height="6" style="stroke: #C82930; stroke-width: 1.0;" width="6" x="14" y="227"/><text fill="#33335B" font-family="sans-serif" font-size="11" lengthAdjust="spacingAndGlyphs" textLength="39" x="26" y="235.606">last_tick</text><rect fill="none" height="6" style="stroke: #C82930; stroke-width: 1.0;" width="6" x="14" y="242.0229"/><text fill="#33335B" font-family="sans-serif" font-size="11" lengthAdjust="spacingAndGlyphs" textLength="19" x="26" y="250.6289">lock</text><rect fill="none" height="6" style="stroke: #C82930; stroke-width: 1.0;" width="6" x="14" y="257.0459"/><text fill="#33335B" font-family="sans-serif" font-size="11" lengthAdjust="spacingAndGlyphs" textLength="78" x="26" y="265.6519">total_num_tasks</text><rect fill="none" height="6" style="stroke: #C82930; stroke-width: 1.0;" width="6" x="14" y="272.0688"/><text fill="#33335B" font-family="sans-serif" font-size="11" lengthAdjust="spacingAndGlyphs" textLength="57" x="26" y="280.6748">num_clients</text><rect fill="none" height="6" style="stroke: #C82930; stroke-width: 1.0;" width="6" x="14" y="287.0918"/><text fill="#33335B" font-family="sans-serif" font-size="11" lengthAdjust="spacingAndGlyphs" textLength="64" x="26" y="295.6978">ticks_per_ms</text><rect fill="none" height="6" style="stroke: #C82930; stroke-width: 1.0;" width="6" x="14" y="302.1147"/><text fill="#33335B" font-family="sans-serif" font-size="11" lengthAdjust="spacingAndGlyphs" textLength="21" x="26" y="310.7207">type</text><rect fill="none" height="6" style="stroke: #C82930; stroke-width: 1.0;" width="6" x="14" y="317.1377"/><text fill="#33335B" font-family="sans-serif" font-size="11" lengthAdjust="spacingAndGlyphs" textLength="13" x="26" y="325.7437">clk</text><rect fill="none" height="6" style="stroke: #C82930; stroke-width: 1.0;" width="6" x="14" y="332.1606"/><text fill="#33335B" font-family="sans-serif" font-size="11" lengthAdjust="spacingAndGlyphs" textLength="64" x="26" y="340.7666">synchronous</text><rect fill="none" height="6" style="stroke: #C82930; stroke-width: 1.0;" width="6" x="14" y="347.1836"/><text fill="#33335B" font-family="sans-serif" font-size="11" lengthAdjust="spacingAndGlyphs" textLength="45" x="26" y="355.7896">priv_data</text><rect fill="none" height="6" style="stroke: #C82930; stroke-width: 1.0;" width="6" x="14" y="362.2065"/><text fill="#33335B" font-family="sans-serif" font-size="11" lengthAdjust="spacingAndGlyphs" textLength="84" x="26" y="370.8125">registered : array</text><rect fill="none" height="6" style="stroke: #C82930; stroke-width: 1.0;" width="6" x="14" y="377.2295"/><text fill="#33335B" font-family="sans-serif" font-size="11" lengthAdjust="spacingAndGlyphs" textLength="73" x="26" y="385.8354">enabled : array</text><line style="stroke: #33335B; stroke-width: 1.5;" x1="7" x2="150" y1="392.2524" y2="392.2524"/><ellipse cx="17" cy="403.2524" fill="#84BE84" rx="3" ry="3" style="stroke: #038048; stroke-width: 1.0;"/><text fill="#33335B" font-family="sans-serif" font-size="11" lengthAdjust="spacingAndGlyphs" textLength="85" x="26" y="408.8584">domain_register()</text><ellipse cx="17" cy="418.2754" fill="#84BE84" rx="3" ry="3" style="stroke: #038048; stroke-width: 1.0;"/><text fill="#33335B" font-family="sans-serif" font-size="11" lengthAdjust="spacingAndGlyphs" textLength="97" x="26" y="423.8813">domain_unregister()</text><ellipse cx="17" cy="433.2983" fill="#84BE84" rx="3" ry="3" style="stroke: #038048; stroke-width: 1.0;"/><text fill="#33335B" font-family="sans-serif" font-size="11" lengthAdjust="spacingAndGlyphs" textLength="80" x="26" y="438.9043">domain_enable()</text><ellipse cx="17" cy="448.3213" fill="#84BE84" rx="3" ry="3" style="stroke: #038048; stroke-width: 1.0;"/><text fill="#33335B" font-family="sans-serif" font-size="11" lengthAdjust="spacingAndGlyphs" textLength="82" x="26" y="453.9272">domain_disable()</text><ellipse cx="17" cy="463.3442" fill="#84BE84" rx="3" ry="3" style="stroke: #038048; stroke-width: 1.0;"/><text fill="#33335B" font-family="sans-serif" font-size="11" lengthAdjust="spacingAndGlyphs" textLength="63" x="26" y="468.9502">domain_set()</text><ellipse cx="17" cy="478.3672" fill="#84BE84" rx="3" ry="3" style="stroke: #038048; stroke-width: 1.0;"/><text fill="#33335B" font-family="sans-serif" font-size="11" lengthAdjust="spacingAndGlyphs" textLength="72" x="26" y="483.9731">domain_clear()</text><ellipse cx="17" cy="493.3901" fill="#84BE84" rx="3" ry="3" style="stroke: #038048; stroke-width: 1.0;"/><text fill="#33335B" font-family="sans-serif" font-size="11" lengthAdjust="spacingAndGlyphs" textLength="100" x="26" y="498.9961">domain_is_pending()</text><!--MD5=[f33f936c6d8667e964f510f4938e47b6]
reverse link lsd to lsdom--><path d="M78.5,121.24 C78.5,140.87 78.5,163.52 78.5,186.71 " fill="none" id="lsd&lt;-lsdom" style="stroke: #4A4A86; stroke-width: 1.0;"/><polygon fill="#4A4A86" points="78.5,108.17,74.5,114.17,78.5,120.17,82.5,114.17,78.5,108.17" style="stroke: #4A4A86; stroke-width: 1.0;"/><text fill="#33335B" font-family="sans-serif" font-size="13" lengthAdjust="spacingAndGlyphs" textLength="49" x="79.5" y="153.8979">contains</text><!--MD5=[5030b5bbab9aacfed830775e5a27d754]
@startuml
hidefootbox
skinparam componentStyle uml2

skinparam defaultFontColor	#33335b

skinparam rectangle {
	color		#d6d6de
	backgroundColor	#ffffff
}

skinparam component {
	backgroundColor	#ffffff
	borderColor	#33335b
	arrowColor	#f05772
}

skinparam interface {
	backgroundColor	#ffffff
	borderColor	#f05772
}

skinparam class {
	backgroundColor	#ffffff
	borderColor	#33335b
	arrowColor	#f05772
}
skinparam stereotypeCBackgroundColor	#6fccdd

skinparam sequence {
	arrowColor		#4a4a86
	lifeLineBorderColor	#f05772
	groupBorderColor	#a1a1ca
	boxBorderColor		#a1a1ca
	dividerBorderColor	#d6d6de
	dividerBorderThickness	1
}
skinparam participant {
	borderColor		#33335b
	backgroundColor		#ffffff
}
skinparam actor {
	borderColor		#33335b
	backgroundColor		#ffffff
}

skinparam state {
	borderColor		#33335b
	backgroundColor		#ffffff
}

skinparam node {
	backgroundColor		#ffffff
}

skinparam note {
	backgroundColor 	#f6ed80
	borderColor		#d6d6de
}
class "ll_schedule_data" as lsd {
   - tasks : list
   - num_tasks
   - pcd
   - domain
}
hide lsd methods

class "ll_schedule_domain" as lsdom {
   - last_tick
   - lock
   - total_num_tasks
   - num_clients
   - ticks_per_ms
   - type
   - clk
   - synchronous
   - priv_data
   - registered : array
   - enabled : array
   + domain_register()
   + domain_unregister()
   + domain_enable()
   + domain_disable()
   + domain_set()
   + domain_clear()
   + domain_is_pending()
}

lsd *- - lsdom : contains

@enduml

PlantUML version 1.2019.12(Sun Nov 03 18:24:54 CST 2019)
(GPL source distribution)
Java Runtime: Java(TM) SE Runtime Environment
JVM: Java HotSpot(TM) 64-Bit Server VM
Java Version: 1.8.0_321-b07
Operating System: Windows 10
Default Encoding: GBK
Language: zh
Country: CN
--></g></svg>