<?xml version="1.0" encoding="UTF-8" standalone="no"?><svg xmlns="http://www.w3.org/2000/svg" xmlns:xlink="http://www.w3.org/1999/xlink" contentScriptType="application/ecmascript" contentStyleType="text/css" height="893px" preserveAspectRatio="none" style="width:655px;height:893px;" version="1.1" viewBox="0 0 655 893" width="655px" zoomAndPan="magnify"><defs><filter height="300%" id="fso2oqbd3lavm" width="300%" x="-1" y="-1"><feGaussianBlur result="blurOut" stdDeviation="2.0"/><feColorMatrix in="blurOut" result="blurOut2" type="matrix" values="0 0 0 0 0 0 0 0 0 0 0 0 0 0 0 0 0 0 .4 0"/><feOffset dx="4.0" dy="4.0" in="blurOut2" result="blurOut3"/><feBlend in="SourceGraphic" in2="blurOut3" mode="normal"/></filter></defs><g><rect fill="#FFFFFF" filter="url(#fso2oqbd3lavm)" height="122.2632" style="stroke: #F05772; stroke-width: 1.0;" width="10" x="188" y="74.8745"/><rect fill="#FFFFFF" filter="url(#fso2oqbd3lavm)" height="166.0176" style="stroke: #F05772; stroke-width: 1.0;" width="10" x="188" y="228.8921"/><rect fill="#FFFFFF" filter="url(#fso2oqbd3lavm)" height="87.5088" style="stroke: #F05772; stroke-width: 1.0;" width="10" x="193" y="268.6465"/><rect fill="#FFFFFF" filter="url(#fso2oqbd3lavm)" height="300.2808" style="stroke: #F05772; stroke-width: 1.0;" width="10" x="188" y="562.9272"/><rect fill="#FFFFFF" filter="url(#fso2oqbd3lavm)" height="87.5088" style="stroke: #F05772; stroke-width: 1.0;" width="10" x="193" y="602.6816"/><rect fill="#FFFFFF" filter="url(#fso2oqbd3lavm)" height="90.5088" style="stroke: #F05772; stroke-width: 1.0;" width="10" x="401" y="440.6641"/><rect fill="#FFFFFF" filter="url(#fso2oqbd3lavm)" height="261.5264" style="stroke: #F05772; stroke-width: 1.0;" width="10" x="401" y="562.9272"/><rect fill="#FFFFFF" filter="url(#fso2oqbd3lavm)" height="87.5088" style="stroke: #F05772; stroke-width: 1.0;" width="10" x="406" y="736.9448"/><line style="stroke: #F05772; stroke-width: 1.0; stroke-dasharray: 5.0,5.0;" x1="26" x2="26" y1="41.1201" y2="881.208"/><line style="stroke: #F05772; stroke-width: 1.0; stroke-dasharray: 5.0,5.0;" x1="193" x2="193" y1="41.1201" y2="881.208"/><line style="stroke: #F05772; stroke-width: 1.0; stroke-dasharray: 5.0,5.0;" x1="406" x2="406" y1="41.1201" y2="881.208"/><line style="stroke: #F05772; stroke-width: 1.0; stroke-dasharray: 5.0,5.0;" x1="619" x2="619" y1="41.1201" y2="881.208"/><rect fill="#FFFFFF" filter="url(#fso2oqbd3lavm)" height="33.1201" style="stroke: #33335B; stroke-width: 1.5;" width="32" x="8" y="3"/><text fill="#33335B" font-family="sans-serif" font-size="14" lengthAdjust="spacingAndGlyphs" textLength="18" x="15" y="26.0439">ipc</text><rect fill="#FFFFFF" filter="url(#fso2oqbd3lavm)" height="33.1201" style="stroke: #33335B; stroke-width: 1.5;" width="54" x="164" y="3"/><text fill="#33335B" font-family="sans-serif" font-size="14" lengthAdjust="spacingAndGlyphs" textLength="40" x="171" y="26.0439">core 0</text><rect fill="#FFFFFF" filter="url(#fso2oqbd3lavm)" height="33.1201" style="stroke: #33335B; stroke-width: 1.5;" width="54" x="377" y="3"/><text fill="#33335B" font-family="sans-serif" font-size="14" lengthAdjust="spacingAndGlyphs" textLength="40" x="384" y="26.0439">core 1</text><rect fill="#FFFFFF" filter="url(#fso2oqbd3lavm)" height="33.1201" style="stroke: #33335B; stroke-width: 1.5;" width="54" x="590" y="3"/><text fill="#33335B" font-family="sans-serif" font-size="14" lengthAdjust="spacingAndGlyphs" textLength="40" x="597" y="26.0439">wallclk</text><rect fill="#FFFFFF" filter="url(#fso2oqbd3lavm)" height="122.2632" style="stroke: #F05772; stroke-width: 1.0;" width="10" x="188" y="74.8745"/><rect fill="#FFFFFF" filter="url(#fso2oqbd3lavm)" height="166.0176" style="stroke: #F05772; stroke-width: 1.0;" width="10" x="188" y="228.8921"/><rect fill="#FFFFFF" filter="url(#fso2oqbd3lavm)" height="87.5088" style="stroke: #F05772; stroke-width: 1.0;" width="10" x="193" y="268.6465"/><rect fill="#FFFFFF" filter="url(#fso2oqbd3lavm)" height="300.2808" style="stroke: #F05772; stroke-width: 1.0;" width="10" x="188" y="562.9272"/><rect fill="#FFFFFF" filter="url(#fso2oqbd3lavm)" height="87.5088" style="stroke: #F05772; stroke-width: 1.0;" width="10" x="193" y="602.6816"/><rect fill="#FFFFFF" filter="url(#fso2oqbd3lavm)" height="90.5088" style="stroke: #F05772; stroke-width: 1.0;" width="10" x="401" y="440.6641"/><rect fill="#FFFFFF" filter="url(#fso2oqbd3lavm)" height="261.5264" style="stroke: #F05772; stroke-width: 1.0;" width="10" x="401" y="562.9272"/><rect fill="#FFFFFF" filter="url(#fso2oqbd3lavm)" height="87.5088" style="stroke: #F05772; stroke-width: 1.0;" width="10" x="406" y="736.9448"/><polygon fill="#4A4A86" points="176,70.8745,186,74.8745,176,78.8745,180,74.8745" style="stroke: #4A4A86; stroke-width: 1.0;"/><line style="stroke: #4A4A86; stroke-width: 1.0;" x1="26" x2="182" y1="74.8745" y2="74.8745"/><text fill="#33335B" font-family="sans-serif" font-size="13" lengthAdjust="spacingAndGlyphs" textLength="143" x="33" y="70.0181">new pipeline 0 (@core 0)</text><polygon fill="#4A4A86" points="607,102.6289,617,106.6289,607,110.6289,611,106.6289" style="stroke: #4A4A86; stroke-width: 1.0;"/><line style="stroke: #4A4A86; stroke-width: 1.0;" x1="198" x2="613" y1="106.6289" y2="106.6289"/><text fill="#33335B" font-family="sans-serif" font-size="13" lengthAdjust="spacingAndGlyphs" textLength="87" x="205" y="101.7725">timer_register()</text><line style="stroke: #4A4A86; stroke-width: 1.0;" x1="198" x2="240" y1="138.3833" y2="138.3833"/><line style="stroke: #4A4A86; stroke-width: 1.0;" x1="240" x2="240" y1="138.3833" y2="151.3833"/><line style="stroke: #4A4A86; stroke-width: 1.0;" x1="199" x2="240" y1="151.3833" y2="151.3833"/><polygon fill="#4A4A86" points="209,147.3833,199,151.3833,209,155.3833,205,151.3833" style="stroke: #4A4A86; stroke-width: 1.0;"/><text fill="#33335B" font-family="sans-serif" font-size="13" lengthAdjust="spacingAndGlyphs" textLength="184" x="205" y="133.5269">work_schedule(ppl 0 dai, +1ms)</text><polygon fill="#4A4A86" points="607,179.1377,617,183.1377,607,187.1377,611,183.1377" style="stroke: #4A4A86; stroke-width: 1.0;"/><line style="stroke: #4A4A86; stroke-width: 1.0;" x1="198" x2="613" y1="183.1377" y2="183.1377"/><text fill="#33335B" font-family="sans-serif" font-size="13" lengthAdjust="spacingAndGlyphs" textLength="180" x="205" y="178.2813">work_set_timer(period = +1ms)</text><polygon fill="#4A4A86" points="37,193.1377,27,197.1377,37,201.1377,33,197.1377" style="stroke: #4A4A86; stroke-width: 1.0;"/><line style="stroke: #4A4A86; stroke-width: 1.0; stroke-dasharray: 2.0,2.0;" x1="31" x2="192" y1="197.1377" y2="197.1377"/><polygon fill="#4A4A86" points="209,224.8921,199,228.8921,209,232.8921,205,228.8921" style="stroke: #4A4A86; stroke-width: 1.0;"/><line style="stroke: #4A4A86; stroke-width: 1.0;" x1="203" x2="618" y1="228.8921" y2="228.8921"/><text fill="#33335B" font-family="sans-serif" font-size="13" lengthAdjust="spacingAndGlyphs" textLength="90" x="215" y="224.0356">cb() @ next ms</text><line style="stroke: #4A4A86; stroke-width: 1.0;" x1="198" x2="245" y1="255.6465" y2="255.6465"/><line style="stroke: #4A4A86; stroke-width: 1.0;" x1="245" x2="245" y1="255.6465" y2="268.6465"/><line style="stroke: #4A4A86; stroke-width: 1.0;" x1="204" x2="245" y1="268.6465" y2="268.6465"/><polygon fill="#4A4A86" points="214,264.6465,204,268.6465,214,272.6465,210,268.6465" style="stroke: #4A4A86; stroke-width: 1.0;"/><text fill="#33335B" font-family="sans-serif" font-size="13" lengthAdjust="spacingAndGlyphs" textLength="75" x="210" y="250.79">ppl 0 dai cb()</text><line style="stroke: #4A4A86; stroke-width: 1.0;" x1="203" x2="245" y1="305.4009" y2="305.4009"/><line style="stroke: #4A4A86; stroke-width: 1.0;" x1="245" x2="245" y1="305.4009" y2="318.4009"/><line style="stroke: #4A4A86; stroke-width: 1.0;" x1="204" x2="245" y1="318.4009" y2="318.4009"/><polygon fill="#4A4A86" points="214,314.4009,204,318.4009,214,322.4009,210,318.4009" style="stroke: #4A4A86; stroke-width: 1.0;"/><text fill="#33335B" font-family="sans-serif" font-size="13" lengthAdjust="spacingAndGlyphs" textLength="60" x="210" y="300.5444">ppl 0 copy</text><line style="stroke: #4A4A86; stroke-width: 1.0;" x1="203" x2="245" y1="355.1553" y2="355.1553"/><line style="stroke: #4A4A86; stroke-width: 1.0;" x1="245" x2="245" y1="355.1553" y2="368.1553"/><line style="stroke: #4A4A86; stroke-width: 1.0;" x1="198" x2="245" y1="368.1553" y2="368.1553"/><polygon fill="#4A4A86" points="208,364.1553,198,368.1553,208,372.1553,204,368.1553" style="stroke: #4A4A86; stroke-width: 1.0;"/><text fill="#33335B" font-family="sans-serif" font-size="13" lengthAdjust="spacingAndGlyphs" textLength="184" x="210" y="350.2988">work_schedule(ppl 0 dai, +1ms)</text><polygon fill="#4A4A86" points="607,390.9097,617,394.9097,607,398.9097,611,394.9097" style="stroke: #4A4A86; stroke-width: 1.0;"/><line style="stroke: #4A4A86; stroke-width: 1.0;" x1="193" x2="613" y1="394.9097" y2="394.9097"/><text fill="#33335B" font-family="sans-serif" font-size="13" lengthAdjust="spacingAndGlyphs" textLength="96" x="200" y="390.0532">work_set_timer()</text><polygon fill="#4A4A86" points="181,422.6641,191,426.6641,181,430.6641,185,426.6641" style="stroke: #4A4A86; stroke-width: 1.0;"/><line style="stroke: #4A4A86; stroke-width: 1.0;" x1="26" x2="187" y1="426.6641" y2="426.6641"/><text fill="#33335B" font-family="sans-serif" font-size="13" lengthAdjust="spacingAndGlyphs" textLength="143" x="33" y="421.8076">new pipeline 1 (@core 1)</text><polygon fill="#4A4A86" points="389,436.6641,399,440.6641,389,444.6641,393,440.6641" style="stroke: #4A4A86; stroke-width: 1.0;"/><line style="stroke: #4A4A86; stroke-width: 1.0;" x1="193" x2="395" y1="440.6641" y2="440.6641"/><polygon fill="#4A4A86" points="607,468.4185,617,472.4185,607,476.4185,611,472.4185" style="stroke: #4A4A86; stroke-width: 1.0;"/><line style="stroke: #4A4A86; stroke-width: 1.0;" x1="411" x2="613" y1="472.4185" y2="472.4185"/><text fill="#33335B" font-family="sans-serif" font-size="13" lengthAdjust="spacingAndGlyphs" textLength="87" x="418" y="467.562">timer_register()</text><line style="stroke: #4A4A86; stroke-width: 1.0;" x1="411" x2="453" y1="504.1729" y2="504.1729"/><line style="stroke: #4A4A86; stroke-width: 1.0;" x1="453" x2="453" y1="504.1729" y2="517.1729"/><line style="stroke: #4A4A86; stroke-width: 1.0;" x1="412" x2="453" y1="517.1729" y2="517.1729"/><polygon fill="#4A4A86" points="422,513.1729,412,517.1729,422,521.1729,418,517.1729" style="stroke: #4A4A86; stroke-width: 1.0;"/><text fill="#33335B" font-family="sans-serif" font-size="13" lengthAdjust="spacingAndGlyphs" textLength="143" x="418" y="499.3164">work_schedule(ppl 1 dai)</text><polygon fill="#4A4A86" points="204,527.1729,194,531.1729,204,535.1729,200,531.1729" style="stroke: #4A4A86; stroke-width: 1.0;"/><line style="stroke: #4A4A86; stroke-width: 1.0; stroke-dasharray: 2.0,2.0;" x1="198" x2="405" y1="531.1729" y2="531.1729"/><polygon fill="#4A4A86" points="209,558.9272,199,562.9272,209,566.9272,205,562.9272" style="stroke: #4A4A86; stroke-width: 1.0;"/><line style="stroke: #4A4A86; stroke-width: 1.0;" x1="203" x2="618" y1="562.9272" y2="562.9272"/><text fill="#33335B" font-family="sans-serif" font-size="13" lengthAdjust="spacingAndGlyphs" textLength="90" x="215" y="558.0708">cb() @ next ms</text><line style="stroke: #4A4A86; stroke-width: 1.0;" x1="198" x2="245" y1="589.6816" y2="589.6816"/><line style="stroke: #4A4A86; stroke-width: 1.0;" x1="245" x2="245" y1="589.6816" y2="602.6816"/><line style="stroke: #4A4A86; stroke-width: 1.0;" x1="204" x2="245" y1="602.6816" y2="602.6816"/><polygon fill="#4A4A86" points="214,598.6816,204,602.6816,214,606.6816,210,602.6816" style="stroke: #4A4A86; stroke-width: 1.0;"/><text fill="#33335B" font-family="sans-serif" font-size="13" lengthAdjust="spacingAndGlyphs" textLength="75" x="210" y="584.8252">ppl 0 dai cb()</text><line style="stroke: #4A4A86; stroke-width: 1.0;" x1="203" x2="245" y1="639.436" y2="639.436"/><line style="stroke: #4A4A86; stroke-width: 1.0;" x1="245" x2="245" y1="639.436" y2="652.436"/><line style="stroke: #4A4A86; stroke-width: 1.0;" x1="204" x2="245" y1="652.436" y2="652.436"/><polygon fill="#4A4A86" points="214,648.436,204,652.436,214,656.436,210,652.436" style="stroke: #4A4A86; stroke-width: 1.0;"/><text fill="#33335B" font-family="sans-serif" font-size="13" lengthAdjust="spacingAndGlyphs" textLength="60" x="210" y="634.5796">ppl 0 copy</text><line style="stroke: #4A4A86; stroke-width: 1.0;" x1="203" x2="245" y1="689.1904" y2="689.1904"/><line style="stroke: #4A4A86; stroke-width: 1.0;" x1="245" x2="245" y1="689.1904" y2="702.1904"/><line style="stroke: #4A4A86; stroke-width: 1.0;" x1="198" x2="245" y1="702.1904" y2="702.1904"/><polygon fill="#4A4A86" points="208,698.1904,198,702.1904,208,706.1904,204,702.1904" style="stroke: #4A4A86; stroke-width: 1.0;"/><text fill="#33335B" font-family="sans-serif" font-size="13" lengthAdjust="spacingAndGlyphs" textLength="184" x="210" y="684.334">work_schedule(ppl 0 dai, +1ms)</text><line style="stroke: #4A4A86; stroke-width: 1.0;" x1="411" x2="458" y1="723.9448" y2="723.9448"/><line style="stroke: #4A4A86; stroke-width: 1.0;" x1="458" x2="458" y1="723.9448" y2="736.9448"/><line style="stroke: #4A4A86; stroke-width: 1.0;" x1="417" x2="458" y1="736.9448" y2="736.9448"/><polygon fill="#4A4A86" points="427,732.9448,417,736.9448,427,740.9448,423,736.9448" style="stroke: #4A4A86; stroke-width: 1.0;"/><text fill="#33335B" font-family="sans-serif" font-size="13" lengthAdjust="spacingAndGlyphs" textLength="75" x="423" y="719.0884">ppl 1 dai cb()</text><line style="stroke: #4A4A86; stroke-width: 1.0;" x1="416" x2="458" y1="773.6992" y2="773.6992"/><line style="stroke: #4A4A86; stroke-width: 1.0;" x1="458" x2="458" y1="773.6992" y2="786.6992"/><line style="stroke: #4A4A86; stroke-width: 1.0;" x1="417" x2="458" y1="786.6992" y2="786.6992"/><polygon fill="#4A4A86" points="427,782.6992,417,786.6992,427,790.6992,423,786.6992" style="stroke: #4A4A86; stroke-width: 1.0;"/><text fill="#33335B" font-family="sans-serif" font-size="13" lengthAdjust="spacingAndGlyphs" textLength="60" x="423" y="768.8428">ppl 1 copy</text><line style="stroke: #4A4A86; stroke-width: 1.0;" x1="416" x2="458" y1="823.4536" y2="823.4536"/><line style="stroke: #4A4A86; stroke-width: 1.0;" x1="458" x2="458" y1="823.4536" y2="836.4536"/><line style="stroke: #4A4A86; stroke-width: 1.0;" x1="411" x2="458" y1="836.4536" y2="836.4536"/><polygon fill="#4A4A86" points="421,832.4536,411,836.4536,421,840.4536,417,836.4536" style="stroke: #4A4A86; stroke-width: 1.0;"/><text fill="#33335B" font-family="sans-serif" font-size="13" lengthAdjust="spacingAndGlyphs" textLength="184" x="423" y="818.5972">work_schedule(ppl 1 dai, +1ms)</text><polygon fill="#4A4A86" points="607,859.208,617,863.208,607,867.208,611,863.208" style="stroke: #4A4A86; stroke-width: 1.0;"/><line style="stroke: #4A4A86; stroke-width: 1.0;" x1="193" x2="613" y1="863.208" y2="863.208"/><text fill="#33335B" font-family="sans-serif" font-size="13" lengthAdjust="spacingAndGlyphs" textLength="96" x="200" y="858.3516">work_set_timer()</text><!--MD5=[b4bbd485a148c7b7edadd09491246161]
@startuml
hidefootbox
skinparam componentStyle uml2

skinparam defaultFontColor	#33335b

skinparam rectangle {
	color		#d6d6de
	backgroundColor	#ffffff
}

skinparam component {
	backgroundColor	#ffffff
	borderColor	#33335b
	arrowColor	#f05772
}

skinparam interface {
	backgroundColor	#ffffff
	borderColor	#f05772
}

skinparam class {
	backgroundColor	#ffffff
	borderColor	#33335b
	arrowColor	#f05772
}
skinparam stereotypeCBackgroundColor	#6fccdd

skinparam sequence {
	arrowColor		#4a4a86
	lifeLineBorderColor	#f05772
	groupBorderColor	#a1a1ca
	boxBorderColor		#a1a1ca
	dividerBorderColor	#d6d6de
	dividerBorderThickness	1
}
skinparam participant {
	borderColor		#33335b
	backgroundColor		#ffffff
}
skinparam actor {
	borderColor		#33335b
	backgroundColor		#ffffff
}

skinparam state {
	borderColor		#33335b
	backgroundColor		#ffffff
}

skinparam node {
	backgroundColor		#ffffff
}

skinparam note {
	backgroundColor 	#f6ed80
	borderColor		#d6d6de
}
participant ipc
participant "core 0" as core_0
participant "core 1" as core_1
participant wallclk

ipc -> core_0 : new pipeline 0 (@core 0)
   activate core_0
   core_0 -> wallclk : timer_register()
   core_0 -> core_0 : work_schedule(ppl 0 dai, +1ms)
   core_0 -> wallclk : work_set_timer(period = +1ms)
ipc <- - core_0
deactivate core_0

wallclk -> core_0 : cb() @ next ms
   activate core_0
   core_0 -> core_0 : ppl 0 dai cb()
      activate core_0
         core_0 -> core_0 : ppl 0 copy
         core_0 -> core_0 : work_schedule(ppl 0 dai, +1ms)
      deactivate core_0
   core_0 -> wallclk : work_set_timer()
   deactivate core_0

ipc -> core_0 : new pipeline 1 (@core 1)
   core_0 -> core_1
   activate core_1
      core_1 -> wallclk : timer_register()
      core_1 -> core_1 : work_schedule(ppl 1 dai)
   core_0 <- - core_1
   deactivate core_1

wallclk -> core_0 : cb() @ next ms
   activate core_0
   activate core_1
   core_0 -> core_0 : ppl 0 dai cb()
      activate core_0
         core_0 -> core_0 : ppl 0 copy
         core_0 -> core_0 : work_schedule(ppl 0 dai, +1ms)
      deactivate core_0
   core_1 -> core_1 : ppl 1 dai cb()
      activate core_1
         core_1 -> core_1 : ppl 1 copy
         core_1 -> core_1 : work_schedule(ppl 1 dai, +1ms)
      deactivate core_1
   deactivate core_1
   core_0 -> wallclk : work_set_timer()
   deactivate core_0

@enduml

PlantUML version 1.2019.12(Sun Nov 03 18:24:54 CST 2019)
(GPL source distribution)
Java Runtime: Java(TM) SE Runtime Environment
JVM: Java HotSpot(TM) 64-Bit Server VM
Java Version: 1.8.0_321-b07
Operating System: Windows 10
Default Encoding: GBK
Language: zh
Country: CN
--></g></svg>